if (_typeface_js && _typeface_js.loadFace) _typeface_js.loadFace({"glyphs":{"ợ":{"x_min":36,"x_max":694,"ha":643,"o":"m 452 342 q 414 501 452 446 q 306 556 376 556 q 225 527 258 556 q 171 456 192 499 q 142 364 151 414 q 134 270 134 314 q 145 185 134 225 q 176 114 156 144 q 222 66 196 84 q 280 49 249 49 q 336 62 311 49 q 380 100 360 76 q 412 153 399 123 q 435 216 426 184 q 447 281 443 249 q 452 342 452 314 m 694 703 q 681 647 694 673 q 646 596 668 620 q 594 552 624 572 q 529 514 564 531 q 550 378 550 456 q 539 287 550 333 q 509 196 529 240 q 461 113 490 153 q 394 42 432 73 q 357 15 377 28 q 317 -7 337 2 q 276 -22 297 -17 q 234 -28 255 -28 q 150 -7 187 -28 q 87 46 113 12 q 49 129 62 81 q 36 233 36 177 q 44 327 36 282 q 70 414 52 372 q 119 495 88 456 q 194 569 149 533 q 270 616 229 597 q 353 635 311 635 q 450 612 411 635 q 512 550 489 590 q 564 593 547 568 q 581 653 581 618 q 575 679 581 665 q 550 703 570 693 l 664 758 q 687 733 681 747 q 694 703 694 718 m 285 -173 q 279 -210 285 -192 q 263 -244 273 -229 q 236 -269 252 -260 q 201 -279 220 -279 q 169 -266 180 -279 q 157 -231 157 -254 q 163 -194 157 -213 q 180 -160 169 -175 q 206 -134 191 -144 q 241 -125 222 -125 q 273 -137 262 -125 q 285 -173 285 -150 "},"Ẩ":{"x_min":-23.734375,"x_max":726.375,"ha":778,"o":"m 251 301 l 154 75 q 165 45 145 54 q 237 29 185 35 l 233 0 l -23 0 l -19 29 q 48 46 23 37 q 83 75 74 55 l 413 833 q 434 849 422 841 q 459 866 446 858 q 484 881 472 874 q 505 893 496 888 l 651 75 q 656 58 653 65 q 668 45 660 51 q 690 35 676 40 q 726 29 704 31 l 723 0 l 462 0 l 465 29 q 534 43 513 32 q 551 75 555 53 l 512 301 l 251 301 m 501 363 l 437 731 l 278 363 l 501 363 m 667 943 q 652 923 657 930 q 636 913 647 917 l 491 1052 l 310 913 q 299 923 304 917 q 288 943 295 930 l 474 1148 l 537 1148 l 667 943 m 643 1403 q 625 1354 643 1374 q 586 1316 607 1333 q 546 1285 564 1300 q 529 1254 529 1270 q 535 1236 529 1246 q 558 1216 542 1226 q 539 1209 548 1210 q 519 1206 529 1207 q 482 1234 493 1222 q 471 1259 471 1247 q 479 1279 471 1270 q 500 1297 488 1288 q 528 1315 513 1306 q 555 1336 543 1324 q 576 1361 568 1347 q 585 1393 585 1375 q 576 1425 585 1413 q 547 1438 567 1438 q 523 1433 535 1438 q 505 1421 512 1429 q 494 1403 497 1413 q 494 1384 491 1394 q 482 1380 489 1382 q 465 1375 474 1378 q 448 1371 456 1373 q 433 1369 439 1370 l 428 1376 q 441 1414 427 1397 q 477 1444 456 1431 q 522 1463 498 1456 q 565 1470 546 1470 q 623 1450 604 1470 q 643 1403 643 1431 "},"ǻ":{"x_min":36,"x_max":643.640625,"ha":625,"o":"m 408 292 q 418 355 412 322 q 430 419 424 388 q 440 475 435 449 q 447 515 444 500 q 425 532 437 523 q 398 548 412 540 q 369 559 385 555 q 338 564 354 564 q 279 548 307 564 q 228 508 252 533 q 186 450 205 483 q 155 384 168 418 q 135 316 142 350 q 128 257 128 283 q 135 177 128 213 q 155 117 142 142 q 186 78 168 92 q 224 65 203 65 q 263 85 240 65 q 312 139 287 106 q 363 212 338 172 q 408 292 388 253 m 610 45 q 515 -10 551 7 q 459 -28 478 -28 q 435 -19 447 -28 q 415 12 424 -11 q 402 77 407 35 q 397 184 397 118 q 353 116 379 153 q 299 46 328 79 q 239 -6 270 14 q 180 -28 208 -28 q 132 -15 157 -28 q 85 25 107 -2 q 50 98 64 54 q 36 206 36 143 q 48 311 36 260 q 86 409 61 362 q 147 497 111 456 q 231 571 183 538 q 271 594 249 583 q 317 615 293 606 q 363 629 340 624 q 407 635 386 635 q 435 631 421 635 q 461 621 449 627 q 486 608 474 615 q 507 594 497 601 q 541 615 523 605 q 577 635 558 626 l 590 611 q 571 594 579 601 q 558 576 564 586 q 548 552 552 567 q 539 515 544 538 q 520 415 529 466 q 504 318 511 364 q 494 238 498 273 q 491 189 491 204 q 493 124 491 150 q 499 81 495 97 q 509 58 503 65 q 524 51 516 51 q 556 55 537 51 q 602 70 575 58 l 610 45 m 452 842 q 441 885 452 866 q 410 904 431 904 q 377 895 391 904 q 353 872 363 886 q 338 841 343 858 q 334 808 334 824 q 345 764 334 783 q 377 746 356 746 q 409 755 395 746 q 433 778 423 764 q 447 809 442 792 q 452 842 452 826 m 509 868 q 497 810 509 840 q 464 754 485 780 q 416 712 443 729 q 357 696 389 696 q 325 702 340 696 q 299 721 310 709 q 282 747 288 732 q 277 779 277 762 q 288 841 277 810 q 321 897 300 872 q 370 939 342 923 q 429 956 397 956 q 487 931 465 956 q 509 868 509 906 m 643 1217 l 402 980 q 386 988 392 983 q 372 1004 381 993 l 556 1274 q 574 1269 563 1272 q 596 1262 584 1266 q 617 1255 607 1259 q 633 1247 628 1251 l 643 1217 "},"ʉ":{"x_min":-4.125,"x_max":662.828125,"ha":693,"o":"m 238 54 q 273 66 251 54 q 321 105 294 78 q 380 177 348 133 q 447 284 412 221 l 197 284 q 189 222 192 250 q 186 177 186 194 q 199 83 186 112 q 238 54 213 54 m 661 45 q 567 -9 606 9 q 503 -28 529 -28 q 478 -16 490 -28 q 456 22 465 -4 q 443 93 447 50 q 445 201 440 137 q 386 109 417 151 q 322 36 355 66 q 253 -11 288 5 q 181 -28 218 -28 q 150 -17 168 -28 q 118 13 133 -7 q 92 66 103 34 q 82 138 82 97 q 86 200 82 162 q 98 284 91 239 l 8 284 l -4 299 q 5 322 0 310 q 16 346 10 334 l 109 346 q 117 397 113 372 q 124 445 121 423 q 129 486 127 468 q 132 515 132 504 q 129 540 132 531 q 124 553 127 549 q 115 559 120 558 q 104 561 110 561 q 86 558 98 561 q 63 552 75 556 q 34 544 49 549 l 26 569 q 83 594 54 582 q 136 615 112 606 q 179 629 161 624 q 206 635 198 635 q 233 622 226 635 q 240 578 240 609 q 236 535 240 561 q 229 478 233 509 q 218 413 224 447 q 207 346 212 379 l 464 346 q 480 438 473 394 q 488 515 488 483 q 486 540 488 531 q 481 553 484 549 q 473 559 477 558 q 462 561 469 561 q 446 558 456 561 q 424 552 435 556 q 399 544 412 549 l 388 569 q 445 594 417 582 q 496 615 473 606 q 537 629 519 624 q 563 635 555 635 q 588 622 582 635 q 595 578 595 609 q 591 535 595 561 q 584 478 588 509 q 573 414 579 448 q 561 346 567 379 l 649 346 l 662 328 l 641 284 l 550 284 q 542 220 545 249 q 539 171 539 191 q 547 80 539 109 q 573 51 556 51 q 609 55 591 51 q 651 69 627 59 l 661 45 "},"Ổ":{"x_min":61,"x_max":736,"ha":757,"o":"m 634 512 q 621 620 634 569 q 585 708 609 670 q 527 767 562 745 q 448 790 493 790 q 355 770 396 790 q 283 716 315 750 q 229 639 251 683 q 192 547 206 595 q 170 452 177 500 q 164 360 164 403 q 177 243 164 297 q 214 151 190 190 q 273 90 239 112 q 349 68 307 68 q 443 89 401 68 q 516 144 485 110 q 570 225 547 179 q 606 320 592 271 q 627 420 621 370 q 634 512 634 470 m 736 525 q 728 427 736 476 q 704 329 720 377 q 665 236 688 281 q 611 152 641 191 q 550 84 582 116 q 481 29 518 52 q 405 -7 445 6 q 319 -21 364 -21 q 205 6 254 -21 q 125 82 157 34 q 76 194 92 130 q 61 328 61 257 q 68 419 61 371 q 91 515 76 467 q 126 608 105 563 q 174 690 147 653 q 236 762 203 728 q 306 820 269 795 q 387 860 344 845 q 478 875 430 875 q 593 847 544 875 q 673 771 642 819 q 720 659 705 723 q 736 525 736 596 m 670 943 q 655 923 660 930 q 639 913 650 917 l 493 1052 l 313 913 q 302 923 307 917 q 290 943 297 930 l 477 1148 l 539 1148 l 670 943 m 645 1403 q 628 1354 645 1374 q 588 1316 610 1333 q 549 1285 567 1300 q 531 1254 531 1270 q 538 1236 531 1246 q 561 1216 545 1226 q 541 1209 550 1210 q 522 1206 532 1207 q 484 1234 495 1222 q 473 1259 473 1247 q 482 1279 473 1270 q 503 1297 490 1288 q 530 1315 516 1306 q 558 1336 545 1324 q 579 1361 570 1347 q 587 1393 587 1375 q 579 1425 587 1413 q 550 1438 570 1438 q 526 1433 537 1438 q 508 1421 515 1429 q 497 1403 500 1413 q 497 1384 493 1394 q 484 1380 492 1382 q 468 1375 476 1378 q 450 1371 459 1373 q 436 1369 442 1370 l 430 1376 q 444 1414 430 1397 q 479 1444 458 1431 q 524 1463 500 1456 q 568 1470 548 1470 q 626 1450 607 1470 q 645 1403 645 1431 "},"Ừ":{"x_min":113.921875,"x_max":976.6875,"ha":926,"o":"m 976 961 q 960 897 976 927 q 916 841 944 867 q 851 793 888 815 q 772 754 814 771 l 715 347 q 674 189 703 258 q 601 73 645 120 q 501 3 558 27 q 377 -21 444 -21 q 275 -4 322 -21 q 195 45 229 12 q 144 125 162 78 q 126 236 126 173 q 132 314 126 272 l 198 783 q 178 804 199 791 q 113 825 157 816 l 118 855 l 396 855 l 392 825 q 323 804 349 816 q 295 783 297 793 l 236 345 q 232 306 233 326 q 232 269 232 286 q 243 182 232 221 q 277 116 255 144 q 334 73 300 88 q 412 58 368 58 q 493 79 456 58 q 559 137 531 101 q 606 220 588 173 q 632 318 625 267 l 694 783 q 676 804 695 791 q 613 825 657 816 l 617 855 l 849 855 q 864 911 864 878 q 858 937 864 923 q 833 961 853 951 l 947 1016 q 970 991 964 1005 q 976 961 976 976 m 615 944 q 600 925 606 931 q 583 913 594 919 l 311 1078 l 320 1109 q 337 1121 326 1114 q 360 1135 347 1128 q 383 1147 372 1141 q 403 1158 395 1153 l 615 944 "},"̂":{"x_min":-420.5,"x_max":-41.375,"ha":0,"o":"m -41 726 q -55 706 -50 712 q -71 696 -61 700 l -212 875 l -398 696 q -408 706 -404 700 q -420 726 -413 712 l -227 978 l -165 978 l -41 726 "},"Á":{"x_min":-23.734375,"x_max":726.375,"ha":778,"o":"m 251 301 l 154 75 q 165 45 145 54 q 237 29 185 35 l 233 0 l -23 0 l -19 29 q 48 46 23 37 q 83 75 74 55 l 413 833 q 434 849 422 841 q 459 866 446 858 q 484 881 472 874 q 505 893 496 888 l 651 75 q 656 58 653 65 q 668 45 660 51 q 690 35 676 40 q 726 29 704 31 l 723 0 l 462 0 l 465 29 q 534 43 513 32 q 551 75 555 53 l 512 301 l 251 301 m 501 363 l 437 731 l 278 363 l 501 363 m 700 1078 l 392 913 q 379 925 382 919 q 369 944 375 931 l 634 1158 l 650 1147 q 669 1135 659 1141 q 687 1121 678 1128 q 700 1109 696 1114 l 700 1078 "},"ṑ":{"x_min":36,"x_max":577.84375,"ha":586,"o":"m 452 342 q 414 501 452 446 q 306 556 376 556 q 225 527 258 556 q 171 456 192 499 q 142 364 151 414 q 134 270 134 314 q 145 185 134 225 q 176 114 156 144 q 222 66 196 84 q 280 49 249 49 q 336 62 311 49 q 380 100 360 76 q 412 153 399 123 q 435 216 426 184 q 447 281 443 249 q 452 342 452 314 m 550 379 q 539 287 550 333 q 509 196 529 240 q 461 113 490 153 q 394 42 432 73 q 357 15 377 28 q 317 -7 337 2 q 276 -22 297 -17 q 234 -28 255 -28 q 150 -7 187 -28 q 87 46 113 12 q 49 129 62 81 q 36 233 36 177 q 44 327 36 282 q 70 414 52 372 q 119 495 88 456 q 194 569 149 533 q 270 616 229 597 q 354 635 311 635 q 444 616 406 635 q 504 563 481 597 q 539 482 528 529 q 550 379 550 435 m 577 853 q 571 836 575 845 q 561 817 566 826 q 552 799 556 807 q 543 785 547 790 l 171 785 l 160 801 q 167 817 163 807 q 175 835 171 826 q 185 854 180 845 q 193 870 189 863 l 564 870 l 577 853 m 425 961 q 403 950 411 953 q 383 946 395 947 l 213 1208 l 235 1232 q 256 1235 243 1234 q 282 1238 268 1237 q 309 1240 296 1239 q 330 1240 322 1240 l 425 961 "},"Ȯ":{"x_min":61,"x_max":736,"ha":757,"o":"m 634 512 q 621 620 634 569 q 585 708 609 670 q 527 767 562 745 q 448 790 493 790 q 355 770 396 790 q 283 716 315 750 q 229 639 251 683 q 192 547 206 595 q 170 452 177 500 q 164 360 164 403 q 177 243 164 297 q 214 151 190 190 q 273 90 239 112 q 349 68 307 68 q 443 89 401 68 q 516 144 485 110 q 570 225 547 179 q 606 320 592 271 q 627 420 621 370 q 634 512 634 470 m 736 525 q 728 427 736 476 q 704 329 720 377 q 665 236 688 281 q 611 152 641 191 q 550 84 582 116 q 481 29 518 52 q 405 -7 445 6 q 319 -21 364 -21 q 205 6 254 -21 q 125 82 157 34 q 76 194 92 130 q 61 328 61 257 q 68 419 61 371 q 91 515 76 467 q 126 608 105 563 q 174 690 147 653 q 236 762 203 728 q 306 820 269 795 q 387 860 344 845 q 478 875 430 875 q 593 847 544 875 q 673 771 642 819 q 720 659 705 723 q 736 525 736 596 m 556 1050 q 550 1013 556 1031 q 533 979 544 994 q 507 954 522 964 q 472 945 491 945 q 439 957 451 945 q 428 992 428 969 q 434 1029 428 1010 q 451 1063 440 1048 q 477 1089 462 1079 q 511 1099 492 1099 q 544 1086 533 1099 q 556 1050 556 1073 "},"ĥ":{"x_min":58.75,"x_max":657.375,"ha":686,"o":"m 657 48 q 553 -7 594 12 q 483 -28 512 -28 q 449 -6 464 -28 q 434 51 434 14 q 438 95 434 63 q 449 168 442 126 q 463 258 455 210 q 476 348 470 306 q 487 425 483 391 q 492 475 492 459 q 489 518 492 500 q 482 546 487 535 q 468 561 477 557 q 444 566 459 566 q 413 555 435 566 q 362 523 391 544 q 302 470 333 502 q 246 394 271 438 q 215 313 227 362 q 194 204 203 265 q 184 138 187 166 q 179 87 180 109 q 177 48 177 65 q 178 16 176 31 q 156 6 169 12 q 128 -5 142 0 q 102 -17 115 -11 q 81 -28 89 -23 l 58 -6 q 74 83 64 29 q 93 202 83 137 q 115 339 104 267 q 137 482 126 410 q 158 622 148 554 q 175 747 167 690 q 186 848 182 805 q 191 912 191 891 q 188 937 191 928 q 182 951 186 946 q 173 957 178 955 q 163 958 168 958 q 143 955 156 958 q 117 948 131 952 q 85 940 102 944 l 77 966 q 134 990 105 979 q 188 1011 163 1002 q 232 1025 213 1020 q 260 1031 251 1031 q 289 1018 279 1031 q 300 975 300 1006 q 295 921 300 959 q 285 834 291 883 q 270 730 279 786 q 254 622 262 674 q 240 527 247 571 q 229 459 233 484 q 307 542 268 508 q 382 596 346 575 q 452 625 419 616 q 516 635 486 635 q 577 608 559 635 q 596 515 596 581 q 591 456 596 491 q 580 380 587 421 q 567 296 574 339 q 553 213 559 252 q 542 142 546 174 q 538 91 538 110 q 546 59 538 68 q 562 51 554 51 q 601 57 581 51 q 647 73 622 62 l 657 48 m 640 1119 q 626 1100 631 1106 q 610 1089 621 1094 l 464 1228 l 284 1089 q 273 1099 278 1093 q 261 1119 268 1106 l 448 1324 l 510 1324 l 640 1119 "},"»":{"x_min":40.6875,"x_max":546.640625,"ha":598,"o":"m 546 329 q 545 320 546 327 q 543 304 545 312 l 541 280 l 286 5 l 263 24 l 440 305 q 433 325 440 304 q 414 376 425 346 q 390 444 403 407 q 365 511 377 480 q 346 562 354 541 l 339 583 l 367 603 l 546 329 m 324 329 q 323 320 324 327 q 321 304 322 312 l 318 280 l 63 5 l 40 24 l 217 305 q 210 325 218 304 q 192 376 203 346 q 167 444 181 407 q 143 511 154 480 q 124 562 131 541 l 116 583 l 145 603 l 324 329 "},"Ḻ":{"x_min":0,"x_max":575.140625,"ha":623,"o":"m 575 166 q 547 63 561 107 q 524 0 533 19 l 0 0 l 4 29 q 72 49 46 38 q 99 70 98 61 l 198 783 q 179 804 200 791 q 113 825 158 816 l 118 855 l 396 855 l 392 825 q 323 804 349 816 q 295 783 297 793 l 202 105 q 205 84 201 93 q 222 71 209 76 q 256 64 234 66 q 312 62 278 62 l 398 62 q 447 65 427 62 q 483 80 467 68 q 514 115 499 92 q 548 178 529 138 l 575 166 m 458 -159 q 452 -176 456 -167 q 442 -195 447 -186 q 432 -213 437 -205 q 424 -228 427 -222 l 52 -228 l 41 -211 q 48 -195 44 -205 q 56 -177 52 -186 q 65 -158 61 -167 q 74 -143 70 -149 l 445 -143 l 458 -159 "},"∆":{"x_min":33.90625,"x_max":666.015625,"ha":754,"o":"m 546 112 q 500 335 522 226 q 480 432 491 382 q 460 531 470 482 q 441 626 451 581 q 425 711 432 672 q 382 619 405 668 q 336 520 360 571 q 289 421 313 470 q 245 326 266 371 q 145 112 195 219 q 137 92 139 100 q 140 82 134 85 q 161 77 145 78 q 206 77 177 77 l 473 77 q 519 77 503 77 q 542 82 535 78 q 549 92 549 85 q 546 112 548 100 m 648 0 l 38 0 l 33 34 q 183 347 111 196 q 245 480 213 412 q 308 613 278 548 q 365 736 338 678 q 412 838 392 794 q 430 854 420 846 q 451 869 440 862 q 472 882 461 876 q 491 893 482 888 q 512 779 499 842 q 538 646 524 716 q 567 504 552 576 q 596 364 582 431 q 666 34 630 204 l 648 0 "},"ṟ":{"x_min":-113.953125,"x_max":520.6875,"ha":493,"o":"m 520 576 q 502 550 512 565 q 483 519 492 534 q 464 495 473 505 q 448 485 455 485 q 426 492 435 485 q 409 508 417 499 q 394 524 402 517 q 376 532 386 532 q 335 507 358 532 q 288 444 311 483 q 243 357 265 405 q 207 259 222 308 q 194 203 200 234 q 184 139 188 172 q 177 75 179 107 q 177 16 175 43 q 154 6 168 12 q 127 -5 141 0 q 100 -17 113 -11 q 79 -28 87 -23 l 57 -6 q 77 92 67 41 q 95 195 86 144 q 110 295 103 246 q 122 386 117 344 q 130 461 127 428 q 134 515 134 495 q 131 540 134 531 q 125 553 129 549 q 116 559 121 558 q 106 561 111 561 q 87 558 99 561 q 64 552 76 556 q 36 544 51 549 l 26 569 q 84 594 55 582 q 138 615 112 606 q 182 629 163 624 q 209 635 201 635 q 224 631 218 635 q 232 619 229 628 q 235 596 234 611 q 236 557 236 580 q 233 531 236 549 q 229 493 231 514 q 223 452 226 472 q 218 419 220 432 q 279 528 250 486 q 335 594 309 570 q 385 626 361 618 q 430 635 408 635 q 452 628 442 635 q 472 611 462 621 q 494 592 482 602 q 520 576 505 582 m 303 -159 q 296 -176 301 -167 q 287 -195 292 -186 q 277 -213 282 -205 q 269 -228 272 -222 l -103 -228 l -113 -211 q -107 -195 -111 -205 q -98 -177 -103 -186 q -89 -158 -94 -167 q -80 -143 -84 -149 l 290 -143 l 303 -159 "},"ỹ":{"x_min":-122.859375,"x_max":621.25,"ha":628,"o":"m 606 583 q 593 524 606 560 q 552 427 580 487 q 478 276 524 366 q 366 55 432 185 q 276 -105 321 -33 q 183 -230 231 -178 q 84 -310 136 -282 q -24 -339 33 -339 q -62 -335 -44 -339 q -94 -327 -80 -332 q -115 -315 -107 -322 q -122 -304 -122 -309 q -116 -281 -122 -296 q -100 -251 -109 -266 q -79 -221 -90 -235 q -59 -203 -68 -208 q -30 -220 -42 -214 q -6 -229 -17 -226 q 14 -232 3 -232 q 37 -233 25 -233 q 145 -179 92 -233 q 254 -29 197 -126 q 238 59 248 9 q 216 160 228 108 q 191 265 204 213 q 166 364 178 318 q 141 447 153 410 q 119 505 129 484 q 92 550 103 540 q 70 561 81 561 q 53 558 64 561 q 31 552 41 556 q 3 544 18 549 l -4 569 q 50 594 24 582 q 96 615 75 606 q 132 629 117 624 q 156 635 148 635 q 173 630 166 635 q 187 615 180 625 q 200 588 193 605 q 214 548 206 571 q 243 462 227 512 q 273 354 258 412 q 304 235 289 297 q 331 112 319 173 q 375 199 353 154 q 417 287 397 243 q 455 370 438 330 q 485 443 472 409 q 506 500 499 476 q 514 536 514 524 q 478 572 514 570 q 416 557 456 574 l 404 582 q 489 622 452 610 q 550 635 526 635 q 571 633 561 635 q 589 626 582 631 q 601 610 597 620 q 606 583 606 600 m 621 899 q 589 845 607 872 q 550 796 571 818 q 504 762 529 775 q 454 749 480 749 q 415 760 432 749 q 382 786 398 772 q 350 811 366 799 q 316 823 334 823 q 268 801 293 823 q 215 742 244 780 l 186 756 q 218 810 200 783 q 258 858 236 836 q 303 892 279 879 q 354 906 328 906 q 395 894 376 906 q 430 869 413 882 q 460 843 446 855 q 489 832 474 832 q 538 853 512 832 q 590 913 564 874 l 621 899 "},"«":{"x_min":39.34375,"x_max":545.296875,"ha":598,"o":"m 39 280 q 42 304 40 293 q 45 320 44 312 q 47 329 46 327 l 299 603 l 322 583 l 315 571 q 295 539 307 559 q 266 495 282 520 q 234 444 250 470 q 202 392 217 417 q 173 348 186 367 q 153 316 161 328 q 147 305 146 305 l 247 24 l 219 5 l 39 280 m 261 280 q 265 304 263 293 q 267 320 266 312 q 269 329 268 327 l 522 603 l 545 583 l 537 571 q 517 539 530 559 q 489 495 505 520 q 456 444 473 470 q 424 392 440 417 q 396 348 408 367 q 376 316 383 328 q 369 305 368 305 l 470 24 l 441 5 l 261 280 "},"ử":{"x_min":26.203125,"x_max":803,"ha":751,"o":"m 803 703 q 785 637 803 668 q 738 579 768 606 q 669 530 709 553 q 586 490 630 508 q 572 405 579 451 q 556 316 564 360 q 544 234 549 272 q 539 171 539 196 q 547 80 539 110 q 573 51 556 51 q 609 55 591 51 q 651 69 627 59 l 661 45 q 567 -9 606 9 q 503 -28 529 -28 q 478 -16 490 -28 q 456 22 465 -4 q 443 93 447 50 q 445 201 440 137 q 386 109 417 151 q 322 36 355 66 q 253 -11 288 5 q 181 -28 218 -28 q 150 -17 168 -28 q 118 14 133 -6 q 92 66 103 35 q 82 138 82 97 q 85 190 82 159 q 94 257 89 221 q 107 332 100 293 q 119 406 113 371 q 128 470 124 441 q 132 515 132 499 q 129 540 132 531 q 124 553 127 549 q 115 559 120 558 q 104 561 110 561 q 86 558 98 561 q 63 552 75 556 q 34 544 49 549 l 26 569 q 83 594 54 582 q 136 615 112 606 q 179 629 161 624 q 206 635 198 635 q 233 622 226 635 q 240 577 240 609 q 235 526 240 558 q 225 456 231 494 q 213 377 219 418 q 200 299 206 337 q 190 229 194 261 q 186 177 186 197 q 199 83 186 112 q 238 54 213 54 q 274 67 252 54 q 325 109 297 80 q 387 187 354 139 q 457 303 421 234 q 467 361 462 332 q 477 418 472 391 q 484 471 481 446 q 488 515 488 495 q 486 540 488 531 q 481 553 484 549 q 473 559 477 558 q 462 561 469 561 q 446 558 456 561 q 424 552 435 556 q 399 544 412 549 l 388 569 q 445 594 417 582 q 496 615 473 606 q 537 629 519 624 q 563 635 555 635 q 588 622 582 635 q 595 578 595 609 q 594 559 595 569 q 592 538 593 549 q 665 584 641 556 q 690 653 690 612 q 684 679 690 665 q 659 703 679 693 l 773 758 q 796 733 790 747 q 803 703 803 718 m 525 904 q 507 855 525 876 q 468 818 489 834 q 428 787 446 801 q 411 755 411 772 q 417 738 411 748 q 440 718 424 728 q 421 710 430 712 q 401 708 411 709 q 364 736 375 723 q 353 760 353 749 q 361 780 353 771 q 382 798 370 790 q 410 816 395 807 q 437 837 425 826 q 458 863 450 849 q 467 895 467 876 q 458 927 467 914 q 429 940 449 940 q 405 935 417 940 q 387 922 394 930 q 376 905 379 914 q 376 886 373 895 q 364 882 371 884 q 347 877 356 879 q 330 873 338 874 q 315 870 321 871 l 310 878 q 323 915 309 898 q 359 945 338 933 q 404 965 380 958 q 447 972 428 972 q 505 952 486 972 q 525 904 525 932 "},"í":{"x_min":47.875,"x_max":476.109375,"ha":342,"o":"m 309 48 q 251 15 277 29 q 205 -8 226 1 q 167 -23 184 -18 q 135 -28 150 -28 q 98 -6 112 -28 q 85 51 85 14 q 90 109 85 71 q 102 192 95 146 q 119 288 110 238 q 135 383 127 338 q 147 463 142 428 q 153 515 153 499 q 150 540 153 531 q 145 553 148 549 q 136 559 142 558 q 125 560 131 560 q 108 558 119 560 q 85 552 97 556 q 57 544 72 549 l 47 569 q 104 594 76 582 q 157 615 132 606 q 200 629 181 624 q 227 635 218 635 q 254 622 246 635 q 262 577 262 609 q 256 519 262 558 q 243 433 251 481 q 226 334 235 386 q 209 235 217 282 q 196 149 201 187 q 191 91 191 110 q 195 60 191 70 q 211 51 199 51 q 251 56 232 51 q 298 73 271 61 l 309 48 m 476 932 l 235 696 q 219 703 224 698 q 204 719 214 708 l 389 990 q 406 984 396 987 q 428 978 417 981 q 450 970 440 974 q 465 962 460 966 l 476 932 "},"ʠ":{"x_min":36,"x_max":925.828125,"ha":623,"o":"m 429 299 q 448 409 439 354 q 465 514 457 463 q 441 531 454 522 q 414 547 428 540 q 382 559 399 554 q 346 564 365 564 q 287 548 315 564 q 233 508 258 533 q 188 450 209 483 q 153 384 168 418 q 131 316 139 350 q 123 257 123 283 q 133 177 123 213 q 159 117 143 142 q 195 78 175 92 q 235 65 215 65 q 277 85 253 65 q 327 139 301 106 q 380 215 353 172 q 429 299 406 257 m 925 951 q 895 929 911 941 q 863 907 879 917 q 835 891 848 897 q 813 885 822 885 q 796 896 805 885 q 778 923 788 908 q 756 949 769 937 q 724 961 743 961 q 684 949 702 961 q 651 913 666 937 q 625 849 636 888 q 603 756 613 811 q 584 647 595 713 q 558 503 572 581 q 531 338 545 424 q 503 166 516 251 q 480 2 491 81 q 462 -139 469 -76 q 454 -246 455 -203 q 458 -303 453 -289 q 435 -310 449 -306 q 405 -320 421 -315 q 376 -329 390 -324 q 354 -339 362 -334 l 331 -319 q 345 -224 336 -281 q 365 -97 354 -166 q 389 51 377 -27 q 415 212 402 130 l 409 177 q 358 100 385 137 q 301 35 331 63 q 243 -10 272 6 q 187 -28 214 -28 q 138 -15 164 -28 q 89 25 111 -2 q 51 98 66 54 q 36 206 36 143 q 49 312 36 260 q 90 411 63 364 q 154 499 116 458 q 240 571 191 540 q 280 594 259 583 q 325 615 302 606 q 370 629 347 624 q 415 635 393 635 q 450 629 432 635 q 482 616 467 623 l 501 722 q 522 813 510 775 q 550 879 534 851 q 587 928 567 908 q 631 967 607 949 q 666 992 649 980 q 701 1012 683 1003 q 737 1026 718 1021 q 777 1031 756 1031 q 830 1019 807 1031 q 870 994 853 1008 q 902 967 888 980 q 925 951 915 954 "},"ǜ":{"x_min":26.203125,"x_max":661.078125,"ha":693,"o":"m 661 45 q 567 -9 606 9 q 503 -28 529 -28 q 478 -16 490 -28 q 456 22 465 -4 q 443 93 447 50 q 445 201 440 137 q 386 109 417 151 q 322 36 355 66 q 253 -11 288 5 q 181 -28 218 -28 q 150 -17 168 -28 q 118 14 133 -6 q 92 66 103 35 q 82 138 82 97 q 85 190 82 159 q 94 257 89 221 q 107 332 100 293 q 119 406 113 371 q 128 470 124 441 q 132 515 132 499 q 129 540 132 531 q 124 553 127 549 q 115 559 120 558 q 104 561 110 561 q 86 558 98 561 q 63 552 75 556 q 34 544 49 549 l 26 569 q 83 594 54 582 q 136 615 112 606 q 179 629 161 624 q 206 635 198 635 q 233 622 226 635 q 240 577 240 609 q 235 526 240 558 q 225 456 231 494 q 213 377 219 418 q 200 299 206 337 q 190 229 194 261 q 186 177 186 197 q 199 83 186 112 q 238 54 213 54 q 274 67 252 54 q 325 109 297 80 q 387 187 354 139 q 457 303 421 234 q 467 361 462 332 q 477 418 472 391 q 484 471 481 446 q 488 515 488 495 q 486 540 488 531 q 481 553 484 549 q 473 559 477 558 q 462 561 469 561 q 446 558 456 561 q 424 552 435 556 q 399 544 412 549 l 388 569 q 445 594 417 582 q 496 615 473 606 q 537 629 519 624 q 563 635 555 635 q 588 622 582 635 q 595 577 595 609 q 590 526 595 558 q 580 457 586 495 q 567 378 574 419 q 553 299 559 337 q 543 227 547 260 q 539 171 539 194 q 547 80 539 110 q 573 51 556 51 q 609 55 591 51 q 651 69 627 59 l 661 45 m 353 855 q 347 818 353 836 q 330 784 341 799 q 303 759 319 769 q 268 750 287 750 q 235 762 247 750 q 222 797 222 774 q 229 834 222 815 q 246 868 235 853 q 274 894 258 884 q 309 904 290 904 q 341 891 330 904 q 353 855 353 878 m 606 855 q 600 818 606 836 q 583 784 594 799 q 556 759 572 769 q 520 750 540 750 q 487 762 499 750 q 475 797 475 774 q 481 834 475 815 q 498 868 488 853 q 525 894 509 884 q 560 904 540 904 q 594 891 581 904 q 606 855 606 878 m 476 961 q 455 950 463 953 q 434 946 446 947 l 265 1208 l 286 1232 q 307 1235 295 1234 q 334 1238 320 1237 q 360 1240 347 1239 q 382 1240 373 1240 l 476 961 "},"ṥ":{"x_min":-2.625,"x_max":530.375,"ha":482,"o":"m 473 572 q 446 544 459 556 q 421 522 433 531 q 401 507 410 512 q 387 502 392 502 q 368 514 378 502 q 346 540 358 526 q 317 566 333 554 q 278 578 300 578 q 240 570 259 578 q 207 551 222 563 q 184 520 193 538 q 175 480 175 502 q 197 430 175 457 q 275 379 220 404 q 330 349 302 366 q 380 310 358 332 q 416 260 402 288 q 430 195 430 231 q 405 108 430 149 q 344 36 381 67 q 260 -10 306 6 q 171 -28 214 -28 q 107 -18 139 -28 q 52 4 76 -9 q 12 35 27 18 q -2 66 -2 51 q 5 87 -2 73 q 24 116 13 102 q 47 140 36 129 q 66 150 59 150 q 76 142 71 150 q 89 121 81 133 q 107 93 97 108 q 135 66 118 79 q 173 45 151 53 q 224 37 195 37 q 269 46 248 37 q 306 70 291 55 q 331 106 322 85 q 341 151 341 127 q 330 198 341 177 q 301 237 319 220 q 259 269 283 254 q 210 295 236 283 q 150 329 174 312 q 110 364 125 346 q 89 401 95 381 q 83 442 83 421 q 104 520 83 485 q 158 581 125 556 q 232 621 191 607 q 314 635 274 635 q 372 626 348 635 q 414 607 396 618 q 445 586 432 597 q 473 572 459 576 m 530 932 l 289 696 q 273 703 278 698 q 259 719 268 708 l 443 990 q 460 984 450 987 q 482 978 471 981 q 504 970 494 974 q 520 962 514 966 l 530 932 m 415 1106 q 409 1069 415 1087 q 392 1035 403 1050 q 366 1010 382 1019 q 331 1000 350 1000 q 299 1013 310 1000 q 287 1048 287 1025 q 293 1085 287 1066 q 310 1119 299 1104 q 336 1145 321 1135 q 371 1154 352 1154 q 403 1142 392 1154 q 415 1106 415 1129 "},"µ":{"x_min":4.953125,"x_max":693.25,"ha":713,"o":"m 485 339 q 497 408 491 375 q 506 470 502 442 q 510 515 510 499 q 507 559 510 537 q 498 595 505 582 q 525 605 510 599 q 555 616 540 610 q 586 626 571 621 q 616 635 602 631 q 625 621 622 627 q 630 608 628 614 q 620 554 626 588 q 605 480 613 521 q 589 394 597 439 q 575 307 582 349 q 565 230 569 265 q 561 172 561 194 q 563 123 561 142 q 568 95 565 105 q 576 83 571 86 q 586 81 580 81 q 599 82 592 81 q 614 92 605 84 q 636 117 624 100 q 669 165 649 135 l 693 146 q 642 60 664 93 q 600 6 620 26 q 561 -20 580 -13 q 520 -28 541 -28 q 461 165 463 -28 q 413 87 437 122 q 363 26 389 51 q 311 -13 338 0 q 258 -28 285 -28 q 215 -18 236 -28 q 178 9 195 -8 q 148 53 161 27 q 125 110 134 78 l 119 70 q 112 -59 110 0 q 121 -167 114 -120 q 137 -245 128 -214 q 148 -284 145 -275 q 121 -295 138 -288 q 86 -311 104 -303 q 51 -327 68 -319 q 27 -339 35 -334 l 4 -319 q 17 -231 9 -280 q 34 -126 25 -181 q 54 -11 43 -70 q 74 105 64 47 q 93 217 84 163 q 110 316 102 271 q 117 370 112 343 q 125 424 121 398 q 131 473 128 449 q 134 515 134 497 q 131 540 134 531 q 126 553 129 549 q 117 559 122 558 q 107 561 112 561 q 89 558 100 561 q 66 552 77 556 q 37 544 52 549 l 28 569 q 85 594 56 582 q 139 615 114 606 q 183 629 164 624 q 210 635 201 635 q 235 622 229 635 q 242 578 242 609 q 238 531 242 558 q 231 473 235 504 q 221 411 226 443 q 210 350 215 380 q 203 294 206 320 q 200 250 200 268 q 206 182 200 213 q 223 128 212 150 q 248 93 233 106 q 281 81 263 81 q 334 98 306 81 q 393 154 362 116 q 456 250 423 192 q 477 287 466 268 q 485 339 481 312 "},"ỳ":{"x_min":-122.859375,"x_max":606,"ha":628,"o":"m 606 583 q 593 524 606 560 q 552 427 580 487 q 478 276 524 366 q 366 55 432 185 q 276 -105 321 -33 q 183 -230 231 -178 q 84 -310 136 -282 q -24 -339 33 -339 q -62 -335 -44 -339 q -94 -327 -80 -332 q -115 -315 -107 -322 q -122 -304 -122 -309 q -116 -281 -122 -296 q -100 -251 -109 -266 q -79 -221 -90 -235 q -59 -203 -68 -208 q -30 -220 -42 -214 q -6 -229 -17 -226 q 14 -232 3 -232 q 37 -233 25 -233 q 145 -179 92 -233 q 254 -29 197 -126 q 238 59 248 9 q 216 160 228 108 q 191 265 204 213 q 166 364 178 318 q 141 447 153 410 q 119 505 129 484 q 92 550 103 540 q 70 561 81 561 q 53 558 64 561 q 31 552 41 556 q 3 544 18 549 l -4 569 q 50 594 24 582 q 96 615 75 606 q 132 629 117 624 q 156 635 148 635 q 173 630 166 635 q 187 615 180 625 q 200 588 193 605 q 214 548 206 571 q 243 462 227 512 q 273 354 258 412 q 304 235 289 297 q 331 112 319 173 q 375 199 353 154 q 417 287 397 243 q 455 370 438 330 q 485 443 472 409 q 506 500 499 476 q 514 536 514 524 q 478 572 514 570 q 416 557 456 574 l 404 582 q 489 622 452 610 q 550 635 526 635 q 571 633 561 635 q 589 626 582 631 q 601 610 597 620 q 606 583 606 600 m 430 710 q 408 699 417 702 q 388 696 400 696 l 219 957 l 240 982 q 261 984 248 983 q 287 987 274 986 q 314 989 301 988 q 336 990 327 990 l 430 710 "},"Ḟ":{"x_min":0,"x_max":640.25,"ha":604,"o":"m 640 837 q 631 799 636 820 q 620 757 626 778 q 607 717 613 736 q 594 685 600 698 l 567 685 q 568 737 569 716 q 562 770 567 757 q 549 787 557 782 q 529 793 541 793 l 296 793 l 255 498 l 474 498 l 490 479 q 474 459 482 469 q 457 439 465 449 q 439 421 448 429 q 423 406 430 412 q 370 436 400 429 q 295 444 340 444 l 248 444 l 197 70 q 219 52 196 62 q 301 29 242 42 l 297 0 l 0 0 l 4 29 q 72 49 46 38 q 99 70 98 61 l 198 783 q 179 804 200 791 q 113 825 158 816 l 118 855 l 623 855 l 640 837 m 466 1050 q 460 1013 466 1031 q 443 979 454 994 q 416 954 432 964 q 382 945 401 945 q 349 957 361 945 q 338 992 338 969 q 344 1029 338 1010 q 361 1063 350 1048 q 387 1089 372 1079 q 421 1099 402 1099 q 454 1086 442 1099 q 466 1050 466 1073 "},"M":{"x_min":2.71875,"x_max":1041.75,"ha":1025,"o":"m 1039 825 q 996 819 1020 825 q 948 801 973 812 l 866 70 q 887 50 865 62 q 954 29 910 38 l 950 0 l 672 0 l 676 29 q 746 49 718 38 q 775 70 773 61 l 848 718 l 482 0 l 454 0 l 265 710 l 173 70 q 192 50 172 62 q 257 29 212 38 l 252 0 l 2 0 l 6 29 q 75 49 50 38 q 101 70 100 61 l 207 800 q 163 820 186 814 q 123 825 141 825 l 127 855 l 307 855 q 316 852 312 855 q 323 844 320 850 q 329 827 326 838 q 337 798 333 816 l 506 190 l 817 798 q 833 827 827 816 q 845 844 840 838 q 854 852 850 850 q 865 855 859 855 l 1041 855 l 1039 825 "},"Ḏ":{"x_min":0.546875,"x_max":731,"ha":758,"o":"m 731 505 q 719 384 731 445 q 684 268 707 324 q 627 163 661 212 q 548 77 593 113 q 448 20 503 41 q 326 0 392 0 l 0 0 l 4 29 q 73 49 47 38 q 100 70 98 61 l 201 809 l 97 797 l 97 840 q 251 867 175 859 q 397 875 328 875 q 539 848 477 875 q 643 773 600 822 q 708 657 686 725 q 731 505 731 589 m 342 817 l 321 817 q 301 817 311 817 l 203 94 q 205 77 201 84 q 221 65 210 70 q 254 59 233 61 q 309 57 275 57 q 401 75 359 57 q 478 127 443 94 q 539 203 513 160 q 584 295 566 246 q 611 394 602 343 q 621 493 621 445 q 602 625 621 565 q 549 727 584 684 q 461 794 513 770 q 342 817 410 817 m 506 -159 q 500 -176 504 -167 q 490 -195 495 -186 q 480 -213 485 -205 q 472 -228 476 -222 l 100 -228 l 89 -211 q 96 -195 92 -205 q 104 -177 100 -186 q 113 -158 109 -167 q 122 -143 118 -149 l 493 -143 l 506 -159 "},"ũ":{"x_min":26.203125,"x_max":661.078125,"ha":693,"o":"m 661 45 q 567 -9 606 9 q 503 -28 529 -28 q 478 -16 490 -28 q 456 22 465 -4 q 443 93 447 50 q 445 201 440 137 q 386 109 417 151 q 322 36 355 66 q 253 -11 288 5 q 181 -28 218 -28 q 150 -17 168 -28 q 118 14 133 -6 q 92 66 103 35 q 82 138 82 97 q 85 190 82 159 q 94 257 89 221 q 107 332 100 293 q 119 406 113 371 q 128 470 124 441 q 132 515 132 499 q 129 540 132 531 q 124 553 127 549 q 115 559 120 558 q 104 561 110 561 q 86 558 98 561 q 63 552 75 556 q 34 544 49 549 l 26 569 q 83 594 54 582 q 136 615 112 606 q 179 629 161 624 q 206 635 198 635 q 233 622 226 635 q 240 577 240 609 q 235 526 240 558 q 225 456 231 494 q 213 377 219 418 q 200 299 206 337 q 190 229 194 261 q 186 177 186 197 q 199 83 186 112 q 238 54 213 54 q 274 67 252 54 q 325 109 297 80 q 387 187 354 139 q 457 303 421 234 q 467 361 462 332 q 477 418 472 391 q 484 471 481 446 q 488 515 488 495 q 486 540 488 531 q 481 553 484 549 q 473 559 477 558 q 462 561 469 561 q 446 558 456 561 q 424 552 435 556 q 399 544 412 549 l 388 569 q 445 594 417 582 q 496 615 473 606 q 537 629 519 624 q 563 635 555 635 q 588 622 582 635 q 595 577 595 609 q 590 526 595 558 q 580 457 586 495 q 567 378 574 419 q 553 299 559 337 q 543 227 547 260 q 539 171 539 194 q 547 80 539 110 q 573 51 556 51 q 609 55 591 51 q 651 69 627 59 l 661 45 m 632 899 q 599 845 617 872 q 560 796 581 818 q 515 762 539 775 q 465 749 491 749 q 426 760 443 749 q 393 786 408 772 q 361 811 377 799 q 327 823 345 823 q 279 801 303 823 q 226 742 255 780 l 197 756 q 229 810 211 783 q 268 858 247 836 q 314 892 290 879 q 364 906 339 906 q 405 894 387 906 q 440 869 424 882 q 471 843 457 855 q 499 832 485 832 q 549 853 523 832 q 601 913 575 874 l 632 899 "},"ŭ":{"x_min":26.203125,"x_max":661.078125,"ha":693,"o":"m 661 45 q 567 -9 606 9 q 503 -28 529 -28 q 478 -16 490 -28 q 456 22 465 -4 q 443 93 447 50 q 445 201 440 137 q 386 109 417 151 q 322 36 355 66 q 253 -11 288 5 q 181 -28 218 -28 q 150 -17 168 -28 q 118 14 133 -6 q 92 66 103 35 q 82 138 82 97 q 85 190 82 159 q 94 257 89 221 q 107 332 100 293 q 119 406 113 371 q 128 470 124 441 q 132 515 132 499 q 129 540 132 531 q 124 553 127 549 q 115 559 120 558 q 104 561 110 561 q 86 558 98 561 q 63 552 75 556 q 34 544 49 549 l 26 569 q 83 594 54 582 q 136 615 112 606 q 179 629 161 624 q 206 635 198 635 q 233 622 226 635 q 240 577 240 609 q 235 526 240 558 q 225 456 231 494 q 213 377 219 418 q 200 299 206 337 q 190 229 194 261 q 186 177 186 197 q 199 83 186 112 q 238 54 213 54 q 274 67 252 54 q 325 109 297 80 q 387 187 354 139 q 457 303 421 234 q 467 361 462 332 q 477 418 472 391 q 484 471 481 446 q 488 515 488 495 q 486 540 488 531 q 481 553 484 549 q 473 559 477 558 q 462 561 469 561 q 446 558 456 561 q 424 552 435 556 q 399 544 412 549 l 388 569 q 445 594 417 582 q 496 615 473 606 q 537 629 519 624 q 563 635 555 635 q 588 622 582 635 q 595 577 595 609 q 590 526 595 558 q 580 457 586 495 q 567 378 574 419 q 553 299 559 337 q 543 227 547 260 q 539 171 539 194 q 547 80 539 110 q 573 51 556 51 q 609 55 591 51 q 651 69 627 59 l 661 45 m 620 905 q 568 813 595 850 q 512 754 540 776 q 455 721 483 731 q 399 712 426 712 q 343 721 369 712 q 295 754 317 731 q 257 814 274 777 q 228 905 240 851 q 246 923 238 917 q 265 935 255 929 q 291 871 275 897 q 326 829 307 845 q 366 806 345 813 q 407 799 387 799 q 453 806 428 799 q 501 829 477 813 q 548 871 525 845 q 591 935 571 897 q 607 924 600 929 q 620 905 613 918 "},"{":{"x_min":69.171875,"x_max":502.5625,"ha":435,"o":"m 502 1052 q 451 1014 475 1035 q 407 968 427 993 q 375 913 388 942 q 356 848 362 883 q 352 783 351 808 q 355 736 353 758 q 357 689 356 714 q 351 624 357 664 q 335 569 347 596 q 306 518 324 542 q 264 474 288 494 q 212 442 240 454 q 262 421 242 436 q 292 382 282 405 q 303 328 302 359 q 299 260 305 298 q 286 191 294 220 q 269 137 278 163 q 253 87 261 112 q 241 28 246 62 q 237 -37 236 -8 q 247 -89 238 -66 q 274 -132 256 -112 q 323 -172 293 -152 l 304 -214 q 220 -165 255 -190 q 165 -108 185 -140 q 139 -39 145 -77 q 140 48 133 0 q 153 114 145 88 q 169 164 161 140 q 185 216 177 188 q 200 285 193 243 q 185 368 207 340 q 116 397 163 397 l 104 397 q 96 396 100 397 q 88 395 93 396 q 75 392 84 394 l 69 428 q 190 491 147 449 q 241 584 233 533 q 246 630 245 611 q 246 666 246 650 q 244 696 246 682 q 242 725 242 710 q 242 761 242 741 q 247 809 243 781 q 324 969 261 901 q 490 1084 388 1037 l 502 1052 "},"¼":{"x_min":90.203125,"x_max":739.265625,"ha":753,"o":"m 597 332 l 450 153 l 573 153 l 597 332 m 675 142 q 659 124 666 132 q 643 111 652 116 l 625 111 l 615 39 q 616 34 615 36 q 621 30 617 32 q 633 25 625 27 q 655 19 641 22 l 653 0 l 485 0 l 487 19 q 523 26 510 23 q 545 31 537 29 q 555 37 552 34 q 558 42 558 39 l 567 111 l 398 111 l 387 121 l 594 381 q 625 393 609 387 q 653 405 641 399 l 663 393 l 630 153 l 667 153 l 675 142 m 90 432 l 93 455 q 138 461 120 458 q 166 469 155 465 q 180 477 176 473 q 184 484 184 481 l 218 732 q 220 753 220 746 q 216 764 220 760 q 210 768 215 766 q 195 769 205 769 q 170 766 185 768 q 132 760 155 764 l 127 782 q 163 793 142 786 q 207 807 185 800 q 249 823 229 815 q 281 838 269 831 l 292 826 l 245 484 q 247 477 245 481 q 258 469 250 473 q 281 461 266 465 q 322 455 297 458 l 319 432 l 90 432 m 165 2 q 136 -10 149 -5 q 105 -20 123 -15 l 93 0 l 669 816 q 697 828 681 821 q 726 838 712 834 l 739 819 l 165 2 "},"Ḿ":{"x_min":2.71875,"x_max":1041.75,"ha":1025,"o":"m 1039 825 q 996 819 1020 825 q 948 801 973 812 l 866 70 q 887 50 865 62 q 954 29 910 38 l 950 0 l 672 0 l 676 29 q 746 49 718 38 q 775 70 773 61 l 848 718 l 482 0 l 454 0 l 265 710 l 173 70 q 192 50 172 62 q 257 29 212 38 l 252 0 l 2 0 l 6 29 q 75 49 50 38 q 101 70 100 61 l 207 800 q 163 820 186 814 q 123 825 141 825 l 127 855 l 307 855 q 316 852 312 855 q 323 844 320 850 q 329 827 326 838 q 337 798 333 816 l 506 190 l 817 798 q 833 827 827 816 q 845 844 840 838 q 854 852 850 850 q 865 855 859 855 l 1041 855 l 1039 825 m 827 1078 l 518 913 q 505 925 509 919 q 496 944 502 931 l 761 1158 l 777 1147 q 795 1135 786 1141 q 814 1121 805 1128 q 827 1109 823 1114 l 827 1078 "},"Ĳ":{"x_min":13.5625,"x_max":815.234375,"ha":781,"o":"m 405 825 q 337 804 362 816 q 309 783 311 793 l 210 70 q 230 50 209 62 q 295 29 251 38 l 291 0 l 13 0 l 18 29 q 86 49 61 38 q 113 70 111 61 l 210 783 q 191 804 212 791 q 127 825 170 816 l 132 855 l 409 855 l 405 825 m 811 825 q 742 804 768 816 q 714 783 716 793 l 626 139 q 597 4 615 58 q 557 -86 579 -49 q 510 -148 535 -123 q 456 -195 484 -173 q 416 -221 438 -209 q 374 -241 395 -232 q 334 -253 352 -249 q 303 -258 316 -258 q 267 -251 284 -258 q 238 -236 250 -245 q 217 -219 225 -228 q 209 -204 209 -210 q 219 -185 209 -197 q 242 -163 229 -174 q 269 -144 255 -152 q 291 -136 283 -136 q 305 -142 298 -136 q 322 -155 312 -148 q 346 -168 332 -162 q 381 -175 360 -175 q 417 -163 398 -175 q 457 -122 437 -151 q 494 -40 476 -92 q 522 90 511 10 l 617 783 q 614 792 618 787 q 597 802 609 797 q 561 813 584 808 q 502 825 539 819 l 505 855 l 815 855 l 811 825 "},"Ê":{"x_min":0,"x_max":634.8125,"ha":642,"o":"m 580 166 q 553 63 567 107 q 531 0 539 19 l 0 0 l 4 29 q 72 49 46 38 q 99 70 98 61 l 198 783 q 179 804 200 791 q 113 825 158 816 l 118 855 l 617 855 l 634 837 q 626 799 631 820 q 614 757 621 778 q 601 717 608 736 q 588 685 594 698 l 559 685 q 562 737 562 716 q 556 770 561 757 q 543 787 552 782 q 523 793 535 793 l 296 793 l 256 498 l 510 498 l 523 479 q 508 459 516 469 q 490 439 499 449 q 472 421 481 429 q 457 406 463 412 q 434 425 446 418 q 403 436 421 432 q 359 442 385 440 q 295 444 333 444 l 248 444 l 202 105 q 204 87 201 95 q 221 73 208 79 q 258 65 233 68 q 323 62 282 62 l 405 62 q 453 65 434 62 q 489 80 473 68 q 520 115 505 92 q 554 178 535 138 l 580 166 m 596 943 q 581 923 586 930 q 565 913 576 917 l 419 1052 l 239 913 q 228 923 233 917 q 217 943 223 930 l 403 1148 l 465 1148 l 596 943 "},")":{"x_min":-55.609375,"x_max":350.421875,"ha":410,"o":"m 339 425 q 288 212 323 313 q 205 27 254 110 q 93 -118 155 -56 q -38 -214 31 -180 l -55 -183 q 35 -95 -9 -150 q 118 34 80 -40 q 185 202 156 109 q 230 405 215 296 q 243 601 244 503 q 227 785 242 699 q 185 942 212 872 q 119 1057 158 1013 l 144 1088 q 251 986 208 1054 q 320 830 295 919 q 349 637 344 741 q 339 425 354 533 "},"Ṽ":{"x_min":94.265625,"x_max":885.078125,"ha":823,"o":"m 880 825 q 812 808 837 817 q 777 781 786 800 l 438 40 q 418 14 432 25 q 389 -3 404 3 q 359 -14 373 -10 q 336 -21 344 -18 l 173 781 q 152 809 170 798 q 94 825 134 820 l 98 855 l 368 855 l 364 825 q 295 812 315 822 q 279 781 274 802 l 408 132 l 706 781 q 694 809 716 800 q 623 825 672 819 l 628 855 l 885 855 l 880 825 m 731 1094 q 699 1039 717 1066 q 660 990 681 1012 q 615 956 639 969 q 564 943 591 943 q 525 954 543 943 q 492 980 508 966 q 460 1005 476 993 q 427 1017 444 1017 q 379 995 403 1017 q 326 937 354 974 l 297 951 q 329 1005 311 978 q 368 1053 347 1031 q 414 1087 389 1074 q 464 1101 438 1101 q 505 1089 486 1101 q 540 1064 524 1077 q 571 1038 556 1050 q 599 1027 585 1027 q 649 1048 623 1027 q 701 1108 675 1069 l 731 1094 "},"a":{"x_min":36,"x_max":610.359375,"ha":625,"o":"m 408 292 q 418 355 412 322 q 430 419 424 388 q 440 475 435 449 q 447 515 444 500 q 425 532 437 523 q 398 548 412 540 q 369 559 385 555 q 338 564 354 564 q 279 548 307 564 q 228 508 252 533 q 186 450 205 483 q 155 384 168 418 q 135 316 142 350 q 128 257 128 283 q 135 177 128 213 q 155 117 142 142 q 186 78 168 92 q 224 65 203 65 q 263 85 240 65 q 312 139 287 106 q 363 212 338 172 q 408 292 388 253 m 610 45 q 515 -10 551 7 q 459 -28 478 -28 q 435 -19 447 -28 q 415 12 424 -11 q 402 77 407 35 q 397 184 397 118 q 353 116 379 153 q 299 46 328 79 q 239 -6 270 14 q 180 -28 208 -28 q 132 -15 157 -28 q 85 25 107 -2 q 50 98 64 54 q 36 206 36 143 q 48 311 36 260 q 86 409 61 362 q 147 497 111 456 q 231 571 183 538 q 271 594 249 583 q 317 615 293 606 q 363 629 340 624 q 407 635 386 635 q 435 631 421 635 q 461 621 449 627 q 486 608 474 615 q 507 594 497 601 q 541 615 523 605 q 577 635 558 626 l 590 611 q 571 594 579 601 q 558 576 564 586 q 548 552 552 567 q 539 515 544 538 q 520 415 529 466 q 504 318 511 364 q 494 238 498 273 q 491 189 491 204 q 493 124 491 150 q 499 81 495 97 q 509 58 503 65 q 524 51 516 51 q 556 55 537 51 q 602 70 575 58 l 610 45 "},"Ɲ":{"x_min":-207.59375,"x_max":877.625,"ha":811,"o":"m 873 825 q 806 807 828 819 q 781 783 783 795 l 670 -21 q 644 -16 656 -19 q 623 -8 633 -13 q 606 6 614 -2 q 590 30 598 15 l 252 681 l 183 167 q 166 60 174 107 q 146 -21 157 14 q 124 -82 136 -56 q 99 -129 113 -108 q 70 -165 86 -149 q 37 -195 54 -181 q -2 -221 18 -209 q -44 -241 -23 -232 q -83 -253 -65 -249 q -113 -258 -101 -258 q -149 -251 -132 -258 q -180 -236 -166 -245 q -200 -219 -193 -228 q -207 -204 -208 -210 q -197 -188 -206 -198 q -175 -168 -188 -178 q -149 -148 -162 -158 q -127 -136 -136 -139 q -100 -156 -112 -148 q -78 -168 -88 -164 q -57 -173 -67 -172 q -35 -175 -47 -175 q -1 -162 -20 -175 q 37 -117 18 -150 q 74 -28 56 -85 q 104 118 92 28 l 195 783 q 157 811 177 803 q 107 825 136 820 l 111 855 l 231 855 q 255 854 246 855 q 270 848 263 853 q 282 832 276 843 q 298 802 288 821 l 626 175 l 710 783 q 706 793 710 787 q 692 805 702 799 q 666 816 682 810 q 626 825 650 821 l 630 855 l 877 855 l 873 825 "},"Z":{"x_min":21.03125,"x_max":694.5,"ha":693,"o":"m 164 68 l 493 68 q 518 74 506 68 q 543 97 531 80 q 570 142 556 114 q 601 215 583 171 l 634 205 q 626 155 630 183 q 616 100 621 128 q 607 45 611 72 q 598 0 602 19 l 33 0 l 21 30 l 556 792 l 270 792 q 247 784 260 792 q 219 760 233 777 q 190 718 204 744 q 164 653 176 691 l 128 661 l 177 872 q 207 862 193 865 q 234 857 221 858 q 262 855 248 855 q 294 855 276 855 l 682 855 l 694 823 l 164 68 "},"":{"x_min":36,"x_max":693.125,"ha":626,"o":"m 235 65 q 276 85 253 65 q 326 138 300 105 q 378 213 352 171 q 428 296 405 254 l 464 515 q 441 531 453 523 q 413 547 428 540 q 381 559 398 554 q 346 564 365 564 q 287 548 315 564 q 233 508 258 533 q 188 450 209 483 q 153 384 168 418 q 131 316 139 350 q 123 257 123 283 q 133 177 123 213 q 159 117 143 142 q 195 78 175 92 q 235 65 215 65 m 605 611 q 586 594 594 601 q 573 577 578 586 q 563 552 567 567 q 555 515 559 538 q 544 450 552 496 q 528 344 537 405 q 510 215 519 284 q 492 82 500 146 q 480 -37 485 17 q 475 -126 475 -93 q 477 -179 475 -154 q 484 -222 479 -204 q 501 -251 490 -240 q 529 -262 511 -262 q 553 -256 541 -262 q 571 -241 564 -250 q 583 -219 579 -232 q 588 -194 588 -207 q 584 -173 588 -181 q 576 -154 581 -165 q 595 -142 583 -149 q 623 -128 608 -135 q 653 -115 638 -121 q 680 -106 668 -109 l 693 -130 q 677 -192 693 -162 q 628 -256 661 -222 q 598 -282 616 -268 q 557 -309 579 -296 q 509 -330 534 -321 q 458 -339 484 -339 q 416 -322 432 -339 q 391 -279 400 -305 q 380 -219 383 -252 q 377 -152 377 -185 q 385 5 377 -78 q 408 176 394 89 q 357 99 384 136 q 301 34 329 62 q 243 -11 272 5 q 187 -28 214 -28 q 138 -15 164 -28 q 89 25 111 -2 q 51 98 66 54 q 36 206 36 143 q 49 312 36 260 q 90 411 63 364 q 154 499 116 458 q 239 571 191 540 q 280 594 258 583 q 324 615 301 606 q 369 629 347 624 q 414 635 392 635 q 443 630 429 635 q 471 620 458 626 q 498 607 485 614 q 522 592 510 599 q 555 615 538 604 q 590 635 571 626 l 605 611 "},"k":{"x_min":58.75,"x_max":610.171875,"ha":610,"o":"m 299 961 q 294 894 299 934 q 284 805 290 855 q 269 699 277 756 q 250 583 260 642 q 231 462 241 523 q 212 343 221 401 l 358 454 q 435 514 405 489 q 473 555 465 539 q 466 576 481 570 q 404 582 450 583 l 401 608 q 478 622 441 613 q 558 631 515 631 q 600 621 591 631 q 610 588 610 612 q 595 560 610 578 q 552 517 581 542 q 484 463 524 492 q 393 403 444 434 l 314 355 q 350 302 332 333 q 386 238 368 271 q 421 171 404 204 q 454 111 438 138 q 486 68 471 85 q 514 51 500 51 q 548 53 530 51 q 591 69 566 55 l 603 46 q 525 -8 558 8 q 465 -26 491 -26 q 418 -2 441 -26 q 373 55 395 20 q 330 135 351 91 q 289 219 309 178 q 250 292 269 259 q 212 339 231 325 q 196 229 203 282 q 185 135 189 177 q 180 62 180 92 q 183 18 179 32 q 160 7 174 13 q 131 -5 146 1 q 104 -17 117 -11 q 82 -28 90 -23 l 58 -6 q 68 57 61 12 q 84 161 75 101 q 106 293 94 221 q 129 440 118 365 q 152 588 141 514 q 172 724 163 661 q 185 836 180 787 q 191 910 191 885 q 188 937 191 927 q 182 951 186 946 q 172 957 178 956 q 158 958 166 958 q 140 955 153 958 q 116 948 128 952 q 85 940 102 944 l 75 966 q 133 990 104 979 q 187 1011 162 1002 q 231 1025 212 1020 q 258 1031 250 1031 q 275 1028 268 1031 q 288 1019 283 1026 q 296 998 293 1012 q 299 961 299 984 "},"Ù":{"x_min":113.921875,"x_max":872.234375,"ha":832,"o":"m 868 825 q 801 804 825 816 q 776 783 777 793 l 715 347 q 674 189 703 258 q 601 73 645 120 q 501 3 558 27 q 377 -21 444 -21 q 275 -4 322 -21 q 195 45 229 12 q 144 125 162 78 q 126 236 126 173 q 132 314 126 272 l 198 783 q 178 804 199 791 q 113 825 157 816 l 118 855 l 396 855 l 392 825 q 323 804 349 816 q 295 783 297 793 l 236 345 q 232 306 233 326 q 232 269 232 286 q 243 182 232 221 q 277 116 255 144 q 334 73 300 88 q 412 58 368 58 q 493 79 456 58 q 559 137 531 101 q 606 220 588 173 q 632 318 625 267 l 694 783 q 676 804 695 791 q 613 825 657 816 l 617 855 l 872 855 l 868 825 m 615 944 q 600 925 606 931 q 583 913 594 919 l 311 1078 l 320 1109 q 337 1121 326 1114 q 360 1135 347 1128 q 383 1147 372 1141 q 403 1158 395 1153 l 615 944 "},"Ů":{"x_min":113.921875,"x_max":872.234375,"ha":832,"o":"m 868 825 q 801 804 825 816 q 776 783 777 793 l 715 347 q 674 189 703 258 q 601 73 645 120 q 501 3 558 27 q 377 -21 444 -21 q 275 -4 322 -21 q 195 45 229 12 q 144 125 162 78 q 126 236 126 173 q 132 314 126 272 l 198 783 q 178 804 199 791 q 113 825 157 816 l 118 855 l 396 855 l 392 825 q 323 804 349 816 q 295 783 297 793 l 236 345 q 232 306 233 326 q 232 269 232 286 q 243 182 232 221 q 277 116 255 144 q 334 73 300 88 q 412 58 368 58 q 493 79 456 58 q 559 137 531 101 q 606 220 588 173 q 632 318 625 267 l 694 783 q 676 804 695 791 q 613 825 657 816 l 617 855 l 872 855 l 868 825 m 592 1060 q 582 1102 592 1083 q 551 1121 572 1121 q 517 1112 532 1121 q 493 1089 503 1103 q 479 1058 484 1075 q 474 1025 474 1041 q 485 981 474 1000 q 517 963 496 963 q 550 972 536 963 q 573 995 564 981 q 587 1026 583 1009 q 592 1060 592 1043 m 649 1085 q 637 1027 649 1057 q 605 971 625 997 q 556 929 584 946 q 498 913 529 913 q 465 919 480 913 q 439 938 450 926 q 423 964 429 949 q 417 996 417 979 q 429 1058 417 1027 q 461 1114 441 1089 q 510 1156 482 1140 q 570 1173 538 1173 q 627 1148 606 1173 q 649 1085 649 1123 "},"¢":{"x_min":72,"x_max":587.453125,"ha":558,"o":"m 170 345 q 177 281 170 311 q 198 228 184 251 q 229 187 211 204 q 269 162 247 171 l 334 641 q 264 600 295 631 q 212 526 233 568 q 180 436 191 484 q 170 345 170 388 m 398 711 q 417 714 408 713 q 436 715 427 715 q 489 704 466 715 q 531 678 512 692 q 563 651 549 664 q 587 634 577 637 q 559 611 573 624 q 532 588 545 599 q 509 570 520 577 q 490 563 498 563 q 476 573 483 563 q 458 598 469 584 q 430 625 447 612 q 389 642 413 637 l 322 152 q 351 158 334 153 q 389 174 367 162 q 438 204 411 185 q 501 253 466 223 q 512 237 506 244 q 522 223 518 229 q 454 165 485 189 q 399 124 424 141 q 352 98 373 107 q 312 82 331 88 l 299 -11 q 289 -20 293 -17 q 280 -25 284 -23 q 271 -28 276 -27 q 258 -33 266 -30 l 245 -18 l 258 75 l 250 75 q 215 80 234 75 q 176 96 196 84 q 138 125 156 107 q 104 171 119 144 q 80 235 89 198 q 72 319 72 271 q 81 411 72 364 q 112 501 91 457 q 168 586 133 545 q 253 659 202 626 q 295 682 272 671 q 343 699 318 692 l 358 803 q 371 813 367 810 q 378 817 375 816 q 385 820 381 819 q 398 825 389 822 l 412 809 l 398 711 "},"Ɂ":{"x_min":88.84375,"x_max":615.203125,"ha":612,"o":"m 118 0 l 122 29 q 201 49 176 39 q 228 70 227 59 l 255 268 q 282 354 262 317 q 329 421 302 391 q 386 475 356 451 q 442 525 416 500 q 487 576 468 550 q 510 637 505 603 q 482 765 522 721 q 360 810 442 810 q 301 796 328 810 q 251 762 273 783 q 216 715 230 741 q 199 662 202 688 q 197 634 197 646 q 202 609 198 621 q 155 592 181 597 q 103 583 130 586 l 88 603 l 88 619 q 90 639 88 629 q 125 730 96 687 q 199 805 154 773 q 300 856 244 837 q 416 875 356 875 q 510 860 470 875 q 574 819 550 845 q 609 753 599 792 q 612 668 619 715 q 585 582 605 617 q 539 520 565 547 q 483 472 512 494 q 428 428 454 451 q 383 376 402 404 q 358 308 364 348 l 326 70 q 348 49 324 60 q 421 29 372 38 l 417 0 l 118 0 "},"ē":{"x_min":43,"x_max":581.234375,"ha":546,"o":"m 265 530 q 222 481 243 510 q 183 418 201 452 q 155 347 166 384 q 141 274 143 310 q 280 337 229 308 q 358 390 332 365 q 392 438 385 415 q 400 485 400 461 q 394 521 400 506 q 380 546 389 536 q 360 559 371 555 q 337 564 349 564 q 306 556 327 564 q 265 530 285 548 m 509 515 q 504 475 509 496 q 486 431 500 454 q 447 385 472 409 q 382 334 423 360 q 282 280 341 308 q 142 221 223 252 q 157 152 146 183 q 185 98 169 120 q 220 63 201 76 q 257 51 238 51 q 291 54 271 51 q 339 67 312 57 q 399 97 365 77 q 473 149 432 116 q 486 136 481 145 q 494 121 492 126 q 396 43 439 73 q 320 -1 353 14 q 259 -22 286 -17 q 208 -28 232 -28 q 157 -15 186 -28 q 103 24 128 -2 q 60 96 78 52 q 43 205 43 140 q 55 309 43 258 q 92 408 68 360 q 152 497 116 455 q 232 573 187 539 q 267 597 247 586 q 308 617 287 608 q 351 630 329 625 q 395 635 373 635 q 445 624 424 635 q 481 596 466 613 q 502 558 495 580 q 509 515 509 537 m 581 853 q 574 836 579 845 q 565 817 570 826 q 555 799 560 807 q 547 785 550 790 l 174 785 l 164 801 q 170 817 166 807 q 179 835 174 826 q 188 854 183 845 q 197 870 193 863 l 568 870 l 581 853 "},"Ẹ":{"x_min":0,"x_max":634.8125,"ha":642,"o":"m 580 166 q 553 63 567 107 q 531 0 539 19 l 0 0 l 4 29 q 72 49 46 38 q 99 70 98 61 l 198 783 q 179 804 200 791 q 113 825 158 816 l 118 855 l 617 855 l 634 837 q 626 799 631 820 q 614 757 621 778 q 601 717 608 736 q 588 685 594 698 l 559 685 q 562 737 562 716 q 556 770 561 757 q 543 787 552 782 q 523 793 535 793 l 296 793 l 256 498 l 510 498 l 523 479 q 508 459 516 469 q 490 439 499 449 q 472 421 481 429 q 457 406 463 412 q 434 425 446 418 q 403 436 421 432 q 359 442 385 440 q 295 444 333 444 l 248 444 l 202 105 q 204 87 201 95 q 221 73 208 79 q 258 65 233 68 q 323 62 282 62 l 405 62 q 453 65 434 62 q 489 80 473 68 q 520 115 505 92 q 554 178 535 138 l 580 166 m 314 -173 q 308 -210 314 -192 q 292 -244 303 -229 q 265 -269 281 -260 q 230 -279 250 -279 q 198 -266 209 -279 q 186 -231 186 -254 q 192 -194 186 -213 q 209 -160 198 -175 q 236 -134 220 -144 q 270 -125 251 -125 q 303 -137 291 -125 q 314 -173 314 -150 "},"≠":{"x_min":33.90625,"x_max":545.96875,"ha":570,"o":"m 518 302 q 513 287 516 295 l 506 270 q 499 254 503 262 q 492 241 495 246 l 238 241 l 144 106 q 127 97 138 102 q 103 87 116 92 q 79 79 90 83 q 59 73 67 75 l 48 96 l 149 241 l 46 241 l 33 257 q 46 288 39 270 q 61 319 54 305 l 204 319 l 292 444 l 73 444 l 61 460 q 73 491 66 473 q 88 522 81 508 l 346 522 l 438 653 q 479 672 456 664 q 522 686 503 680 l 537 663 l 437 522 l 533 522 l 545 505 q 540 490 543 498 l 533 473 q 526 457 530 465 q 519 444 522 449 l 382 444 l 293 319 l 506 319 l 518 302 "},"¥":{"x_min":14.921875,"x_max":662.625,"ha":558,"o":"m 659 799 q 600 782 621 791 q 570 756 579 773 l 340 354 l 339 346 l 482 346 l 493 330 l 474 286 l 332 286 l 306 75 q 323 53 305 67 q 389 28 341 40 l 385 0 l 123 0 l 127 28 q 199 53 178 40 q 221 75 219 65 l 246 286 l 102 286 l 92 302 l 109 346 l 254 346 l 256 361 q 228 465 245 409 q 190 575 210 521 q 149 677 170 628 q 107 758 127 725 q 95 774 101 768 q 79 783 88 780 q 54 786 69 786 q 20 783 40 785 l 14 811 q 49 820 30 815 q 87 829 68 825 q 123 835 106 833 q 151 838 139 838 q 181 812 166 838 q 208 761 193 791 q 236 697 222 731 q 264 629 250 664 q 289 560 278 593 q 308 496 300 526 q 322 445 317 467 l 503 756 q 501 783 514 773 q 447 799 487 793 l 451 827 l 662 827 l 659 799 "},"Ƚ":{"x_min":0,"x_max":575.140625,"ha":623,"o":"m 575 166 q 547 63 561 107 q 524 0 533 19 l 0 0 l 4 29 q 72 49 46 38 q 99 70 98 61 l 140 364 l 38 364 l 28 381 q 36 403 31 391 q 47 426 42 414 l 148 426 l 198 783 q 179 804 200 791 q 113 825 158 816 l 118 855 l 396 855 l 392 825 q 323 804 349 816 q 295 783 297 793 l 246 426 l 404 426 l 417 410 l 395 364 l 238 364 l 202 105 q 205 84 201 93 q 222 71 209 76 q 256 64 234 66 q 312 62 278 62 l 398 62 q 447 65 427 62 q 483 80 467 68 q 514 115 499 92 q 548 178 529 138 l 575 166 "},"Ĥ":{"x_min":0,"x_max":872.1875,"ha":838,"o":"m 392 825 q 323 804 349 816 q 295 783 297 793 l 254 478 l 631 478 l 673 783 q 653 804 674 791 q 590 825 632 816 l 592 855 l 872 855 l 868 825 q 799 804 825 816 q 772 783 773 793 l 673 70 q 693 50 672 62 q 758 29 714 38 l 754 0 l 476 0 l 480 29 q 548 49 523 38 q 575 70 573 60 l 622 416 l 245 416 l 198 70 q 218 50 196 62 q 282 29 239 38 l 278 0 l 0 0 l 4 29 q 72 49 46 38 q 99 70 98 61 l 198 783 q 179 804 200 791 q 113 825 158 816 l 118 855 l 396 855 l 392 825 m 695 943 q 680 923 685 930 q 664 913 675 917 l 518 1052 l 338 913 q 327 923 332 917 q 316 943 322 930 l 502 1148 l 564 1148 l 695 943 "},"U":{"x_min":113.921875,"x_max":872.234375,"ha":832,"o":"m 868 825 q 801 804 825 816 q 776 783 777 793 l 715 347 q 674 189 703 258 q 601 73 645 120 q 501 3 558 27 q 377 -21 444 -21 q 275 -4 322 -21 q 195 45 229 12 q 144 125 162 78 q 126 236 126 173 q 132 314 126 272 l 198 783 q 178 804 199 791 q 113 825 157 816 l 118 855 l 396 855 l 392 825 q 323 804 349 816 q 295 783 297 793 l 236 345 q 232 306 233 326 q 232 269 232 286 q 243 182 232 221 q 277 116 255 144 q 334 73 300 88 q 412 58 368 58 q 493 79 456 58 q 559 137 531 101 q 606 220 588 173 q 632 318 625 267 l 694 783 q 676 804 695 791 q 613 825 657 816 l 617 855 l 872 855 l 868 825 "},"Ñ":{"x_min":0,"x_max":877.625,"ha":840,"o":"m 873 825 q 806 807 828 819 q 781 783 783 795 l 670 -21 q 644 -16 656 -18 q 623 -8 633 -13 q 606 6 614 -2 q 590 30 598 15 l 252 681 l 169 70 q 186 49 167 62 q 251 29 205 36 l 247 0 l 0 0 l 4 29 q 72 48 50 35 q 96 70 95 61 l 196 783 q 157 811 178 803 q 107 825 136 820 l 111 855 l 231 855 q 255 854 246 855 q 270 848 263 853 q 282 832 276 843 q 298 802 288 821 l 626 175 l 710 783 q 706 793 710 787 q 692 805 702 799 q 666 816 682 810 q 626 825 650 821 l 630 855 l 877 855 l 873 825 m 734 1094 q 702 1039 720 1066 q 663 990 684 1012 q 618 956 642 969 q 567 943 594 943 q 528 954 545 943 q 495 980 511 966 q 463 1005 479 993 q 430 1017 447 1017 q 381 995 406 1017 q 328 937 357 974 l 299 951 q 331 1005 314 978 q 371 1053 349 1031 q 417 1087 392 1074 q 467 1101 441 1101 q 508 1089 489 1101 q 543 1064 526 1077 q 573 1038 559 1050 q 602 1027 588 1027 q 652 1048 626 1027 q 704 1108 678 1069 l 734 1094 "},"F":{"x_min":0,"x_max":640.25,"ha":604,"o":"m 640 837 q 631 799 636 820 q 620 757 626 778 q 607 717 613 736 q 594 685 600 698 l 567 685 q 568 737 569 716 q 562 770 567 757 q 549 787 557 782 q 529 793 541 793 l 296 793 l 255 498 l 474 498 l 490 479 q 474 459 482 469 q 457 439 465 449 q 439 421 448 429 q 423 406 430 412 q 370 436 400 429 q 295 444 340 444 l 248 444 l 197 70 q 219 52 196 62 q 301 29 242 42 l 297 0 l 0 0 l 4 29 q 72 49 46 38 q 99 70 98 61 l 198 783 q 179 804 200 791 q 113 825 158 816 l 118 855 l 623 855 l 640 837 "},"ả":{"x_min":36,"x_max":610.359375,"ha":625,"o":"m 408 292 q 418 355 412 322 q 430 419 424 388 q 440 475 435 449 q 447 515 444 500 q 425 532 437 523 q 398 548 412 540 q 369 559 385 555 q 338 564 354 564 q 279 548 307 564 q 228 508 252 533 q 186 450 205 483 q 155 384 168 418 q 135 316 142 350 q 128 257 128 283 q 135 177 128 213 q 155 117 142 142 q 186 78 168 92 q 224 65 203 65 q 263 85 240 65 q 312 139 287 106 q 363 212 338 172 q 408 292 388 253 m 610 45 q 515 -10 551 7 q 459 -28 478 -28 q 435 -19 447 -28 q 415 12 424 -11 q 402 77 407 35 q 397 184 397 118 q 353 116 379 153 q 299 46 328 79 q 239 -6 270 14 q 180 -28 208 -28 q 132 -15 157 -28 q 85 25 107 -2 q 50 98 64 54 q 36 206 36 143 q 48 311 36 260 q 86 409 61 362 q 147 497 111 456 q 231 571 183 538 q 271 594 249 583 q 317 615 293 606 q 363 629 340 624 q 407 635 386 635 q 435 631 421 635 q 461 621 449 627 q 486 608 474 615 q 507 594 497 601 q 541 615 523 605 q 577 635 558 626 l 590 611 q 571 594 579 601 q 558 576 564 586 q 548 552 552 567 q 539 515 544 538 q 520 415 529 466 q 504 318 511 364 q 494 238 498 273 q 491 189 491 204 q 493 124 491 150 q 499 81 495 97 q 509 58 503 65 q 524 51 516 51 q 556 55 537 51 q 602 70 575 58 l 610 45 m 504 904 q 486 855 504 876 q 447 818 468 834 q 407 787 425 801 q 390 755 390 772 q 396 738 390 748 q 419 718 403 728 q 399 710 409 712 q 380 708 390 709 q 343 736 354 723 q 332 760 332 749 q 340 780 332 771 q 361 798 349 790 q 389 816 374 807 q 416 837 404 826 q 437 863 429 849 q 446 895 446 876 q 437 927 446 914 q 408 940 428 940 q 384 935 396 940 q 366 922 373 930 q 355 905 358 914 q 355 886 352 895 q 342 882 350 884 q 326 877 335 879 q 309 873 317 874 q 294 870 300 871 l 289 878 q 302 915 288 898 q 338 945 317 933 q 383 965 359 958 q 426 972 407 972 q 484 952 465 972 q 504 904 504 932 "},"ʔ":{"x_min":56.296875,"x_max":561.8125,"ha":535,"o":"m 56 0 l 59 28 q 168 69 165 48 l 202 327 q 229 420 208 378 q 276 499 249 462 q 333 568 303 536 q 388 633 362 601 q 434 698 415 665 q 457 770 453 732 q 457 847 463 811 q 433 910 450 883 q 387 951 415 936 q 324 967 360 967 q 278 954 300 967 q 237 921 255 941 q 206 876 219 901 q 191 824 194 851 q 190 805 189 815 q 192 785 191 795 q 147 767 172 775 q 94 757 122 760 l 81 777 q 81 788 81 782 q 83 799 82 794 q 117 888 89 846 q 185 962 144 931 q 276 1012 225 993 q 379 1031 326 1031 q 465 1012 428 1031 q 524 962 501 993 q 556 888 548 930 q 558 800 565 847 q 532 712 552 750 q 486 640 512 673 q 431 577 460 607 q 375 516 401 548 q 329 448 349 484 q 304 366 310 412 l 265 69 q 288 48 263 59 q 361 28 313 37 l 358 0 l 56 0 "},"ờ":{"x_min":36,"x_max":694,"ha":643,"o":"m 452 342 q 414 501 452 446 q 306 556 376 556 q 225 527 258 556 q 171 456 192 499 q 142 364 151 414 q 134 270 134 314 q 145 185 134 225 q 176 114 156 144 q 222 66 196 84 q 280 49 249 49 q 336 62 311 49 q 380 100 360 76 q 412 153 399 123 q 435 216 426 184 q 447 281 443 249 q 452 342 452 314 m 694 703 q 681 647 694 673 q 646 596 668 620 q 594 552 624 572 q 529 514 564 531 q 550 378 550 456 q 539 287 550 333 q 509 196 529 240 q 461 113 490 153 q 394 42 432 73 q 357 15 377 28 q 317 -7 337 2 q 276 -22 297 -17 q 234 -28 255 -28 q 150 -7 187 -28 q 87 46 113 12 q 49 129 62 81 q 36 233 36 177 q 44 327 36 282 q 70 414 52 372 q 119 495 88 456 q 194 569 149 533 q 270 616 229 597 q 353 635 311 635 q 450 612 411 635 q 512 550 489 590 q 564 593 547 568 q 581 653 581 618 q 575 679 581 665 q 550 703 570 693 l 664 758 q 687 733 681 747 q 694 703 694 718 m 389 710 q 368 699 376 702 q 347 696 360 696 l 178 957 l 200 982 q 220 984 208 983 q 247 987 233 986 q 274 989 261 988 q 295 990 286 990 l 389 710 "},"̿":{"x_min":-559.53125,"x_max":139.71875,"ha":0,"o":"m 139 1020 q 133 1003 137 1012 q 123 984 128 993 q 113 966 118 974 q 105 952 109 957 l -524 952 l -535 968 q -528 984 -532 974 q -519 1002 -524 993 q -510 1021 -515 1012 q -501 1037 -505 1030 l 126 1037 l 139 1020 m 115 851 q 108 834 113 843 q 99 815 104 824 q 89 797 94 805 q 81 783 84 788 l -548 783 l -559 799 q -552 815 -556 805 q -544 833 -548 824 q -535 852 -539 843 q -526 868 -530 861 l 102 868 l 115 851 "},"å":{"x_min":36,"x_max":610.359375,"ha":625,"o":"m 408 292 q 418 355 412 322 q 430 419 424 388 q 440 475 435 449 q 447 515 444 500 q 425 532 437 523 q 398 548 412 540 q 369 559 385 555 q 338 564 354 564 q 279 548 307 564 q 228 508 252 533 q 186 450 205 483 q 155 384 168 418 q 135 316 142 350 q 128 257 128 283 q 135 177 128 213 q 155 117 142 142 q 186 78 168 92 q 224 65 203 65 q 263 85 240 65 q 312 139 287 106 q 363 212 338 172 q 408 292 388 253 m 610 45 q 515 -10 551 7 q 459 -28 478 -28 q 435 -19 447 -28 q 415 12 424 -11 q 402 77 407 35 q 397 184 397 118 q 353 116 379 153 q 299 46 328 79 q 239 -6 270 14 q 180 -28 208 -28 q 132 -15 157 -28 q 85 25 107 -2 q 50 98 64 54 q 36 206 36 143 q 48 311 36 260 q 86 409 61 362 q 147 497 111 456 q 231 571 183 538 q 271 594 249 583 q 317 615 293 606 q 363 629 340 624 q 407 635 386 635 q 435 631 421 635 q 461 621 449 627 q 486 608 474 615 q 507 594 497 601 q 541 615 523 605 q 577 635 558 626 l 590 611 q 571 594 579 601 q 558 576 564 586 q 548 552 552 567 q 539 515 544 538 q 520 415 529 466 q 504 318 511 364 q 494 238 498 273 q 491 189 491 204 q 493 124 491 150 q 499 81 495 97 q 509 58 503 65 q 524 51 516 51 q 556 55 537 51 q 602 70 575 58 l 610 45 m 452 842 q 441 885 452 866 q 410 904 431 904 q 377 895 391 904 q 353 872 363 886 q 338 841 343 858 q 334 808 334 824 q 345 764 334 783 q 377 746 356 746 q 409 755 395 746 q 433 778 423 764 q 447 809 442 792 q 452 842 452 826 m 509 868 q 497 810 509 840 q 464 754 485 780 q 416 712 443 729 q 357 696 389 696 q 325 702 340 696 q 299 721 310 709 q 282 747 288 732 q 277 779 277 762 q 288 841 277 810 q 321 897 300 872 q 370 939 342 923 q 429 956 397 956 q 487 931 465 956 q 509 868 509 906 "},"0":{"x_min":32,"x_max":544,"ha":558,"o":"m 440 533 q 430 631 440 588 q 405 702 421 673 q 368 745 389 730 q 323 760 347 760 q 256 734 285 760 q 206 668 227 709 q 171 576 185 627 q 149 474 158 525 q 138 376 141 423 q 135 298 135 330 q 166 118 135 178 q 252 58 198 58 q 321 84 292 58 q 371 152 350 110 q 405 247 391 194 q 426 352 418 299 q 436 453 433 405 q 440 533 440 500 m 544 531 q 539 444 544 491 q 525 349 535 398 q 498 252 515 300 q 455 160 481 203 q 407 89 432 122 q 353 31 382 56 q 289 -6 323 7 q 216 -21 255 -21 q 134 2 168 -21 q 77 66 99 25 q 43 164 54 107 q 32 286 32 220 q 36 371 32 325 q 50 463 40 416 q 76 559 60 510 q 116 652 92 607 q 163 724 137 690 q 218 783 188 758 q 282 823 248 808 q 357 838 317 838 q 440 814 405 838 q 498 751 475 791 q 532 654 521 710 q 544 531 544 597 "},"ɋ":{"x_min":36,"x_max":693.125,"ha":626,"o":"m 235 65 q 276 85 253 65 q 326 138 300 105 q 378 213 352 171 q 428 296 405 254 l 464 515 q 441 531 453 523 q 413 547 428 540 q 381 559 398 554 q 346 564 365 564 q 287 548 315 564 q 233 508 258 533 q 188 450 209 483 q 153 384 168 418 q 131 316 139 350 q 123 257 123 283 q 133 177 123 213 q 159 117 143 142 q 195 78 175 92 q 235 65 215 65 m 605 611 q 586 594 594 601 q 573 577 578 586 q 563 552 567 567 q 555 515 559 538 q 544 450 552 496 q 528 344 537 405 q 510 215 519 284 q 492 82 500 146 q 480 -37 485 17 q 475 -126 475 -93 q 477 -179 475 -154 q 484 -222 479 -204 q 501 -251 490 -240 q 529 -262 511 -262 q 553 -256 541 -262 q 571 -241 564 -250 q 583 -219 579 -232 q 588 -194 588 -207 q 584 -173 588 -181 q 576 -154 581 -165 q 595 -142 583 -149 q 623 -128 608 -135 q 653 -115 638 -121 q 680 -106 668 -109 l 693 -130 q 677 -192 693 -162 q 628 -256 661 -222 q 598 -282 616 -268 q 557 -309 579 -296 q 509 -330 534 -321 q 458 -339 484 -339 q 416 -322 432 -339 q 391 -279 400 -305 q 380 -219 383 -252 q 377 -152 377 -185 q 385 5 377 -78 q 408 176 394 89 q 357 99 384 136 q 301 34 329 62 q 243 -11 272 5 q 187 -28 214 -28 q 138 -15 164 -28 q 89 25 111 -2 q 51 98 66 54 q 36 206 36 143 q 49 312 36 260 q 90 411 63 364 q 154 499 116 458 q 239 571 191 540 q 280 594 258 583 q 324 615 301 606 q 369 629 347 624 q 414 635 392 635 q 443 630 429 635 q 471 620 458 626 q 498 607 485 614 q 522 592 510 599 q 555 615 538 604 q 590 635 571 626 l 605 611 "},"ō":{"x_min":36,"x_max":577.84375,"ha":586,"o":"m 452 342 q 414 501 452 446 q 306 556 376 556 q 225 527 258 556 q 171 456 192 499 q 142 364 151 414 q 134 270 134 314 q 145 185 134 225 q 176 114 156 144 q 222 66 196 84 q 280 49 249 49 q 336 62 311 49 q 380 100 360 76 q 412 153 399 123 q 435 216 426 184 q 447 281 443 249 q 452 342 452 314 m 550 379 q 539 287 550 333 q 509 196 529 240 q 461 113 490 153 q 394 42 432 73 q 357 15 377 28 q 317 -7 337 2 q 276 -22 297 -17 q 234 -28 255 -28 q 150 -7 187 -28 q 87 46 113 12 q 49 129 62 81 q 36 233 36 177 q 44 327 36 282 q 70 414 52 372 q 119 495 88 456 q 194 569 149 533 q 270 616 229 597 q 354 635 311 635 q 444 616 406 635 q 504 563 481 597 q 539 482 528 529 q 550 379 550 435 m 577 853 q 571 836 575 845 q 561 817 566 826 q 552 799 556 807 q 543 785 547 790 l 171 785 l 160 801 q 167 817 163 807 q 175 835 171 826 q 185 854 180 845 q 193 870 189 863 l 564 870 l 577 853 "},"”":{"x_min":123.296875,"x_max":574,"ha":566,"o":"m 308 897 q 292 826 308 862 q 254 758 277 791 q 202 698 231 725 q 147 650 173 670 l 123 673 q 149 703 135 685 q 175 741 163 721 q 195 782 187 761 q 204 820 204 803 q 186 863 204 847 q 133 877 168 879 l 127 908 q 153 927 134 916 q 194 948 172 938 q 237 964 216 957 q 268 970 258 970 q 297 939 287 957 q 308 897 308 922 m 574 897 q 558 826 574 862 q 520 758 543 791 q 468 698 497 725 q 414 650 440 670 l 390 673 q 416 703 402 685 q 442 741 430 721 q 462 782 454 761 q 470 820 470 803 q 452 863 470 847 q 400 877 434 879 l 395 908 q 421 927 402 916 q 462 948 440 938 q 505 964 484 957 q 536 970 526 970 q 564 939 554 957 q 574 897 574 922 "},"ḕ":{"x_min":43,"x_max":581.234375,"ha":546,"o":"m 265 530 q 222 481 243 510 q 183 418 201 452 q 155 347 166 384 q 141 274 143 310 q 280 337 229 308 q 358 390 332 365 q 392 438 385 415 q 400 485 400 461 q 394 521 400 506 q 380 546 389 536 q 360 559 371 555 q 337 564 349 564 q 306 556 327 564 q 265 530 285 548 m 509 515 q 504 475 509 496 q 486 431 500 454 q 447 385 472 409 q 382 334 423 360 q 282 280 341 308 q 142 221 223 252 q 157 152 146 183 q 185 98 169 120 q 220 63 201 76 q 257 51 238 51 q 291 54 271 51 q 339 67 312 57 q 399 97 365 77 q 473 149 432 116 q 486 136 481 145 q 494 121 492 126 q 396 43 439 73 q 320 -1 353 14 q 259 -22 286 -17 q 208 -28 232 -28 q 157 -15 186 -28 q 103 24 128 -2 q 60 96 78 52 q 43 205 43 140 q 55 309 43 258 q 92 408 68 360 q 152 497 116 455 q 232 573 187 539 q 267 597 247 586 q 308 617 287 608 q 351 630 329 625 q 395 635 373 635 q 445 624 424 635 q 481 596 466 613 q 502 558 495 580 q 509 515 509 537 m 581 853 q 574 836 579 845 q 565 817 570 826 q 555 799 560 807 q 547 785 550 790 l 174 785 l 164 801 q 170 817 166 807 q 179 835 174 826 q 188 854 183 845 q 197 870 193 863 l 568 870 l 581 853 m 428 961 q 406 950 415 953 q 386 946 398 947 l 217 1208 l 238 1232 q 259 1235 246 1234 q 285 1238 271 1237 q 312 1240 299 1239 q 334 1240 325 1240 l 428 961 "},"ö":{"x_min":36,"x_max":555.265625,"ha":586,"o":"m 452 342 q 414 501 452 446 q 306 556 376 556 q 225 527 258 556 q 171 456 192 499 q 142 364 151 414 q 134 270 134 314 q 145 185 134 225 q 176 114 156 144 q 222 66 196 84 q 280 49 249 49 q 336 62 311 49 q 380 100 360 76 q 412 153 399 123 q 435 216 426 184 q 447 281 443 249 q 452 342 452 314 m 550 379 q 539 287 550 333 q 509 196 529 240 q 461 113 490 153 q 394 42 432 73 q 357 15 377 28 q 317 -7 337 2 q 276 -22 297 -17 q 234 -28 255 -28 q 150 -7 187 -28 q 87 46 113 12 q 49 129 62 81 q 36 233 36 177 q 44 327 36 282 q 70 414 52 372 q 119 495 88 456 q 194 569 149 533 q 270 616 229 597 q 354 635 311 635 q 444 616 406 635 q 504 563 481 597 q 539 482 528 529 q 550 379 550 435 m 302 855 q 296 818 302 836 q 279 784 290 799 q 252 759 268 769 q 217 750 236 750 q 183 762 195 750 q 171 797 171 774 q 177 834 171 815 q 195 868 184 853 q 222 894 206 884 q 257 904 238 904 q 290 891 278 904 q 302 855 302 878 m 555 855 q 549 818 555 836 q 531 784 543 799 q 504 759 520 769 q 469 750 488 750 q 436 762 448 750 q 424 797 424 774 q 430 834 424 815 q 447 868 436 853 q 473 894 458 884 q 509 904 489 904 q 542 891 530 904 q 555 855 555 878 "},"ẉ":{"x_min":3.015625,"x_max":867,"ha":875,"o":"m 867 583 q 863 541 867 565 q 851 484 860 517 q 825 406 841 451 q 783 303 809 362 q 720 170 757 244 q 632 1 683 95 q 618 -5 626 -2 q 601 -13 610 -9 q 584 -21 593 -17 q 570 -28 576 -25 l 547 -6 q 537 75 542 31 q 524 165 531 119 q 511 256 518 211 q 498 341 504 301 q 484 414 491 381 q 472 467 478 446 q 463 424 471 453 q 441 357 455 395 q 409 273 428 318 q 370 182 391 229 q 326 90 349 135 q 281 6 304 45 q 266 -1 274 3 q 248 -10 258 -5 q 229 -20 239 -15 q 213 -28 220 -25 l 192 -6 q 182 77 187 31 q 172 173 177 124 q 161 271 167 222 q 150 365 156 321 q 139 446 145 409 q 127 505 133 482 q 117 534 123 523 q 105 551 112 545 q 92 559 99 557 q 79 561 85 561 q 62 558 73 561 q 40 552 51 556 q 12 544 27 549 l 3 569 q 57 594 31 582 q 104 615 83 606 q 141 629 125 624 q 165 635 156 635 q 194 612 184 635 q 215 542 203 590 q 224 488 219 523 q 235 412 230 454 q 247 324 241 370 q 257 237 252 278 q 265 162 262 196 q 269 112 268 129 q 325 228 296 165 q 377 354 353 291 q 417 478 401 418 q 436 586 433 538 q 458 603 446 594 q 482 619 470 612 q 504 630 494 626 q 522 635 515 635 q 529 623 525 635 q 538 594 533 612 q 547 552 542 576 q 557 503 553 528 l 567 452 q 575 407 572 427 q 586 336 580 375 q 599 257 593 298 q 611 176 605 216 q 620 100 617 135 q 703 265 671 193 q 754 389 736 336 q 778 479 772 442 q 785 542 785 516 q 775 564 785 556 q 747 573 765 573 q 724 570 738 573 q 696 562 711 567 l 683 587 q 728 610 707 601 q 765 624 749 619 q 793 632 782 630 q 810 635 805 635 q 831 633 821 635 q 849 626 841 631 q 862 610 857 620 q 867 583 867 600 m 453 -173 q 447 -210 453 -192 q 431 -244 442 -229 q 404 -269 420 -260 q 370 -279 389 -279 q 337 -266 348 -279 q 325 -231 325 -254 q 331 -194 325 -213 q 348 -160 338 -175 q 375 -134 359 -144 q 409 -125 390 -125 q 442 -137 430 -125 q 453 -173 453 -150 "},"Ȧ":{"x_min":-23.734375,"x_max":726.375,"ha":778,"o":"m 251 301 l 154 75 q 165 45 145 54 q 237 29 185 35 l 233 0 l -23 0 l -19 29 q 48 46 23 37 q 83 75 74 55 l 413 833 q 434 849 422 841 q 459 866 446 858 q 484 881 472 874 q 505 893 496 888 l 651 75 q 656 58 653 65 q 668 45 660 51 q 690 35 676 40 q 726 29 704 31 l 723 0 l 462 0 l 465 29 q 534 43 513 32 q 551 75 555 53 l 512 301 l 251 301 m 501 363 l 437 731 l 278 363 l 501 363 m 553 1050 q 547 1013 553 1031 q 531 979 541 994 q 504 954 520 964 q 469 945 488 945 q 437 957 448 945 q 425 992 425 969 q 431 1029 425 1010 q 448 1063 437 1048 q 474 1089 459 1079 q 509 1099 490 1099 q 541 1086 530 1099 q 553 1050 553 1073 "},"ć":{"x_min":37,"x_max":593.453125,"ha":539,"o":"m 551 552 q 521 531 537 542 q 490 510 505 519 q 462 495 475 501 q 440 489 449 489 q 421 500 432 489 q 396 526 411 512 q 363 552 381 540 q 323 564 345 564 q 266 549 292 564 q 219 508 240 534 q 182 450 198 483 q 156 382 166 417 q 140 310 145 346 q 135 242 135 274 q 144 163 135 198 q 172 102 154 127 q 214 64 189 78 q 267 51 238 51 q 299 55 280 51 q 342 70 318 59 q 398 100 367 81 q 465 149 428 119 q 476 134 470 141 q 486 121 482 126 q 391 43 433 73 q 315 -1 349 14 q 253 -22 280 -17 q 201 -28 225 -28 q 149 -16 178 -28 q 96 23 121 -4 q 54 99 71 52 q 37 218 37 147 q 46 312 37 263 q 76 407 55 360 q 132 495 98 453 q 216 571 166 537 q 258 594 235 583 q 306 615 281 606 q 355 629 331 624 q 400 635 379 635 q 453 623 430 635 q 495 597 476 611 q 527 569 513 582 q 551 552 541 556 m 593 932 l 352 696 q 336 703 341 698 q 322 719 331 708 l 506 990 q 523 984 513 987 q 545 978 534 981 q 567 970 557 974 q 583 962 577 966 l 593 932 "},"þ":{"x_min":-2.515625,"x_max":600,"ha":654,"o":"m 414 546 q 369 530 396 546 q 312 484 342 514 q 253 413 282 455 q 202 322 224 372 l 183 208 q 211 160 193 186 q 254 111 230 134 q 305 73 278 89 q 358 58 331 58 q 393 65 377 58 q 423 84 410 72 q 447 113 436 97 q 465 148 457 129 q 485 203 478 174 q 496 260 493 232 q 500 314 499 288 q 502 360 502 340 q 494 443 502 408 q 474 500 487 478 q 446 534 461 523 q 414 546 430 546 m 293 967 q 288 910 293 953 q 274 801 283 868 q 251 643 265 733 q 220 442 238 552 q 301 546 264 508 q 369 603 338 584 q 426 629 401 623 q 471 635 452 635 q 521 621 498 635 q 562 581 544 607 q 589 515 579 554 q 600 425 600 476 q 581 281 600 357 q 519 127 562 205 q 482 72 503 100 q 435 22 460 45 q 380 -13 409 0 q 319 -28 350 -28 q 276 -15 297 -28 q 237 16 256 -3 q 200 63 218 37 q 167 116 183 88 q 157 61 161 88 q 147 4 152 33 q 118 -209 123 -135 q 120 -303 113 -284 q 97 -310 110 -305 q 69 -319 83 -314 q 41 -329 54 -324 q 19 -339 28 -334 l -2 -319 q 21 -178 7 -258 q 50 -8 34 -98 q 80 179 65 82 q 111 370 96 276 q 139 552 126 464 q 162 712 152 640 q 178 837 172 784 q 184 912 184 889 q 181 937 184 928 q 173 951 178 946 q 161 957 168 955 q 148 958 155 958 q 130 955 141 958 q 108 948 119 952 q 80 940 95 944 l 71 966 q 129 990 99 979 q 185 1011 159 1002 q 231 1025 211 1020 q 259 1031 250 1031 q 287 1016 281 1031 q 293 967 293 1001 "},"]":{"x_min":-58.328125,"x_max":405.578125,"ha":397,"o":"m 222 -228 l -38 -228 l -58 -208 q -45 -175 -52 -192 q -33 -150 -38 -158 l 144 -150 l 307 1009 l 134 1009 l 115 1026 q 126 1057 119 1041 q 140 1085 134 1073 l 405 1085 l 222 -228 "},"Ǒ":{"x_min":61,"x_max":736,"ha":757,"o":"m 634 512 q 621 620 634 569 q 585 708 609 670 q 527 767 562 745 q 448 790 493 790 q 355 770 396 790 q 283 716 315 750 q 229 639 251 683 q 192 547 206 595 q 170 452 177 500 q 164 360 164 403 q 177 243 164 297 q 214 151 190 190 q 273 90 239 112 q 349 68 307 68 q 443 89 401 68 q 516 144 485 110 q 570 225 547 179 q 606 320 592 271 q 627 420 621 370 q 634 512 634 470 m 736 525 q 728 427 736 476 q 704 329 720 377 q 665 236 688 281 q 611 152 641 191 q 550 84 582 116 q 481 29 518 52 q 405 -7 445 6 q 319 -21 364 -21 q 205 6 254 -21 q 125 82 157 34 q 76 194 92 130 q 61 328 61 257 q 68 419 61 371 q 91 515 76 467 q 126 608 105 563 q 174 690 147 653 q 236 762 203 728 q 306 820 269 795 q 387 860 344 845 q 478 875 430 875 q 593 847 544 875 q 673 771 642 819 q 720 659 705 723 q 736 525 736 596 m 512 929 l 449 929 l 322 1167 q 337 1185 332 1180 q 353 1198 343 1189 l 495 1032 l 680 1198 q 692 1185 688 1190 q 701 1167 695 1180 l 512 929 "},"ẁ":{"x_min":3.015625,"x_max":867,"ha":875,"o":"m 867 583 q 863 541 867 565 q 851 484 860 517 q 825 406 841 451 q 783 303 809 362 q 720 170 757 244 q 632 1 683 95 q 618 -5 626 -2 q 601 -13 610 -9 q 584 -21 593 -17 q 570 -28 576 -25 l 547 -6 q 537 75 542 31 q 524 165 531 119 q 511 256 518 211 q 498 341 504 301 q 484 414 491 381 q 472 467 478 446 q 463 424 471 453 q 441 357 455 395 q 409 273 428 318 q 370 182 391 229 q 326 90 349 135 q 281 6 304 45 q 266 -1 274 3 q 248 -10 258 -5 q 229 -20 239 -15 q 213 -28 220 -25 l 192 -6 q 182 77 187 31 q 172 173 177 124 q 161 271 167 222 q 150 365 156 321 q 139 446 145 409 q 127 505 133 482 q 117 534 123 523 q 105 551 112 545 q 92 559 99 557 q 79 561 85 561 q 62 558 73 561 q 40 552 51 556 q 12 544 27 549 l 3 569 q 57 594 31 582 q 104 615 83 606 q 141 629 125 624 q 165 635 156 635 q 194 612 184 635 q 215 542 203 590 q 224 488 219 523 q 235 412 230 454 q 247 324 241 370 q 257 237 252 278 q 265 162 262 196 q 269 112 268 129 q 325 228 296 165 q 377 354 353 291 q 417 478 401 418 q 436 586 433 538 q 458 603 446 594 q 482 619 470 612 q 504 630 494 626 q 522 635 515 635 q 529 623 525 635 q 538 594 533 612 q 547 552 542 576 q 557 503 553 528 l 567 452 q 575 407 572 427 q 586 336 580 375 q 599 257 593 298 q 611 176 605 216 q 620 100 617 135 q 703 265 671 193 q 754 389 736 336 q 778 479 772 442 q 785 542 785 516 q 775 564 785 556 q 747 573 765 573 q 724 570 738 573 q 696 562 711 567 l 683 587 q 728 610 707 601 q 765 624 749 619 q 793 632 782 630 q 810 635 805 635 q 831 633 821 635 q 849 626 841 631 q 862 610 857 620 q 867 583 867 600 m 558 710 q 536 699 544 702 q 516 696 528 696 l 346 957 l 368 982 q 388 984 376 983 q 415 987 401 986 q 442 989 429 988 q 463 990 455 990 l 558 710 "},"Ȟ":{"x_min":0,"x_max":872.1875,"ha":838,"o":"m 392 825 q 323 804 349 816 q 295 783 297 793 l 254 478 l 631 478 l 673 783 q 653 804 674 791 q 590 825 632 816 l 592 855 l 872 855 l 868 825 q 799 804 825 816 q 772 783 773 793 l 673 70 q 693 50 672 62 q 758 29 714 38 l 754 0 l 476 0 l 480 29 q 548 49 523 38 q 575 70 573 60 l 622 416 l 245 416 l 198 70 q 218 50 196 62 q 282 29 239 38 l 278 0 l 0 0 l 4 29 q 72 49 46 38 q 99 70 98 61 l 198 783 q 179 804 200 791 q 113 825 158 816 l 118 855 l 396 855 l 392 825 m 535 929 l 473 929 l 342 1133 q 357 1151 351 1146 q 373 1164 362 1155 l 518 1025 l 699 1164 q 711 1151 708 1156 q 721 1133 715 1146 l 535 929 "},"ệ":{"x_min":43,"x_max":543.25,"ha":546,"o":"m 265 530 q 222 481 243 510 q 183 418 201 452 q 155 347 166 384 q 141 274 143 310 q 280 337 229 308 q 358 390 332 365 q 392 438 385 415 q 400 485 400 461 q 394 521 400 506 q 380 546 389 536 q 360 559 371 555 q 337 564 349 564 q 306 556 327 564 q 265 530 285 548 m 509 515 q 504 475 509 496 q 486 431 500 454 q 447 385 472 409 q 382 334 423 360 q 282 280 341 308 q 142 221 223 252 q 157 152 146 183 q 185 98 169 120 q 220 63 201 76 q 257 51 238 51 q 291 54 271 51 q 339 67 312 57 q 399 97 365 77 q 473 149 432 116 q 486 136 481 145 q 494 121 492 126 q 396 43 439 73 q 320 -1 353 14 q 259 -22 286 -17 q 208 -28 232 -28 q 157 -15 186 -28 q 103 24 128 -2 q 60 96 78 52 q 43 205 43 140 q 55 309 43 258 q 92 408 68 360 q 152 497 116 455 q 232 573 187 539 q 267 597 247 586 q 308 617 287 608 q 351 630 329 625 q 395 635 373 635 q 445 624 424 635 q 481 596 466 613 q 502 558 495 580 q 509 515 509 537 m 278 -173 q 272 -210 278 -192 q 256 -244 267 -229 q 229 -269 245 -260 q 195 -279 214 -279 q 162 -266 173 -279 q 150 -231 150 -254 q 156 -194 150 -213 q 173 -160 163 -175 q 200 -134 184 -144 q 234 -125 215 -125 q 267 -137 255 -125 q 278 -173 278 -150 m 543 726 q 528 706 533 712 q 512 696 523 700 l 371 875 l 186 696 q 175 706 180 700 q 164 726 170 712 l 356 978 l 419 978 l 543 726 "},"ĭ":{"x_min":47.875,"x_max":468.65625,"ha":342,"o":"m 309 48 q 251 15 277 29 q 205 -8 226 1 q 167 -23 184 -18 q 135 -28 150 -28 q 98 -6 112 -28 q 85 51 85 14 q 90 109 85 71 q 102 192 95 146 q 119 288 110 238 q 135 383 127 338 q 147 463 142 428 q 153 515 153 499 q 150 540 153 531 q 145 553 148 549 q 136 559 142 558 q 125 560 131 560 q 108 558 119 560 q 85 552 97 556 q 57 544 72 549 l 47 569 q 104 594 76 582 q 157 615 132 606 q 200 629 181 624 q 227 635 218 635 q 254 622 246 635 q 262 577 262 609 q 256 519 262 558 q 243 433 251 481 q 226 334 235 386 q 209 235 217 282 q 196 149 201 187 q 191 91 191 110 q 195 60 191 70 q 211 51 199 51 q 251 56 232 51 q 298 73 271 61 l 309 48 m 468 905 q 416 813 443 850 q 360 754 388 776 q 303 721 331 731 q 247 712 274 712 q 191 721 217 712 q 143 754 165 731 q 105 814 122 777 q 76 905 88 851 q 94 923 86 917 q 113 935 103 929 q 139 871 123 897 q 174 829 155 845 q 215 806 193 813 q 255 799 236 799 q 301 806 276 799 q 349 829 325 813 q 396 871 373 845 q 439 935 419 897 q 455 924 448 929 q 468 905 461 918 "},"8":{"x_min":23,"x_max":528,"ha":559,"o":"m 195 637 q 206 590 195 611 q 237 553 218 570 q 281 521 256 536 q 333 491 306 506 q 374 524 355 506 q 406 562 393 541 q 428 607 420 582 q 436 661 436 631 q 404 745 436 716 q 319 774 372 774 q 269 762 292 774 q 230 731 247 750 q 204 688 213 712 q 195 637 195 663 m 401 232 q 389 296 401 269 q 357 345 377 324 q 313 382 338 366 q 261 414 288 399 q 202 369 228 392 q 158 319 176 346 q 130 259 139 292 q 121 186 121 227 q 129 132 121 157 q 155 88 138 107 q 196 58 172 69 q 250 48 219 48 q 315 64 287 48 q 363 107 344 81 q 391 167 382 134 q 401 232 401 199 m 528 679 q 515 610 528 641 q 481 553 502 579 q 432 506 460 527 q 376 466 405 484 q 424 431 401 450 q 464 389 447 413 q 492 336 481 366 q 503 269 503 306 q 479 159 503 211 q 415 66 455 106 q 321 2 374 26 q 211 -21 269 -21 q 129 -5 164 -21 q 70 36 94 10 q 34 97 46 63 q 23 169 23 131 q 39 256 23 216 q 84 330 56 296 q 147 391 111 363 q 220 439 182 418 q 178 467 198 452 q 144 502 159 483 q 120 546 129 522 q 112 603 112 571 q 132 695 112 652 q 187 770 153 738 q 267 820 222 802 q 359 838 311 838 q 432 826 401 838 q 485 793 464 814 q 517 743 507 772 q 528 679 528 713 "},"Ữ":{"x_min":113.921875,"x_max":976.6875,"ha":926,"o":"m 976 961 q 960 897 976 927 q 916 841 944 867 q 851 793 888 815 q 772 754 814 771 l 715 347 q 674 189 703 258 q 601 73 645 120 q 501 3 558 27 q 377 -21 444 -21 q 275 -4 322 -21 q 195 45 229 12 q 144 125 162 78 q 126 236 126 173 q 132 314 126 272 l 198 783 q 178 804 199 791 q 113 825 157 816 l 118 855 l 396 855 l 392 825 q 323 804 349 816 q 295 783 297 793 l 236 345 q 232 306 233 326 q 232 269 232 286 q 243 182 232 221 q 277 116 255 144 q 334 73 300 88 q 412 58 368 58 q 493 79 456 58 q 559 137 531 101 q 606 220 588 173 q 632 318 625 267 l 694 783 q 676 804 695 791 q 613 825 657 816 l 617 855 l 849 855 q 864 911 864 878 q 858 937 864 923 q 833 961 853 951 l 947 1016 q 970 991 964 1005 q 976 961 976 976 m 748 1094 q 715 1039 733 1066 q 676 990 697 1012 q 631 956 655 969 q 581 943 607 943 q 542 954 559 943 q 509 980 524 966 q 477 1005 493 993 q 443 1017 461 1017 q 395 995 419 1017 q 342 937 370 974 l 313 951 q 345 1005 327 978 q 384 1053 363 1031 q 430 1087 406 1074 q 480 1101 455 1101 q 521 1089 503 1101 q 556 1064 540 1077 q 587 1038 573 1050 q 615 1027 601 1027 q 665 1048 639 1027 q 717 1108 691 1069 l 748 1094 "},"R":{"x_min":1.046875,"x_max":731.5,"ha":731,"o":"m 731 73 q 679 40 705 55 q 631 14 653 25 q 592 -3 610 2 q 566 -10 575 -10 q 544 -6 555 -10 q 523 7 534 -2 q 501 34 513 16 q 477 79 490 51 l 323 399 q 283 403 304 400 q 245 410 262 406 l 199 70 q 219 50 197 62 q 283 29 240 38 l 279 0 l 1 0 l 5 29 q 73 49 47 38 q 100 70 99 61 l 201 809 q 149 801 175 805 q 96 791 123 796 l 96 832 q 158 848 127 840 q 222 862 188 856 q 295 871 256 868 q 380 875 334 875 q 488 861 439 875 q 571 819 536 847 q 625 751 606 792 q 644 658 644 711 q 632 593 644 632 q 593 517 620 555 q 523 448 566 480 q 416 404 479 416 l 574 124 q 598 91 587 102 q 624 76 609 79 q 662 80 639 74 q 719 99 684 86 l 731 73 m 348 817 l 324 817 q 300 817 312 817 l 251 459 q 290 451 271 454 q 328 448 309 448 q 411 460 371 448 q 480 495 450 472 q 528 554 510 519 q 546 638 546 590 q 527 723 546 688 q 479 778 508 757 q 416 808 451 799 q 348 817 381 817 "},"Ḇ":{"x_min":0.609375,"x_max":634,"ha":688,"o":"m 374 818 q 335 817 353 818 q 300 817 317 817 l 256 492 l 278 492 q 370 499 325 492 q 449 526 414 506 q 503 580 483 546 q 524 669 524 615 q 509 739 524 710 q 472 785 494 767 q 423 810 450 803 q 374 818 397 818 m 351 440 q 296 437 321 440 q 248 431 271 434 l 199 70 q 206 57 197 65 q 235 47 219 51 q 267 40 250 42 q 300 37 283 38 q 330 36 316 36 q 411 54 375 36 q 473 103 447 73 q 513 173 499 134 q 528 254 528 212 q 518 321 528 288 q 487 381 508 354 q 432 423 466 407 q 351 440 399 440 m 634 278 q 608 156 634 211 q 538 62 582 101 q 436 1 494 23 q 313 -21 377 -21 q 280 -20 299 -21 q 240 -17 261 -19 q 196 -14 219 -16 q 151 -10 173 -12 q 45 0 100 -6 l 0 0 l 4 29 q 73 49 47 38 q 100 70 98 60 l 201 810 q 145 801 170 805 q 96 791 120 796 l 96 832 q 159 849 127 841 q 228 862 192 856 q 305 871 264 868 q 392 875 345 875 q 491 863 447 875 q 565 829 535 851 q 613 776 596 807 q 630 705 630 744 q 618 637 630 670 q 587 575 607 603 q 540 525 567 547 q 480 490 512 503 q 542 463 514 482 q 591 417 571 444 q 622 354 611 389 q 634 278 634 318 m 472 -159 q 465 -176 470 -167 q 456 -195 461 -186 q 446 -213 451 -205 q 438 -228 441 -222 l 65 -228 l 54 -211 q 61 -195 57 -205 q 70 -177 65 -186 q 79 -158 74 -167 q 88 -143 84 -149 l 459 -143 l 472 -159 "},"Ż":{"x_min":21.03125,"x_max":694.5,"ha":693,"o":"m 164 68 l 493 68 q 518 74 506 68 q 543 97 531 80 q 570 142 556 114 q 601 215 583 171 l 634 205 q 626 155 630 183 q 616 100 621 128 q 607 45 611 72 q 598 0 602 19 l 33 0 l 21 30 l 556 792 l 270 792 q 247 784 260 792 q 219 760 233 777 q 190 718 204 744 q 164 653 176 691 l 128 661 l 177 872 q 207 862 193 865 q 234 857 221 858 q 262 855 248 855 q 294 855 276 855 l 682 855 l 694 823 l 164 68 m 514 1050 q 509 1013 514 1031 q 492 979 503 994 q 465 954 481 964 q 431 945 450 945 q 398 957 409 945 q 386 992 386 969 q 392 1029 386 1010 q 409 1063 399 1048 q 436 1089 420 1079 q 470 1099 451 1099 q 503 1086 491 1099 q 514 1050 514 1073 "},"ḝ":{"x_min":43,"x_max":572.421875,"ha":546,"o":"m 326 -150 q 305 -215 326 -186 q 250 -262 284 -245 q 175 -278 217 -278 q 93 -254 134 -278 l 92 -228 q 155 -245 127 -244 q 201 -237 182 -246 q 230 -213 220 -229 q 240 -181 240 -198 q 224 -154 240 -164 q 177 -146 209 -144 q 193 -101 186 -120 q 204 -65 199 -82 q 212 -32 209 -48 l 213 -28 l 207 -28 q 156 -15 184 -28 q 102 24 127 -2 q 60 96 77 52 q 43 205 43 140 q 55 309 43 258 q 92 408 68 360 q 152 497 116 455 q 232 573 187 539 q 267 597 247 586 q 308 617 287 608 q 351 630 329 625 q 395 635 374 635 q 445 624 424 635 q 481 596 466 613 q 502 558 495 580 q 509 515 509 537 q 504 475 509 496 q 486 431 500 454 q 447 385 472 409 q 382 334 423 360 q 282 280 341 308 q 142 221 223 252 q 157 152 146 183 q 185 98 169 120 q 219 63 201 76 q 256 51 238 51 q 290 54 270 51 q 337 67 310 57 q 397 97 363 77 q 471 149 431 116 q 485 136 479 145 q 492 121 490 126 q 394 43 437 73 q 317 0 351 14 q 262 -21 287 -15 q 257 -42 259 -34 q 248 -76 253 -59 q 304 -97 283 -78 q 326 -150 326 -116 m 265 530 q 222 481 243 510 q 183 418 201 452 q 155 347 166 384 q 141 274 143 310 q 280 337 229 308 q 358 390 332 365 q 392 438 385 415 q 400 485 400 461 q 394 521 400 506 q 380 546 389 536 q 360 559 371 555 q 337 564 349 564 q 306 556 327 564 q 265 530 285 548 m 572 905 q 519 813 547 850 q 463 754 492 776 q 406 721 435 731 q 351 712 378 712 q 295 721 321 712 q 247 754 269 731 q 208 814 225 777 q 180 905 191 851 q 198 923 189 917 q 217 935 207 929 q 243 871 227 897 q 278 829 259 845 q 318 806 297 813 q 359 799 339 799 q 404 806 380 799 q 453 829 429 813 q 500 871 477 845 q 543 935 523 897 q 559 924 552 929 q 572 905 565 918 "},"õ":{"x_min":36,"x_max":580.546875,"ha":586,"o":"m 452 342 q 414 501 452 446 q 306 556 376 556 q 225 527 258 556 q 171 456 192 499 q 142 364 151 414 q 134 270 134 314 q 145 185 134 225 q 176 114 156 144 q 222 66 196 84 q 280 49 249 49 q 336 62 311 49 q 380 100 360 76 q 412 153 399 123 q 435 216 426 184 q 447 281 443 249 q 452 342 452 314 m 550 379 q 539 287 550 333 q 509 196 529 240 q 461 113 490 153 q 394 42 432 73 q 357 15 377 28 q 317 -7 337 2 q 276 -22 297 -17 q 234 -28 255 -28 q 150 -7 187 -28 q 87 46 113 12 q 49 129 62 81 q 36 233 36 177 q 44 327 36 282 q 70 414 52 372 q 119 495 88 456 q 194 569 149 533 q 270 616 229 597 q 354 635 311 635 q 444 616 406 635 q 504 563 481 597 q 539 482 528 529 q 550 379 550 435 m 580 899 q 548 845 566 872 q 509 796 530 818 q 464 762 488 775 q 413 749 440 749 q 374 760 392 749 q 341 786 357 772 q 309 811 325 799 q 276 823 293 823 q 227 801 252 823 q 174 742 203 780 l 145 756 q 178 810 160 783 q 217 858 196 836 q 263 892 238 879 q 313 906 287 906 q 354 894 335 906 q 389 869 373 882 q 419 843 405 855 q 448 832 434 832 q 498 853 472 832 q 550 913 524 874 l 580 899 "},"ẘ":{"x_min":3.015625,"x_max":867,"ha":875,"o":"m 867 583 q 863 541 867 565 q 851 484 860 517 q 825 406 841 451 q 783 303 809 362 q 720 170 757 244 q 632 1 683 95 q 618 -5 626 -2 q 601 -13 610 -9 q 584 -21 593 -17 q 570 -28 576 -25 l 547 -6 q 537 75 542 31 q 524 165 531 119 q 511 256 518 211 q 498 341 504 301 q 484 414 491 381 q 472 467 478 446 q 463 424 471 453 q 441 357 455 395 q 409 273 428 318 q 370 182 391 229 q 326 90 349 135 q 281 6 304 45 q 266 -1 274 3 q 248 -10 258 -5 q 229 -20 239 -15 q 213 -28 220 -25 l 192 -6 q 182 77 187 31 q 172 173 177 124 q 161 271 167 222 q 150 365 156 321 q 139 446 145 409 q 127 505 133 482 q 117 534 123 523 q 105 551 112 545 q 92 559 99 557 q 79 561 85 561 q 62 558 73 561 q 40 552 51 556 q 12 544 27 549 l 3 569 q 57 594 31 582 q 104 615 83 606 q 141 629 125 624 q 165 635 156 635 q 194 612 184 635 q 215 542 203 590 q 224 488 219 523 q 235 412 230 454 q 247 324 241 370 q 257 237 252 278 q 265 162 262 196 q 269 112 268 129 q 325 228 296 165 q 377 354 353 291 q 417 478 401 418 q 436 586 433 538 q 458 603 446 594 q 482 619 470 612 q 504 630 494 626 q 522 635 515 635 q 529 623 525 635 q 538 594 533 612 q 547 552 542 576 q 557 503 553 528 l 567 452 q 575 407 572 427 q 586 336 580 375 q 599 257 593 298 q 611 176 605 216 q 620 100 617 135 q 703 265 671 193 q 754 389 736 336 q 778 479 772 442 q 785 542 785 516 q 775 564 785 556 q 747 573 765 573 q 724 570 738 573 q 696 562 711 567 l 683 587 q 728 610 707 601 q 765 624 749 619 q 793 632 782 630 q 810 635 805 635 q 831 633 821 635 q 849 626 841 631 q 862 610 857 620 q 867 583 867 600 m 589 842 q 579 885 589 866 q 548 904 569 904 q 515 895 529 904 q 491 872 500 886 q 476 841 481 858 q 471 808 471 824 q 482 764 471 783 q 515 746 494 746 q 547 755 533 746 q 570 778 561 764 q 585 809 580 792 q 589 842 589 826 m 646 868 q 634 810 646 840 q 602 754 623 780 q 554 712 581 729 q 495 696 526 696 q 462 702 477 696 q 437 721 448 709 q 420 747 426 732 q 414 779 414 762 q 426 841 414 810 q 459 897 438 872 q 507 939 479 923 q 567 956 535 956 q 625 931 603 956 q 646 868 646 906 "},"ẫ":{"x_min":36,"x_max":660.578125,"ha":625,"o":"m 408 292 q 418 355 412 322 q 430 419 424 388 q 440 475 435 449 q 447 515 444 500 q 425 532 437 523 q 398 548 412 540 q 369 559 385 555 q 338 564 354 564 q 279 548 307 564 q 228 508 252 533 q 186 450 205 483 q 155 384 168 418 q 135 316 142 350 q 128 257 128 283 q 135 177 128 213 q 155 117 142 142 q 186 78 168 92 q 224 65 203 65 q 263 85 240 65 q 312 139 287 106 q 363 212 338 172 q 408 292 388 253 m 610 45 q 515 -10 551 7 q 459 -28 478 -28 q 435 -19 447 -28 q 415 12 424 -11 q 402 77 407 35 q 397 184 397 118 q 353 116 379 153 q 299 46 328 79 q 239 -6 270 14 q 180 -28 208 -28 q 132 -15 157 -28 q 85 25 107 -2 q 50 98 64 54 q 36 206 36 143 q 48 311 36 260 q 86 409 61 362 q 147 497 111 456 q 231 571 183 538 q 271 594 249 583 q 317 615 293 606 q 363 629 340 624 q 407 635 386 635 q 435 631 421 635 q 461 621 449 627 q 486 608 474 615 q 507 594 497 601 q 541 615 523 605 q 577 635 558 626 l 590 611 q 571 594 579 601 q 558 576 564 586 q 548 552 552 567 q 539 515 544 538 q 520 415 529 466 q 504 318 511 364 q 494 238 498 273 q 491 189 491 204 q 493 124 491 150 q 499 81 495 97 q 509 58 503 65 q 524 51 516 51 q 556 55 537 51 q 602 70 575 58 l 610 45 m 570 726 q 555 706 560 712 q 539 696 550 700 l 398 875 l 213 696 q 202 706 207 700 q 191 726 198 712 l 383 978 l 446 978 l 570 726 m 660 1231 q 628 1177 646 1204 q 589 1129 610 1150 q 544 1094 568 1107 q 493 1081 520 1081 q 454 1092 472 1081 q 421 1118 437 1104 q 389 1143 405 1132 q 356 1155 373 1155 q 307 1133 332 1155 q 255 1074 283 1112 l 225 1088 q 258 1142 240 1115 q 297 1190 276 1169 q 343 1225 318 1211 q 393 1238 367 1238 q 434 1226 415 1238 q 469 1201 453 1215 q 499 1175 485 1187 q 528 1164 514 1164 q 578 1185 552 1164 q 630 1245 604 1207 l 660 1231 "},"Ṡ":{"x_min":32.421875,"x_max":593.375,"ha":610,"o":"m 592 812 q 592 803 594 810 q 583 786 589 795 q 569 766 577 776 q 552 745 560 755 q 535 728 543 735 q 522 717 527 720 l 503 721 q 477 752 491 738 q 446 778 463 767 q 410 797 429 790 q 371 804 391 804 q 306 792 334 804 q 258 761 278 780 q 229 719 239 742 q 219 674 219 696 q 223 643 219 659 q 243 609 228 627 q 285 571 258 591 q 358 528 313 551 q 449 475 412 500 q 509 424 486 450 q 542 366 532 397 q 553 298 553 336 q 526 176 553 234 q 455 75 500 119 q 350 5 410 31 q 223 -21 290 -21 q 164 -12 197 -21 q 101 10 131 -3 q 52 42 72 25 q 32 77 32 60 q 40 101 32 86 q 59 133 48 117 q 83 160 71 148 q 105 172 96 172 q 124 155 113 172 q 154 118 136 138 q 200 81 173 98 q 268 65 228 65 q 345 78 309 65 q 407 116 380 92 q 448 173 433 140 q 464 244 464 206 q 455 295 464 271 q 427 342 447 320 q 373 387 407 365 q 287 434 339 410 q 213 479 243 455 q 168 528 184 503 q 144 579 151 553 q 138 629 138 605 q 158 718 138 674 q 217 796 179 762 q 308 853 254 831 q 427 875 361 875 q 517 856 476 875 q 592 812 559 837 m 470 1050 q 464 1013 470 1031 q 448 979 459 994 q 421 954 437 964 q 387 945 406 945 q 354 957 365 945 q 342 992 342 969 q 348 1029 342 1010 q 365 1063 355 1048 q 392 1089 376 1079 q 426 1099 407 1099 q 459 1086 447 1099 q 470 1050 470 1073 "},"ǝ":{"x_min":43,"x_max":509,"ha":546,"o":"m 300 76 q 345 128 324 97 q 380 195 365 158 q 403 273 395 232 q 413 353 412 313 q 271 286 323 317 q 193 226 219 254 q 159 171 166 197 q 152 122 152 146 q 157 85 152 100 q 171 61 162 70 q 190 47 179 51 q 214 43 202 43 q 255 51 231 43 q 300 76 279 59 m 509 401 q 499 297 509 348 q 468 198 489 246 q 414 109 447 151 q 334 33 380 67 q 297 10 317 20 q 255 -9 277 0 q 207 -22 232 -17 q 157 -28 182 -28 q 106 -17 127 -28 q 70 10 85 -6 q 49 48 56 27 q 43 91 43 69 q 47 132 43 110 q 65 179 51 154 q 103 230 79 203 q 169 285 128 257 q 269 343 210 313 q 410 403 328 372 q 392 464 404 436 q 365 513 380 492 q 331 544 349 533 q 296 556 313 556 q 262 552 282 556 q 215 539 241 549 q 155 509 188 529 q 80 457 121 490 q 67 470 72 461 q 59 485 61 480 q 157 563 114 533 q 234 608 200 592 q 294 629 267 624 q 345 635 321 635 q 396 622 367 635 q 449 582 424 609 q 491 510 474 554 q 509 401 509 465 "},"˙":{"x_min":110,"x_max":238,"ha":228,"o":"m 238 855 q 232 818 238 836 q 215 784 226 799 q 188 759 204 769 q 154 750 173 750 q 121 762 133 750 q 110 797 110 774 q 116 834 110 815 q 133 868 122 853 q 159 894 144 884 q 193 904 174 904 q 226 891 214 904 q 238 855 238 878 "},"ê":{"x_min":43,"x_max":543.25,"ha":546,"o":"m 265 530 q 222 481 243 510 q 183 418 201 452 q 155 347 166 384 q 141 274 143 310 q 280 337 229 308 q 358 390 332 365 q 392 438 385 415 q 400 485 400 461 q 394 521 400 506 q 380 546 389 536 q 360 559 371 555 q 337 564 349 564 q 306 556 327 564 q 265 530 285 548 m 509 515 q 504 475 509 496 q 486 431 500 454 q 447 385 472 409 q 382 334 423 360 q 282 280 341 308 q 142 221 223 252 q 157 152 146 183 q 185 98 169 120 q 220 63 201 76 q 257 51 238 51 q 291 54 271 51 q 339 67 312 57 q 399 97 365 77 q 473 149 432 116 q 486 136 481 145 q 494 121 492 126 q 396 43 439 73 q 320 -1 353 14 q 259 -22 286 -17 q 208 -28 232 -28 q 157 -15 186 -28 q 103 24 128 -2 q 60 96 78 52 q 43 205 43 140 q 55 309 43 258 q 92 408 68 360 q 152 497 116 455 q 232 573 187 539 q 267 597 247 586 q 308 617 287 608 q 351 630 329 625 q 395 635 373 635 q 445 624 424 635 q 481 596 466 613 q 502 558 495 580 q 509 515 509 537 m 543 726 q 528 706 533 712 q 512 696 523 700 l 371 875 l 186 696 q 175 706 180 700 q 164 726 170 712 l 356 978 l 419 978 l 543 726 "},"„":{"x_min":8.296875,"x_max":459,"ha":566,"o":"m 193 76 q 177 4 193 40 q 139 -63 162 -30 q 87 -123 116 -95 q 32 -171 58 -151 l 8 -147 q 34 -117 20 -135 q 60 -79 48 -99 q 80 -39 72 -59 q 89 0 89 -18 q 71 40 89 25 q 18 56 53 56 l 12 87 q 38 106 19 95 q 79 126 57 116 q 122 142 101 136 q 153 148 143 149 q 182 118 171 136 q 193 76 193 101 m 459 76 q 443 4 459 40 q 405 -63 428 -30 q 353 -123 382 -95 q 299 -171 325 -151 l 274 -147 q 301 -117 287 -135 q 327 -79 315 -99 q 347 -39 339 -59 q 355 0 355 -18 q 337 40 355 25 q 285 56 319 56 l 280 87 q 306 106 287 95 q 347 126 325 116 q 390 142 369 136 q 421 148 411 149 q 449 118 439 136 q 459 76 459 101 "},"Â":{"x_min":-23.734375,"x_max":726.375,"ha":778,"o":"m 251 301 l 154 75 q 165 45 145 54 q 237 29 185 35 l 233 0 l -23 0 l -19 29 q 48 46 23 37 q 83 75 74 55 l 413 833 q 434 849 422 841 q 459 866 446 858 q 484 881 472 874 q 505 893 496 888 l 651 75 q 656 58 653 65 q 668 45 660 51 q 690 35 676 40 q 726 29 704 31 l 723 0 l 462 0 l 465 29 q 534 43 513 32 q 551 75 555 53 l 512 301 l 251 301 m 501 363 l 437 731 l 278 363 l 501 363 m 667 943 q 652 923 657 930 q 636 913 647 917 l 491 1052 l 310 913 q 299 923 304 917 q 288 943 295 930 l 474 1148 l 537 1148 l 667 943 "},"´":{"x_min":116.65625,"x_max":387.9375,"ha":411,"o":"m 387 932 l 147 696 q 131 703 136 698 q 116 719 126 708 l 301 990 q 318 984 307 987 q 340 978 328 981 q 362 970 352 974 q 377 962 372 966 l 387 932 "},"Ɛ":{"x_min":36,"x_max":642.15625,"ha":636,"o":"m 642 804 q 608 758 629 781 q 568 715 587 734 l 543 720 q 510 752 526 739 q 474 775 493 766 q 434 789 456 784 q 385 794 412 794 q 315 781 348 794 q 256 747 282 769 q 216 695 231 725 q 202 628 202 664 q 213 577 202 602 q 251 529 225 551 q 321 493 277 507 q 427 476 364 478 l 419 428 q 330 414 379 426 q 238 378 281 402 q 166 315 195 354 q 138 224 138 277 q 150 156 138 185 q 184 107 162 126 q 236 77 206 87 q 302 68 266 68 q 357 71 333 68 q 407 86 380 75 q 466 119 433 98 q 549 175 500 140 l 570 144 q 476 60 517 93 q 398 10 435 28 q 322 -14 361 -8 q 237 -21 284 -21 q 148 -3 186 -21 q 85 43 110 14 q 48 108 60 71 q 36 183 36 145 q 53 268 36 228 q 98 343 70 309 q 160 402 126 377 q 229 444 194 428 q 184 468 205 454 q 147 502 163 483 q 123 543 132 520 q 114 594 114 567 q 148 720 114 667 q 245 815 183 773 q 337 859 288 844 q 435 875 386 875 q 555 857 501 875 q 642 804 608 840 "},"ỏ":{"x_min":36,"x_max":550,"ha":586,"o":"m 452 342 q 414 501 452 446 q 306 556 376 556 q 225 527 258 556 q 171 456 192 499 q 142 364 151 414 q 134 270 134 314 q 145 185 134 225 q 176 114 156 144 q 222 66 196 84 q 280 49 249 49 q 336 62 311 49 q 380 100 360 76 q 412 153 399 123 q 435 216 426 184 q 447 281 443 249 q 452 342 452 314 m 550 379 q 539 287 550 333 q 509 196 529 240 q 461 113 490 153 q 394 42 432 73 q 357 15 377 28 q 317 -7 337 2 q 276 -22 297 -17 q 234 -28 255 -28 q 150 -7 187 -28 q 87 46 113 12 q 49 129 62 81 q 36 233 36 177 q 44 327 36 282 q 70 414 52 372 q 119 495 88 456 q 194 569 149 533 q 270 616 229 597 q 354 635 311 635 q 444 616 406 635 q 504 563 481 597 q 539 482 528 529 q 550 379 550 435 m 473 904 q 455 855 473 876 q 416 818 438 834 q 377 787 395 801 q 359 755 359 772 q 366 738 359 748 q 388 718 372 728 q 369 710 378 712 q 350 708 360 709 q 312 736 323 723 q 301 760 301 749 q 310 780 301 771 q 331 798 318 790 q 358 816 343 807 q 386 837 373 826 q 407 863 398 849 q 415 895 415 876 q 406 927 415 914 q 377 940 398 940 q 354 935 365 940 q 335 922 343 930 q 324 905 328 914 q 324 886 321 895 q 312 882 320 884 q 295 877 304 879 q 278 873 287 874 q 264 870 270 871 l 258 878 q 272 915 257 898 q 307 945 286 933 q 352 965 328 958 q 396 972 376 972 q 454 952 435 972 q 473 904 473 932 "},"ʃ":{"x_min":-240.765625,"x_max":586.65625,"ha":326,"o":"m 586 951 q 556 929 572 941 q 524 907 539 917 q 496 891 509 897 q 474 885 482 885 q 457 896 465 885 q 439 923 449 908 q 417 949 430 937 q 385 961 404 961 q 339 948 362 961 q 295 910 316 936 q 257 845 274 885 q 228 752 239 806 q 213 641 218 699 q 207 520 208 582 q 206 394 206 458 q 206 268 206 331 q 205 147 206 206 q 198 36 204 88 q 159 -115 189 -46 q 87 -234 129 -185 q -4 -311 44 -284 q -101 -339 -54 -339 q -149 -330 -124 -339 q -194 -309 -174 -321 q -227 -283 -215 -297 q -240 -256 -240 -268 q -231 -233 -240 -247 q -211 -205 -223 -219 q -188 -182 -200 -192 q -172 -173 -177 -173 q -162 -180 -168 -173 q -150 -197 -157 -187 q -135 -220 -144 -208 q -115 -243 -126 -232 q -88 -260 -103 -253 q -54 -268 -73 -268 q -1 -249 -26 -268 q 44 -194 24 -230 q 78 -109 64 -159 q 99 3 92 -58 q 109 197 109 103 q 108 380 109 291 q 109 554 107 469 q 126 717 111 638 q 149 801 134 763 q 186 870 165 839 q 230 925 206 901 q 278 967 254 949 q 355 1012 314 994 q 438 1031 396 1031 q 491 1019 467 1031 q 531 994 514 1008 q 562 967 549 980 q 586 951 576 954 "},"Ĉ":{"x_min":52,"x_max":689.84375,"ha":675,"o":"m 689 807 q 684 792 691 803 q 665 766 676 780 q 639 738 653 752 q 617 717 626 724 l 597 722 q 530 772 569 752 q 434 793 490 793 q 373 780 407 793 q 312 746 339 767 q 239 662 269 712 q 190 557 209 612 q 162 447 171 501 q 154 349 154 392 q 174 222 154 276 q 225 133 194 168 q 294 81 257 98 q 368 65 332 65 q 459 89 406 65 q 588 173 512 113 q 594 167 592 172 q 600 158 597 163 q 605 149 602 153 q 608 143 607 145 q 521 65 562 96 q 444 16 481 34 q 375 -10 408 -2 q 310 -18 341 -18 q 212 4 259 -18 q 130 68 165 26 q 73 171 94 110 q 52 311 52 232 q 64 441 52 375 q 103 570 77 507 q 171 689 129 632 q 269 791 212 746 q 376 852 318 830 q 497 875 433 875 q 611 855 564 875 q 689 807 659 835 m 660 943 q 646 923 651 930 q 630 913 640 917 l 484 1052 l 303 913 q 293 923 297 917 q 281 943 288 930 l 467 1148 l 530 1148 l 660 943 "},"Ɋ":{"x_min":61,"x_max":828.796875,"ha":778,"o":"m 627 730 q 560 771 599 752 q 472 790 521 790 q 390 769 430 790 q 316 714 351 748 q 254 633 282 679 q 205 536 226 587 q 174 433 185 486 q 163 333 163 381 q 177 213 163 262 q 213 133 191 164 q 261 89 234 103 q 313 76 288 76 q 364 101 331 76 q 433 170 396 126 q 507 271 470 213 q 573 394 544 329 q 586 477 579 433 q 600 564 593 520 q 615 651 607 608 q 627 730 622 694 m 721 710 q 711 651 717 690 q 696 559 704 611 q 678 444 688 506 q 658 316 668 381 q 640 184 649 250 q 624 58 631 118 q 614 -51 618 -1 q 610 -135 610 -101 q 621 -228 610 -195 q 664 -262 633 -262 q 706 -243 689 -262 q 723 -192 723 -225 q 720 -175 723 -187 q 712 -154 718 -164 q 732 -142 720 -149 q 758 -130 744 -136 q 787 -117 771 -123 q 816 -106 802 -111 l 828 -130 q 811 -193 828 -163 q 769 -251 794 -223 q 740 -276 758 -261 q 697 -305 721 -291 q 646 -329 674 -319 q 591 -339 618 -339 q 532 -295 553 -339 q 512 -153 512 -251 q 515 -65 512 -110 q 523 27 518 -20 q 536 129 529 76 q 552 244 544 183 q 479 141 518 189 q 402 57 441 92 q 327 0 364 21 q 261 -21 291 -21 q 189 0 225 -21 q 124 62 153 22 q 78 158 96 101 q 61 284 61 215 q 78 430 61 358 q 130 566 96 501 q 212 687 164 631 q 322 786 261 743 q 376 819 346 803 q 437 847 406 835 q 501 867 469 860 q 559 875 532 875 q 597 869 578 875 q 634 855 616 863 q 668 836 652 846 q 698 816 684 825 q 736 844 718 832 q 778 868 755 855 l 799 835 q 748 776 769 809 q 721 710 726 743 "},"Ờ":{"x_min":61,"x_max":847,"ha":796,"o":"m 634 512 q 621 620 634 569 q 585 708 609 670 q 527 767 562 745 q 448 790 493 790 q 355 770 396 790 q 283 716 315 750 q 229 639 251 683 q 192 547 206 595 q 170 452 177 500 q 164 360 164 403 q 177 243 164 297 q 214 151 190 190 q 273 90 239 112 q 349 68 307 68 q 443 89 401 68 q 516 144 485 110 q 570 225 547 179 q 606 320 592 271 q 627 420 621 370 q 634 512 634 470 m 847 961 q 833 903 847 931 q 797 852 820 876 q 743 807 774 828 q 675 768 711 786 q 721 658 706 720 q 736 524 736 595 q 728 427 736 476 q 704 329 720 377 q 665 236 688 281 q 611 152 641 191 q 550 84 582 116 q 481 29 518 52 q 405 -7 445 6 q 319 -21 364 -21 q 205 6 254 -21 q 125 82 157 34 q 76 194 92 130 q 61 328 61 257 q 68 419 61 371 q 91 515 76 467 q 126 608 105 563 q 175 690 147 653 q 236 762 203 728 q 307 820 269 795 q 387 860 344 845 q 478 875 430 875 q 576 855 534 875 q 650 801 619 835 q 714 845 693 819 q 735 910 735 872 q 729 937 735 923 q 703 961 723 951 l 817 1016 q 840 991 834 1005 q 847 961 847 976 m 577 944 q 561 925 567 931 q 545 913 556 919 l 273 1078 l 281 1109 q 298 1121 287 1114 q 321 1135 309 1128 q 345 1147 333 1141 q 364 1158 356 1153 l 577 944 "},"Ω":{"x_min":15.59375,"x_max":756.171875,"ha":808,"o":"m 32 0 l 15 18 q 22 55 18 34 q 32 99 27 76 q 44 145 37 122 q 59 190 51 168 l 86 190 q 95 103 88 132 q 128 75 103 75 l 263 75 q 170 185 205 132 q 116 291 134 239 q 96 394 99 343 q 101 501 93 446 q 123 590 107 545 q 165 677 140 635 q 225 754 191 718 q 301 817 259 790 q 392 859 343 844 q 495 875 440 875 q 615 849 562 875 q 701 778 668 824 q 749 665 735 731 q 750 516 762 599 q 719 402 741 456 q 661 294 697 347 q 573 188 624 241 q 455 75 522 134 l 596 75 q 618 81 609 75 q 636 101 627 87 q 655 138 645 115 q 681 193 666 160 l 708 180 q 698 136 704 160 q 686 87 692 112 q 674 40 680 63 q 662 0 668 17 l 392 0 l 402 75 q 479 167 445 126 q 538 242 512 208 q 582 307 564 277 q 614 367 601 337 q 636 429 628 397 q 650 500 644 462 q 652 618 659 562 q 623 718 646 674 q 562 787 601 761 q 467 813 523 813 q 390 797 425 813 q 327 756 356 781 q 276 698 298 731 q 238 632 254 665 q 212 565 222 598 q 199 508 202 533 q 191 434 193 467 q 192 369 189 401 q 204 308 195 338 q 229 242 212 277 q 269 167 245 208 q 326 75 293 126 l 316 0 l 32 0 "},"ȧ":{"x_min":36,"x_max":610.359375,"ha":625,"o":"m 408 292 q 418 355 412 322 q 430 419 424 388 q 440 475 435 449 q 447 515 444 500 q 425 532 437 523 q 398 548 412 540 q 369 559 385 555 q 338 564 354 564 q 279 548 307 564 q 228 508 252 533 q 186 450 205 483 q 155 384 168 418 q 135 316 142 350 q 128 257 128 283 q 135 177 128 213 q 155 117 142 142 q 186 78 168 92 q 224 65 203 65 q 263 85 240 65 q 312 139 287 106 q 363 212 338 172 q 408 292 388 253 m 610 45 q 515 -10 551 7 q 459 -28 478 -28 q 435 -19 447 -28 q 415 12 424 -11 q 402 77 407 35 q 397 184 397 118 q 353 116 379 153 q 299 46 328 79 q 239 -6 270 14 q 180 -28 208 -28 q 132 -15 157 -28 q 85 25 107 -2 q 50 98 64 54 q 36 206 36 143 q 48 311 36 260 q 86 409 61 362 q 147 497 111 456 q 231 571 183 538 q 271 594 249 583 q 317 615 293 606 q 363 629 340 624 q 407 635 386 635 q 435 631 421 635 q 461 621 449 627 q 486 608 474 615 q 507 594 497 601 q 541 615 523 605 q 577 635 558 626 l 590 611 q 571 594 579 601 q 558 576 564 586 q 548 552 552 567 q 539 515 544 538 q 520 415 529 466 q 504 318 511 364 q 494 238 498 273 q 491 189 491 204 q 493 124 491 150 q 499 81 495 97 q 509 58 503 65 q 524 51 516 51 q 556 55 537 51 q 602 70 575 58 l 610 45 m 457 855 q 451 818 457 836 q 435 784 445 799 q 408 759 424 769 q 373 750 392 750 q 341 762 352 750 q 329 797 329 774 q 335 834 329 815 q 352 868 341 853 q 378 894 363 884 q 413 904 394 904 q 445 891 434 904 q 457 855 457 878 "},"Ö":{"x_min":61,"x_max":736,"ha":757,"o":"m 634 512 q 621 620 634 569 q 585 708 609 670 q 527 767 562 745 q 448 790 493 790 q 355 770 396 790 q 283 716 315 750 q 229 639 251 683 q 192 547 206 595 q 170 452 177 500 q 164 360 164 403 q 177 243 164 297 q 214 151 190 190 q 273 90 239 112 q 349 68 307 68 q 443 89 401 68 q 516 144 485 110 q 570 225 547 179 q 606 320 592 271 q 627 420 621 370 q 634 512 634 470 m 736 525 q 728 427 736 476 q 704 329 720 377 q 665 236 688 281 q 611 152 641 191 q 550 84 582 116 q 481 29 518 52 q 405 -7 445 6 q 319 -21 364 -21 q 205 6 254 -21 q 125 82 157 34 q 76 194 92 130 q 61 328 61 257 q 68 419 61 371 q 91 515 76 467 q 126 608 105 563 q 174 690 147 653 q 236 762 203 728 q 306 820 269 795 q 387 860 344 845 q 478 875 430 875 q 593 847 544 875 q 673 771 642 819 q 720 659 705 723 q 736 525 736 596 m 430 1050 q 424 1013 430 1031 q 407 979 418 994 q 380 954 396 964 q 345 945 364 945 q 311 957 323 945 q 299 992 299 969 q 305 1029 299 1010 q 323 1063 312 1048 q 350 1089 334 1079 q 385 1099 366 1099 q 418 1086 406 1099 q 430 1050 430 1073 m 683 1050 q 677 1013 683 1031 q 660 979 671 994 q 632 954 648 964 q 597 945 617 945 q 564 957 576 945 q 552 992 552 969 q 558 1029 552 1010 q 575 1063 564 1048 q 602 1089 586 1079 q 637 1099 617 1099 q 670 1086 658 1099 q 683 1050 683 1073 "},"ḏ":{"x_min":28.484375,"x_max":627,"ha":657,"o":"m 422 287 q 436 380 428 328 q 453 490 444 432 q 429 515 442 502 q 400 539 415 528 q 368 557 385 550 q 331 564 351 564 q 273 548 300 564 q 223 508 246 533 q 183 450 200 483 q 153 384 165 418 q 134 316 140 350 q 128 257 128 283 q 137 177 128 213 q 161 117 146 142 q 195 78 176 92 q 234 65 214 65 q 275 81 252 65 q 322 129 297 98 q 371 200 346 159 q 422 287 397 240 m 627 45 q 532 -10 569 7 q 472 -28 495 -28 q 448 -17 459 -28 q 430 18 438 -6 q 417 85 422 43 q 413 190 413 128 q 363 108 389 147 q 307 38 336 68 q 247 -10 277 7 q 187 -28 216 -28 q 137 -14 164 -28 q 88 29 111 0 q 50 104 65 58 q 36 213 36 150 q 47 317 36 267 q 82 414 59 368 q 141 499 105 459 q 225 571 177 539 q 266 594 244 583 q 311 614 288 605 q 357 629 334 624 q 401 635 380 635 q 436 624 418 635 q 471 599 454 613 q 487 696 479 648 q 499 784 494 743 q 508 858 505 825 q 512 913 512 892 q 509 937 512 928 q 502 951 507 946 q 493 957 498 955 q 481 958 487 958 q 463 955 475 958 q 439 948 451 952 q 408 940 425 944 l 400 966 q 458 991 429 979 q 511 1011 486 1002 q 555 1025 536 1020 q 582 1031 574 1031 q 610 1018 601 1031 q 620 975 620 1006 q 615 906 620 948 q 602 812 610 864 q 584 701 594 760 q 564 582 575 642 q 544 463 553 522 q 526 355 534 405 q 513 265 518 305 q 509 202 509 225 q 516 88 509 123 q 539 52 523 52 q 575 56 557 52 q 618 70 594 60 l 627 45 m 445 -159 q 439 -176 443 -167 q 429 -195 434 -186 q 419 -213 424 -205 q 411 -228 415 -222 l 39 -228 l 28 -211 q 35 -195 31 -205 q 43 -177 39 -186 q 52 -158 48 -167 q 61 -143 57 -149 l 432 -143 l 445 -159 "},"z":{"x_min":-2.71875,"x_max":526.296875,"ha":526,"o":"m 526 599 q 425 480 470 539 q 338 359 381 420 q 252 234 296 298 q 155 102 208 170 q 173 108 157 103 q 210 113 189 113 q 247 106 224 113 q 297 91 269 99 q 352 76 324 83 q 405 70 380 70 q 420 71 411 70 q 439 80 429 73 q 461 103 449 88 q 487 143 474 118 l 511 130 q 478 60 492 88 q 447 16 463 32 q 408 -7 430 0 q 354 -14 387 -14 q 290 -6 320 -14 q 234 9 261 0 q 184 24 208 17 q 139 32 160 32 q 116 28 128 32 q 90 18 105 25 q 56 1 75 11 q 12 -21 37 -8 l -2 1 q 67 91 31 42 q 140 192 103 140 q 212 295 177 244 q 280 394 248 347 q 339 478 311 440 q 385 539 366 515 l 181 539 q 154 535 165 539 q 133 523 143 532 q 116 497 124 514 q 98 451 108 480 l 71 456 q 97 561 84 517 q 115 635 109 605 q 143 625 128 631 q 181 620 158 620 l 512 620 l 526 599 "},"Ḅ":{"x_min":0.609375,"x_max":634,"ha":688,"o":"m 374 818 q 335 817 353 818 q 300 817 317 817 l 256 492 l 278 492 q 370 499 325 492 q 449 526 414 506 q 503 580 483 546 q 524 669 524 615 q 509 739 524 710 q 472 785 494 767 q 423 810 450 803 q 374 818 397 818 m 351 440 q 296 437 321 440 q 248 431 271 434 l 199 70 q 206 57 197 65 q 235 47 219 51 q 267 40 250 42 q 300 37 283 38 q 330 36 316 36 q 411 54 375 36 q 473 103 447 73 q 513 173 499 134 q 528 254 528 212 q 518 321 528 288 q 487 381 508 354 q 432 423 466 407 q 351 440 399 440 m 634 278 q 608 156 634 211 q 538 62 582 101 q 436 1 494 23 q 313 -21 377 -21 q 280 -20 299 -21 q 240 -17 261 -19 q 196 -14 219 -16 q 151 -10 173 -12 q 45 0 100 -6 l 0 0 l 4 29 q 73 49 47 38 q 100 70 98 60 l 201 810 q 145 801 170 805 q 96 791 120 796 l 96 832 q 159 849 127 841 q 228 862 192 856 q 305 871 264 868 q 392 875 345 875 q 491 863 447 875 q 565 829 535 851 q 613 776 596 807 q 630 705 630 744 q 618 637 630 670 q 587 575 607 603 q 540 525 567 547 q 480 490 512 503 q 542 463 514 482 q 591 417 571 444 q 622 354 611 389 q 634 278 634 318 m 325 -173 q 319 -210 325 -192 q 303 -244 314 -229 q 276 -269 292 -260 q 241 -279 260 -279 q 209 -266 220 -279 q 197 -231 197 -254 q 203 -194 197 -213 q 220 -160 209 -175 q 246 -134 231 -144 q 281 -125 262 -125 q 314 -137 302 -125 q 325 -173 325 -150 "},"™":{"x_min":116.65625,"x_max":748.765625,"ha":786,"o":"m 379 848 q 376 832 377 841 q 372 814 374 823 q 368 796 370 804 q 364 782 366 788 l 352 782 q 348 814 351 803 q 336 826 346 826 l 271 826 l 238 580 q 243 573 237 578 q 271 563 250 568 l 269 547 l 153 547 l 156 563 q 186 572 178 568 q 194 580 194 576 l 228 826 l 161 826 q 154 824 157 826 q 147 818 151 822 q 138 805 143 813 q 126 782 133 796 l 116 786 q 119 801 117 792 q 124 820 122 810 q 129 840 126 830 q 134 855 132 850 l 373 855 l 379 848 m 746 838 q 716 832 733 838 l 683 578 q 689 571 683 575 q 712 563 695 566 l 710 547 l 604 547 l 605 563 q 632 571 622 566 q 641 578 641 575 l 668 789 l 537 547 l 519 547 l 452 785 l 422 578 q 427 571 421 575 q 451 563 434 566 l 448 547 l 352 547 l 355 563 q 380 571 372 566 q 388 578 388 575 l 426 831 q 411 836 419 835 q 396 838 403 838 l 398 855 l 467 855 q 475 851 473 855 q 480 835 477 847 l 543 620 l 659 835 q 669 852 666 850 q 676 855 672 855 l 748 855 l 746 838 "},"ặ":{"x_min":36,"x_max":610.359375,"ha":625,"o":"m 408 292 q 418 355 412 322 q 430 419 424 388 q 440 475 435 449 q 447 515 444 500 q 425 532 437 523 q 398 548 412 540 q 369 559 385 555 q 338 564 354 564 q 279 548 307 564 q 228 508 252 533 q 186 450 205 483 q 155 384 168 418 q 135 316 142 350 q 128 257 128 283 q 135 177 128 213 q 155 117 142 142 q 186 78 168 92 q 224 65 203 65 q 263 85 240 65 q 312 139 287 106 q 363 212 338 172 q 408 292 388 253 m 610 45 q 515 -10 551 7 q 459 -28 478 -28 q 435 -19 447 -28 q 415 12 424 -11 q 402 77 407 35 q 397 184 397 118 q 353 116 379 153 q 299 46 328 79 q 239 -6 270 14 q 180 -28 208 -28 q 132 -15 157 -28 q 85 25 107 -2 q 50 98 64 54 q 36 206 36 143 q 48 311 36 260 q 86 409 61 362 q 147 497 111 456 q 231 571 183 538 q 271 594 249 583 q 317 615 293 606 q 363 629 340 624 q 407 635 386 635 q 435 631 421 635 q 461 621 449 627 q 486 608 474 615 q 507 594 497 601 q 541 615 523 605 q 577 635 558 626 l 590 611 q 571 594 579 601 q 558 576 564 586 q 548 552 552 567 q 539 515 544 538 q 520 415 529 466 q 504 318 511 364 q 494 238 498 273 q 491 189 491 204 q 493 124 491 150 q 499 81 495 97 q 509 58 503 65 q 524 51 516 51 q 556 55 537 51 q 602 70 575 58 l 610 45 m 316 -173 q 310 -210 316 -192 q 294 -244 305 -229 q 267 -269 283 -260 q 233 -279 252 -279 q 200 -266 211 -279 q 188 -231 188 -254 q 194 -194 188 -213 q 211 -160 201 -175 q 238 -134 222 -144 q 272 -125 253 -125 q 305 -137 293 -125 q 316 -173 316 -150 m 599 905 q 546 813 574 850 q 491 754 519 776 q 434 721 462 731 q 378 712 405 712 q 322 721 348 712 q 274 754 296 731 q 236 814 252 777 q 207 905 219 851 q 225 923 217 917 q 244 935 234 929 q 270 871 254 897 q 305 829 286 845 q 345 806 324 813 q 386 799 366 799 q 432 806 407 799 q 480 829 456 813 q 527 871 504 845 q 570 935 550 897 q 586 924 579 929 q 599 905 592 918 "},"Ř":{"x_min":1.046875,"x_max":731.5,"ha":730,"o":"m 731 73 q 679 40 705 55 q 631 14 653 25 q 592 -3 610 2 q 566 -10 575 -10 q 544 -6 555 -10 q 523 7 534 -2 q 501 34 513 16 q 477 79 490 51 l 323 399 q 283 403 304 400 q 245 410 262 406 l 199 70 q 219 50 197 62 q 283 29 240 38 l 279 0 l 1 0 l 5 29 q 73 49 47 38 q 100 70 99 61 l 201 809 q 149 801 175 805 q 96 791 123 796 l 96 832 q 158 848 127 840 q 222 862 188 856 q 295 871 256 868 q 380 875 334 875 q 488 861 439 875 q 571 819 536 847 q 625 751 606 792 q 644 658 644 711 q 632 593 644 632 q 593 517 620 555 q 523 448 566 480 q 416 404 479 416 l 574 124 q 598 91 587 102 q 624 76 609 79 q 662 80 639 74 q 719 99 684 86 l 731 73 m 348 817 l 324 817 q 300 817 312 817 l 251 459 q 290 451 271 454 q 328 448 309 448 q 411 460 371 448 q 480 495 450 472 q 528 554 510 519 q 546 638 546 590 q 527 723 546 688 q 479 778 508 757 q 416 808 451 799 q 348 817 381 817 m 455 929 l 392 929 l 261 1133 q 276 1151 271 1146 q 292 1164 282 1155 l 438 1025 l 619 1164 q 631 1151 627 1156 q 640 1133 634 1146 l 455 929 "},"Ň":{"x_min":0,"x_max":877.625,"ha":840,"o":"m 873 825 q 806 807 828 819 q 781 783 783 795 l 670 -21 q 644 -16 656 -18 q 623 -8 633 -13 q 606 6 614 -2 q 590 30 598 15 l 252 681 l 169 70 q 186 49 167 62 q 251 29 205 36 l 247 0 l 0 0 l 4 29 q 72 48 50 35 q 96 70 95 61 l 196 783 q 157 811 178 803 q 107 825 136 820 l 111 855 l 231 855 q 255 854 246 855 q 270 848 263 853 q 282 832 276 843 q 298 802 288 821 l 626 175 l 710 783 q 706 793 710 787 q 692 805 702 799 q 666 816 682 810 q 626 825 650 821 l 630 855 l 877 855 l 873 825 m 535 929 l 473 929 l 342 1133 q 357 1151 351 1146 q 373 1164 362 1155 l 518 1025 l 699 1164 q 711 1151 708 1156 q 721 1133 715 1146 l 535 929 "},"ừ":{"x_min":26.203125,"x_max":803,"ha":751,"o":"m 803 703 q 785 637 803 668 q 738 579 768 606 q 669 530 709 553 q 586 490 630 508 q 572 405 579 451 q 556 316 564 360 q 544 234 549 272 q 539 171 539 196 q 547 80 539 110 q 573 51 556 51 q 609 55 591 51 q 651 69 627 59 l 661 45 q 567 -9 606 9 q 503 -28 529 -28 q 478 -16 490 -28 q 456 22 465 -4 q 443 93 447 50 q 445 201 440 137 q 386 109 417 151 q 322 36 355 66 q 253 -11 288 5 q 181 -28 218 -28 q 150 -17 168 -28 q 118 14 133 -6 q 92 66 103 35 q 82 138 82 97 q 85 190 82 159 q 94 257 89 221 q 107 332 100 293 q 119 406 113 371 q 128 470 124 441 q 132 515 132 499 q 129 540 132 531 q 124 553 127 549 q 115 559 120 558 q 104 561 110 561 q 86 558 98 561 q 63 552 75 556 q 34 544 49 549 l 26 569 q 83 594 54 582 q 136 615 112 606 q 179 629 161 624 q 206 635 198 635 q 233 622 226 635 q 240 577 240 609 q 235 526 240 558 q 225 456 231 494 q 213 377 219 418 q 200 299 206 337 q 190 229 194 261 q 186 177 186 197 q 199 83 186 112 q 238 54 213 54 q 274 67 252 54 q 325 109 297 80 q 387 187 354 139 q 457 303 421 234 q 467 361 462 332 q 477 418 472 391 q 484 471 481 446 q 488 515 488 495 q 486 540 488 531 q 481 553 484 549 q 473 559 477 558 q 462 561 469 561 q 446 558 456 561 q 424 552 435 556 q 399 544 412 549 l 388 569 q 445 594 417 582 q 496 615 473 606 q 537 629 519 624 q 563 635 555 635 q 588 622 582 635 q 595 578 595 609 q 594 559 595 569 q 592 538 593 549 q 665 584 641 556 q 690 653 690 612 q 684 679 690 665 q 659 703 679 693 l 773 758 q 796 733 790 747 q 803 703 803 718 m 441 710 q 419 699 427 702 q 399 696 411 696 l 229 957 l 251 982 q 272 984 259 983 q 298 987 284 986 q 325 989 312 988 q 347 990 338 990 l 441 710 "},"Ợ":{"x_min":61,"x_max":847,"ha":796,"o":"m 634 512 q 621 620 634 569 q 585 708 609 670 q 527 767 562 745 q 448 790 493 790 q 355 770 396 790 q 283 716 315 750 q 229 639 251 683 q 192 547 206 595 q 170 452 177 500 q 164 360 164 403 q 177 243 164 297 q 214 151 190 190 q 273 90 239 112 q 349 68 307 68 q 443 89 401 68 q 516 144 485 110 q 570 225 547 179 q 606 320 592 271 q 627 420 621 370 q 634 512 634 470 m 847 961 q 833 903 847 931 q 797 852 820 876 q 743 807 774 828 q 675 768 711 786 q 721 658 706 720 q 736 524 736 595 q 728 427 736 476 q 704 329 720 377 q 665 236 688 281 q 611 152 641 191 q 550 84 582 116 q 481 29 518 52 q 405 -7 445 6 q 319 -21 364 -21 q 205 6 254 -21 q 125 82 157 34 q 76 194 92 130 q 61 328 61 257 q 68 419 61 371 q 91 515 76 467 q 126 608 105 563 q 175 690 147 653 q 236 762 203 728 q 307 820 269 795 q 387 860 344 845 q 478 875 430 875 q 576 855 534 875 q 650 801 619 835 q 714 845 693 819 q 735 910 735 872 q 729 937 735 923 q 703 961 723 951 l 817 1016 q 840 991 834 1005 q 847 961 847 976 m 389 -173 q 383 -210 389 -192 q 366 -244 377 -229 q 340 -269 355 -260 q 305 -279 324 -279 q 272 -266 284 -279 q 261 -231 261 -254 q 267 -194 261 -213 q 284 -160 273 -175 q 310 -134 295 -144 q 345 -125 326 -125 q 377 -137 366 -125 q 389 -173 389 -150 "},"ƴ":{"x_min":-122.765625,"x_max":1004.453125,"ha":642,"o":"m 1004 781 q 981 761 997 773 q 947 739 965 750 q 913 720 929 727 q 893 712 897 712 q 880 721 887 712 q 863 741 873 730 q 840 762 853 753 q 811 772 828 772 q 734 740 771 772 q 659 656 696 709 q 586 532 622 603 q 513 381 550 461 q 437 216 476 301 q 359 51 399 132 q 275 -99 318 -28 q 184 -223 231 -170 q 86 -307 137 -276 q -21 -339 35 -339 q -59 -335 -41 -339 q -91 -328 -78 -332 q -114 -316 -105 -323 q -122 -304 -122 -310 q -116 -280 -122 -296 q -100 -249 -109 -265 q -79 -221 -90 -234 q -59 -203 -68 -207 q -32 -219 -46 -214 q -6 -228 -18 -225 q 15 -232 5 -231 q 32 -233 25 -233 q 91 -216 63 -233 q 146 -170 119 -199 q 199 -99 173 -140 q 251 -9 225 -58 q 234 79 244 31 q 212 178 224 127 q 188 278 201 228 q 164 371 176 328 q 140 450 151 415 q 119 505 128 485 q 92 550 103 540 q 70 561 82 561 q 53 558 64 561 q 31 552 42 556 q 4 544 18 549 l -4 569 q 50 594 24 582 q 96 615 75 606 q 132 629 117 624 q 156 635 148 635 q 173 630 166 635 q 187 615 180 625 q 200 588 193 605 q 215 548 206 571 q 241 468 227 514 q 269 369 255 422 q 298 259 284 316 q 324 144 312 201 q 396 305 360 222 q 472 467 433 388 q 554 617 511 547 q 644 740 596 687 q 745 824 692 793 q 859 855 798 855 q 904 844 881 855 q 946 820 926 834 q 981 795 965 807 q 1004 781 996 784 "},"É":{"x_min":0,"x_max":634.8125,"ha":642,"o":"m 580 166 q 553 63 567 107 q 531 0 539 19 l 0 0 l 4 29 q 72 49 46 38 q 99 70 98 61 l 198 783 q 179 804 200 791 q 113 825 158 816 l 118 855 l 617 855 l 634 837 q 626 799 631 820 q 614 757 621 778 q 601 717 608 736 q 588 685 594 698 l 559 685 q 562 737 562 716 q 556 770 561 757 q 543 787 552 782 q 523 793 535 793 l 296 793 l 256 498 l 510 498 l 523 479 q 508 459 516 469 q 490 439 499 449 q 472 421 481 429 q 457 406 463 412 q 434 425 446 418 q 403 436 421 432 q 359 442 385 440 q 295 444 333 444 l 248 444 l 202 105 q 204 87 201 95 q 221 73 208 79 q 258 65 233 68 q 323 62 282 62 l 405 62 q 453 65 434 62 q 489 80 473 68 q 520 115 505 92 q 554 178 535 138 l 580 166 m 629 1078 l 320 913 q 307 925 311 919 q 298 944 304 931 l 563 1158 l 579 1147 q 597 1135 588 1141 q 616 1121 607 1128 q 629 1109 625 1114 l 629 1078 "},"ṅ":{"x_min":31.84375,"x_max":659.359375,"ha":686,"o":"m 659 48 q 554 -7 597 12 q 485 -28 511 -28 q 449 -6 462 -28 q 436 51 436 14 q 440 95 436 63 q 451 168 444 126 q 466 258 458 210 q 481 348 474 305 q 492 425 488 391 q 497 474 497 459 q 486 546 497 526 q 445 567 475 567 q 414 556 436 567 q 364 523 392 545 q 306 469 336 501 q 251 393 276 436 q 220 315 232 360 q 197 204 208 269 q 183 100 186 143 q 181 16 180 56 q 159 6 172 12 q 132 -5 146 0 q 105 -17 118 -11 q 84 -28 92 -23 l 62 -6 q 81 90 71 37 q 98 194 90 142 q 114 298 107 247 q 127 392 122 349 q 135 468 132 435 q 139 516 139 500 q 137 541 139 532 q 132 554 135 550 q 124 560 129 559 q 113 562 120 562 q 95 559 107 562 q 71 553 84 556 q 41 544 57 549 l 31 570 q 89 594 60 583 q 143 615 117 606 q 187 629 168 624 q 214 635 206 635 q 229 631 223 635 q 237 620 234 628 q 240 597 239 612 q 241 558 241 582 q 240 538 241 550 q 238 510 239 525 q 236 482 237 495 q 234 460 234 468 q 307 539 270 506 q 380 593 344 572 q 449 625 416 615 q 513 635 483 635 q 551 628 534 635 q 578 608 567 622 q 595 572 589 594 q 601 516 601 549 q 596 457 601 493 q 585 381 592 422 q 570 297 578 340 q 555 214 562 253 q 544 142 548 174 q 540 91 540 110 q 546 59 540 68 q 564 51 552 51 q 600 56 580 51 q 649 73 620 62 l 659 48 m 480 855 q 474 818 480 836 q 458 784 468 799 q 431 759 447 769 q 396 750 415 750 q 364 762 375 750 q 352 797 352 774 q 358 834 352 815 q 375 868 364 853 q 401 894 386 884 q 436 904 417 904 q 468 891 457 904 q 480 855 480 878 "},"³":{"x_min":25.25,"x_max":385.53125,"ha":391,"o":"m 385 819 q 377 778 385 797 q 355 743 369 759 q 322 716 342 728 q 280 696 303 704 q 318 683 301 693 q 348 659 335 673 q 367 625 360 644 q 374 586 374 606 q 359 514 374 548 q 317 454 344 479 q 251 413 290 428 q 165 399 213 399 q 96 413 131 399 q 25 460 61 427 l 43 494 q 77 472 61 481 q 106 457 92 462 q 133 450 120 452 q 160 448 146 448 q 216 457 192 448 q 256 484 240 467 q 281 525 273 502 q 290 575 290 549 q 282 615 290 598 q 263 642 275 631 q 235 657 251 652 q 202 662 219 662 l 194 662 q 189 662 191 662 q 184 661 187 661 q 174 659 181 660 l 171 690 q 223 706 198 697 q 265 729 247 715 q 293 762 282 743 q 304 808 304 781 q 288 852 304 834 q 239 870 272 870 q 191 853 211 870 q 173 808 172 836 q 136 797 157 800 q 97 792 116 793 l 87 804 q 106 841 90 821 q 147 876 122 860 q 202 904 171 893 q 266 915 233 915 q 319 906 297 915 q 357 885 342 898 q 378 855 371 872 q 385 819 385 838 "},"Ṧ":{"x_min":32.421875,"x_max":611.078125,"ha":610,"o":"m 592 812 q 592 803 594 810 q 583 786 589 795 q 569 766 577 776 q 552 745 560 755 q 535 728 543 735 q 522 717 527 720 l 503 721 q 477 752 491 738 q 446 778 463 767 q 410 797 429 790 q 371 804 391 804 q 306 792 334 804 q 258 761 278 780 q 229 719 239 742 q 219 674 219 696 q 223 643 219 659 q 243 609 228 627 q 285 571 258 591 q 358 528 313 551 q 449 475 412 500 q 509 424 486 450 q 542 366 532 397 q 553 298 553 336 q 526 176 553 234 q 455 75 500 119 q 350 5 410 31 q 223 -21 290 -21 q 164 -12 197 -21 q 101 10 131 -3 q 52 42 72 25 q 32 77 32 60 q 40 101 32 86 q 59 133 48 117 q 83 160 71 148 q 105 172 96 172 q 124 155 113 172 q 154 118 136 138 q 200 81 173 98 q 268 65 228 65 q 345 78 309 65 q 407 116 380 92 q 448 173 433 140 q 464 244 464 206 q 455 295 464 271 q 427 342 447 320 q 373 387 407 365 q 287 434 339 410 q 213 479 243 455 q 168 528 184 503 q 144 579 151 553 q 138 629 138 605 q 158 718 138 674 q 217 796 179 762 q 308 853 254 831 q 427 875 361 875 q 517 856 476 875 q 592 812 559 837 m 425 929 l 362 929 l 231 1133 q 246 1151 241 1146 q 262 1164 252 1155 l 408 1025 l 589 1164 q 601 1151 597 1156 q 611 1133 604 1146 l 425 929 m 500 1267 q 494 1230 500 1248 q 478 1196 489 1211 q 451 1171 467 1181 q 416 1162 435 1162 q 384 1174 395 1162 q 372 1209 372 1186 q 378 1246 372 1227 q 395 1280 384 1265 q 421 1306 406 1296 q 456 1316 437 1316 q 489 1303 477 1316 q 500 1267 500 1290 "},"ṗ":{"x_min":-3.4375,"x_max":600,"ha":654,"o":"m 414 546 q 368 529 396 546 q 310 481 340 512 q 249 407 279 450 q 198 312 219 364 l 181 213 q 209 167 191 192 q 251 121 228 143 q 302 86 275 100 q 357 72 329 72 q 422 92 394 72 q 466 148 450 112 q 485 203 478 175 q 496 260 493 232 q 500 314 499 289 q 502 360 502 340 q 494 443 502 408 q 474 500 487 478 q 446 534 461 523 q 414 546 430 546 m 236 590 q 231 533 236 569 q 217 436 227 496 q 299 543 261 504 q 368 603 337 582 q 425 629 400 623 q 471 635 451 635 q 521 621 498 635 q 562 581 544 607 q 589 515 579 554 q 600 425 600 476 q 581 281 600 357 q 519 127 562 205 q 483 72 503 100 q 440 22 463 45 q 389 -13 416 0 q 333 -28 362 -28 q 288 -14 310 -28 q 245 22 266 0 q 204 73 223 44 q 166 130 184 101 l 146 3 q 117 -209 123 -135 q 120 -303 112 -284 q 96 -310 109 -305 q 68 -319 82 -314 q 40 -329 53 -324 q 18 -339 27 -334 l -3 -319 q 6 -258 0 -299 q 23 -161 13 -216 q 44 -39 33 -105 q 68 93 56 25 q 91 228 79 161 q 110 351 102 294 q 124 450 119 407 q 129 515 129 493 q 126 540 129 531 q 118 553 123 549 q 108 559 114 558 q 97 561 103 561 q 79 558 91 561 q 57 552 68 556 q 29 544 44 549 l 19 569 q 77 594 48 582 q 132 615 106 606 q 176 629 157 624 q 204 635 196 635 q 226 625 217 635 q 236 590 236 616 m 465 855 q 459 818 465 836 q 443 784 454 799 q 416 759 432 769 q 381 750 400 750 q 349 762 360 750 q 337 797 337 774 q 343 834 337 815 q 360 868 349 853 q 386 894 371 884 q 421 904 402 904 q 454 891 442 904 q 465 855 465 878 "},"[":{"x_min":1.359375,"x_max":465.265625,"ha":397,"o":"m 465 1067 q 453 1033 461 1050 q 440 1009 445 1017 l 262 1009 l 99 -150 l 273 -150 l 293 -169 q 281 -199 288 -183 q 267 -228 274 -216 l 1 -228 l 185 1085 l 446 1085 l 465 1067 "},"Ǹ":{"x_min":0,"x_max":877.625,"ha":840,"o":"m 873 825 q 806 807 828 819 q 781 783 783 795 l 670 -21 q 644 -16 656 -18 q 623 -8 633 -13 q 606 6 614 -2 q 590 30 598 15 l 252 681 l 169 70 q 186 49 167 62 q 251 29 205 36 l 247 0 l 0 0 l 4 29 q 72 48 50 35 q 96 70 95 61 l 196 783 q 157 811 178 803 q 107 825 136 820 l 111 855 l 231 855 q 255 854 246 855 q 270 848 263 853 q 282 832 276 843 q 298 802 288 821 l 626 175 l 710 783 q 706 793 710 787 q 692 805 702 799 q 666 816 682 810 q 626 825 650 821 l 630 855 l 877 855 l 873 825 m 602 944 q 587 925 592 931 q 570 913 581 919 l 298 1078 l 306 1109 q 323 1121 312 1114 q 346 1135 334 1128 q 370 1147 358 1141 q 389 1158 381 1153 l 602 944 "},"Ḗ":{"x_min":0,"x_max":659.21875,"ha":642,"o":"m 580 166 q 553 63 567 107 q 531 0 539 19 l 0 0 l 4 29 q 72 49 46 38 q 99 70 98 61 l 198 783 q 179 804 200 791 q 113 825 158 816 l 118 855 l 617 855 l 634 837 q 626 799 631 820 q 614 757 621 778 q 601 717 608 736 q 588 685 594 698 l 559 685 q 562 737 562 716 q 556 770 561 757 q 543 787 552 782 q 523 793 535 793 l 296 793 l 256 498 l 510 498 l 523 479 q 508 459 516 469 q 490 439 499 449 q 472 421 481 429 q 457 406 463 412 q 434 425 446 418 q 403 436 421 432 q 359 442 385 440 q 295 444 333 444 l 248 444 l 202 105 q 204 87 201 95 q 221 73 208 79 q 258 65 233 68 q 323 62 282 62 l 405 62 q 453 65 434 62 q 489 80 473 68 q 520 115 505 92 q 554 178 535 138 l 580 166 m 632 1048 q 626 1031 630 1040 q 616 1012 621 1021 q 607 994 611 1002 q 598 980 602 985 l 226 980 l 215 996 q 222 1012 218 1002 q 230 1030 226 1021 q 240 1049 235 1040 q 248 1065 244 1058 l 619 1065 l 632 1048 m 659 1295 l 350 1130 q 337 1142 341 1136 q 328 1161 334 1148 l 593 1375 l 609 1364 q 627 1352 617 1358 q 646 1338 637 1345 q 659 1327 655 1331 l 659 1295 "},"∏":{"x_min":0,"x_max":834.21875,"ha":800,"o":"m 0 0 l 3 29 q 71 49 46 38 q 98 70 96 61 l 197 783 q 178 804 198 791 q 114 825 157 816 l 118 855 l 834 855 l 830 825 q 761 804 786 816 q 734 783 735 793 l 635 70 q 655 50 634 62 q 718 29 676 38 l 715 0 l 440 0 l 443 29 q 511 49 486 38 q 537 70 536 61 l 632 753 q 626 769 633 761 q 604 784 619 777 q 567 795 590 791 q 514 800 545 800 l 413 800 q 362 794 384 799 q 324 784 339 790 q 300 769 308 777 q 290 753 291 761 l 196 70 q 215 50 194 62 q 278 29 236 38 l 275 0 l 0 0 "},"Ḥ":{"x_min":0,"x_max":872.1875,"ha":838,"o":"m 392 825 q 323 804 349 816 q 295 783 297 793 l 254 478 l 631 478 l 673 783 q 653 804 674 791 q 590 825 632 816 l 592 855 l 872 855 l 868 825 q 799 804 825 816 q 772 783 773 793 l 673 70 q 693 50 672 62 q 758 29 714 38 l 754 0 l 476 0 l 480 29 q 548 49 523 38 q 575 70 573 60 l 622 416 l 245 416 l 198 70 q 218 50 196 62 q 282 29 239 38 l 278 0 l 0 0 l 4 29 q 72 49 46 38 q 99 70 98 61 l 198 783 q 179 804 200 791 q 113 825 158 816 l 118 855 l 396 855 l 392 825 m 413 -173 q 407 -210 413 -192 q 390 -244 401 -229 q 364 -269 379 -260 q 329 -279 348 -279 q 296 -266 308 -279 q 285 -231 285 -254 q 291 -194 285 -213 q 308 -160 297 -175 q 334 -134 319 -144 q 368 -125 349 -125 q 401 -137 389 -125 q 413 -173 413 -150 "},"ḥ":{"x_min":58.75,"x_max":657.375,"ha":686,"o":"m 657 48 q 553 -7 594 12 q 483 -28 512 -28 q 449 -6 464 -28 q 434 51 434 14 q 438 95 434 63 q 449 168 442 126 q 463 258 455 210 q 476 348 470 306 q 487 425 483 391 q 492 475 492 459 q 489 518 492 500 q 482 546 487 535 q 468 561 477 557 q 444 566 459 566 q 413 555 435 566 q 362 523 391 544 q 302 470 333 502 q 246 394 271 438 q 215 313 227 362 q 194 204 203 265 q 184 138 187 166 q 179 87 180 109 q 177 48 177 65 q 178 16 176 31 q 156 6 169 12 q 128 -5 142 0 q 102 -17 115 -11 q 81 -28 89 -23 l 58 -6 q 74 83 64 29 q 93 202 83 137 q 115 339 104 267 q 137 482 126 410 q 158 622 148 554 q 175 747 167 690 q 186 848 182 805 q 191 912 191 891 q 188 937 191 928 q 182 951 186 946 q 173 957 178 955 q 163 958 168 958 q 143 955 156 958 q 117 948 131 952 q 85 940 102 944 l 77 966 q 134 990 105 979 q 188 1011 163 1002 q 232 1025 213 1020 q 260 1031 251 1031 q 289 1018 279 1031 q 300 975 300 1006 q 295 921 300 959 q 285 834 291 883 q 270 730 279 786 q 254 622 262 674 q 240 527 247 571 q 229 459 233 484 q 307 542 268 508 q 382 596 346 575 q 452 625 419 616 q 516 635 486 635 q 577 608 559 635 q 596 515 596 581 q 591 456 596 491 q 580 380 587 421 q 567 296 574 339 q 553 213 559 252 q 542 142 546 174 q 538 91 538 110 q 546 59 538 68 q 562 51 554 51 q 601 57 581 51 q 647 73 622 62 l 657 48 m 333 -173 q 327 -210 333 -192 q 310 -244 321 -229 q 284 -269 299 -260 q 249 -279 268 -279 q 216 -266 228 -279 q 205 -231 205 -254 q 211 -194 205 -213 q 228 -160 217 -175 q 254 -134 239 -144 q 288 -125 269 -125 q 321 -137 309 -125 q 333 -173 333 -150 "},"ˋ":{"x_min":135.640625,"x_max":347.25,"ha":212,"o":"m 347 710 q 325 699 333 702 q 305 696 317 696 l 135 957 l 157 982 q 178 984 165 983 q 204 987 190 986 q 231 989 218 988 q 252 990 244 990 l 347 710 "},"ğ":{"x_min":-3.390625,"x_max":596.15625,"ha":618,"o":"m 229 65 q 267 87 243 65 q 320 148 292 110 q 377 236 348 186 q 428 342 406 287 q 434 395 431 367 q 442 456 437 424 q 448 483 444 470 q 457 507 452 496 q 434 525 446 515 q 407 543 422 534 q 376 558 393 552 q 340 564 359 564 q 281 548 309 564 q 230 508 253 533 q 188 450 206 483 q 156 384 169 418 q 135 316 143 350 q 128 257 128 283 q 137 177 128 213 q 158 117 145 142 q 190 78 172 92 q 229 65 208 65 m 596 611 q 559 564 573 592 q 540 487 546 536 q 526 340 531 407 q 519 216 522 274 q 511 105 516 158 q 497 0 507 53 q 454 -131 485 -69 q 381 -239 423 -193 q 287 -312 339 -285 q 183 -339 236 -339 q 122 -330 155 -339 q 61 -309 89 -322 q 15 -283 33 -297 q -3 -257 -3 -269 q 5 -231 -3 -245 q 25 -203 14 -216 q 48 -182 37 -191 q 64 -173 59 -173 q 75 -180 69 -173 q 89 -197 81 -187 q 110 -218 98 -207 q 139 -240 122 -230 q 179 -257 155 -250 q 235 -264 203 -264 q 339 -205 301 -264 q 398 -32 378 -146 q 407 38 404 5 q 414 103 411 72 q 417 165 416 135 q 420 227 419 195 q 369 139 398 184 q 308 57 341 94 q 243 -3 276 20 q 180 -28 210 -28 q 132 -15 158 -28 q 85 25 107 -2 q 48 98 63 54 q 34 206 34 143 q 46 311 34 260 q 83 409 59 362 q 145 496 108 455 q 233 571 183 537 q 274 594 252 583 q 318 615 295 606 q 364 629 341 624 q 408 635 387 635 q 437 630 423 635 q 464 619 451 626 q 490 604 478 612 q 512 589 501 596 q 545 615 528 604 q 580 635 562 626 l 596 611 m 575 905 q 523 813 550 850 q 467 754 495 776 q 410 721 438 731 q 354 712 381 712 q 298 721 324 712 q 250 754 272 731 q 212 814 229 777 q 183 905 195 851 q 202 923 193 917 q 221 935 210 929 q 246 871 230 897 q 281 829 262 845 q 322 806 301 813 q 362 799 343 799 q 408 806 383 799 q 456 829 432 813 q 503 871 480 845 q 546 935 526 897 q 562 924 556 929 q 575 905 569 918 "},"Ở":{"x_min":61,"x_max":847,"ha":796,"o":"m 634 512 q 621 620 634 569 q 585 708 609 670 q 527 767 562 745 q 448 790 493 790 q 355 770 396 790 q 283 716 315 750 q 229 639 251 683 q 192 547 206 595 q 170 452 177 500 q 164 360 164 403 q 177 243 164 297 q 214 151 190 190 q 273 90 239 112 q 349 68 307 68 q 443 89 401 68 q 516 144 485 110 q 570 225 547 179 q 606 320 592 271 q 627 420 621 370 q 634 512 634 470 m 847 961 q 833 903 847 931 q 797 852 820 876 q 743 807 774 828 q 675 768 711 786 q 721 658 706 720 q 736 524 736 595 q 728 427 736 476 q 704 329 720 377 q 665 236 688 281 q 611 152 641 191 q 550 84 582 116 q 481 29 518 52 q 405 -7 445 6 q 319 -21 364 -21 q 205 6 254 -21 q 125 82 157 34 q 76 194 92 130 q 61 328 61 257 q 68 419 61 371 q 91 515 76 467 q 126 608 105 563 q 175 690 147 653 q 236 762 203 728 q 307 820 269 795 q 387 860 344 845 q 478 875 430 875 q 576 855 534 875 q 650 801 619 835 q 714 845 693 819 q 735 910 735 872 q 729 937 735 923 q 703 961 723 951 l 817 1016 q 840 991 834 1005 q 847 961 847 976 m 605 1121 q 588 1072 605 1093 q 548 1035 570 1051 q 509 1004 527 1018 q 491 972 491 989 q 498 955 491 965 q 521 935 505 945 q 501 927 510 929 q 482 925 492 926 q 444 953 455 940 q 433 977 433 966 q 442 997 433 988 q 463 1015 450 1007 q 490 1033 476 1024 q 518 1054 505 1043 q 539 1080 530 1066 q 547 1112 547 1093 q 539 1144 547 1131 q 510 1157 530 1157 q 486 1152 497 1157 q 468 1139 475 1147 q 457 1122 460 1131 q 457 1103 453 1112 q 444 1099 452 1101 q 428 1094 436 1096 q 410 1090 419 1091 q 396 1087 402 1088 l 390 1095 q 404 1132 390 1115 q 439 1162 418 1150 q 484 1182 460 1175 q 528 1189 508 1189 q 586 1169 567 1189 q 605 1121 605 1149 "},"Ṙ":{"x_min":1.046875,"x_max":731.5,"ha":730,"o":"m 731 73 q 679 40 705 55 q 631 14 653 25 q 592 -3 610 2 q 566 -10 575 -10 q 544 -6 555 -10 q 523 7 534 -2 q 501 34 513 16 q 477 79 490 51 l 323 399 q 283 403 304 400 q 245 410 262 406 l 199 70 q 219 50 197 62 q 283 29 240 38 l 279 0 l 1 0 l 5 29 q 73 49 47 38 q 100 70 99 61 l 201 809 q 149 801 175 805 q 96 791 123 796 l 96 832 q 158 848 127 840 q 222 862 188 856 q 295 871 256 868 q 380 875 334 875 q 488 861 439 875 q 571 819 536 847 q 625 751 606 792 q 644 658 644 711 q 632 593 644 632 q 593 517 620 555 q 523 448 566 480 q 416 404 479 416 l 574 124 q 598 91 587 102 q 624 76 609 79 q 662 80 639 74 q 719 99 684 86 l 731 73 m 348 817 l 324 817 q 300 817 312 817 l 251 459 q 290 451 271 454 q 328 448 309 448 q 411 460 371 448 q 480 495 450 472 q 528 554 510 519 q 546 638 546 590 q 527 723 546 688 q 479 778 508 757 q 416 808 451 799 q 348 817 381 817 m 500 1050 q 494 1013 500 1031 q 478 979 489 994 q 451 954 467 964 q 416 945 435 945 q 384 957 395 945 q 372 992 372 969 q 378 1029 372 1010 q 395 1063 384 1048 q 421 1089 406 1079 q 456 1099 437 1099 q 489 1086 477 1099 q 500 1050 500 1073 "},"ª":{"x_min":40.015625,"x_max":381.75,"ha":397,"o":"m 372 430 q 364 413 368 419 q 356 397 360 406 l 51 397 l 40 410 q 47 429 43 421 q 55 447 51 436 l 359 447 l 372 430 m 271 652 q 276 688 273 669 q 282 723 279 706 q 287 753 285 740 q 292 774 290 767 q 265 791 280 783 q 233 800 251 800 q 188 782 208 800 q 153 739 167 764 q 130 685 138 714 q 122 636 122 657 q 136 560 122 588 q 173 532 151 532 q 194 542 182 532 q 220 570 206 553 q 247 609 233 588 q 271 652 260 631 m 381 520 q 330 492 350 501 q 299 484 310 484 q 286 488 292 484 q 275 505 280 492 q 268 539 271 517 q 266 596 266 561 q 243 559 256 579 q 214 523 230 540 q 181 495 198 506 q 149 484 165 484 q 124 490 137 484 q 99 512 110 497 q 79 551 87 527 q 72 608 72 574 q 98 718 72 667 q 177 804 125 768 q 199 817 187 811 q 223 828 210 823 q 247 835 235 832 q 271 839 260 839 q 301 831 286 839 q 327 816 315 824 q 364 839 342 828 l 371 825 q 360 816 364 820 q 353 807 356 812 q 348 794 350 802 q 343 775 345 787 q 332 720 337 748 q 324 668 328 693 q 319 625 321 644 q 318 598 318 607 q 322 540 318 556 q 334 525 326 525 q 351 526 342 525 q 376 534 361 528 l 381 520 "},"T":{"x_min":76.640625,"x_max":758.25,"ha":724,"o":"m 463 0 l 161 0 l 165 29 q 247 55 223 42 q 273 78 271 68 l 373 793 l 189 793 q 172 789 180 793 q 155 773 164 785 q 132 737 145 761 q 101 674 120 714 l 76 687 q 83 727 78 705 q 93 772 87 749 q 105 816 99 795 q 118 855 111 837 l 743 855 l 758 837 q 751 800 755 821 q 741 758 747 780 q 730 715 736 736 q 719 677 725 694 l 691 677 q 687 733 690 711 q 679 769 685 756 q 666 787 674 782 q 644 793 657 793 l 470 793 l 372 78 q 392 55 370 69 q 467 29 413 42 l 463 0 "},"š":{"x_min":-2.625,"x_max":523.59375,"ha":482,"o":"m 473 572 q 446 544 459 556 q 421 522 433 531 q 401 507 410 512 q 387 502 392 502 q 368 514 378 502 q 346 540 358 526 q 317 566 333 554 q 278 578 300 578 q 240 570 259 578 q 207 551 222 563 q 184 520 193 538 q 175 480 175 502 q 197 430 175 457 q 275 379 220 404 q 330 349 302 366 q 380 310 358 332 q 416 260 402 288 q 430 195 430 231 q 405 108 430 149 q 344 36 381 67 q 260 -10 306 6 q 171 -28 214 -28 q 107 -18 139 -28 q 52 4 76 -9 q 12 35 27 18 q -2 66 -2 51 q 5 87 -2 73 q 24 116 13 102 q 47 140 36 129 q 66 150 59 150 q 76 142 71 150 q 89 121 81 133 q 107 93 97 108 q 135 66 118 79 q 173 45 151 53 q 224 37 195 37 q 269 46 248 37 q 306 70 291 55 q 331 106 322 85 q 341 151 341 127 q 330 198 341 177 q 301 237 319 220 q 259 269 283 254 q 210 295 236 283 q 150 329 174 312 q 110 364 125 346 q 89 401 95 381 q 83 442 83 421 q 104 520 83 485 q 158 581 125 556 q 232 621 191 607 q 314 635 274 635 q 372 626 348 635 q 414 607 396 618 q 445 586 432 597 q 473 572 459 576 m 333 712 l 271 712 l 144 950 q 159 968 153 963 q 174 981 164 972 l 316 815 l 501 981 q 513 968 510 973 q 523 950 517 963 l 333 712 "},"":{"x_min":20.34375,"x_max":399.46875,"ha":427,"o":"m 399 408 q 385 376 394 393 q 371 347 377 359 l 56 347 l 46 365 q 57 395 50 378 q 73 425 65 411 l 385 425 l 399 408 m 373 235 q 360 203 368 220 q 345 174 352 186 l 31 174 l 20 192 q 31 222 24 205 q 48 252 39 238 l 359 252 l 373 235 "},"Þ":{"x_min":2.171875,"x_max":636,"ha":654,"o":"m 409 826 q 355 814 377 819 q 321 804 334 809 q 302 794 308 799 q 296 784 297 789 l 282 686 q 377 693 326 693 q 485 677 437 693 q 567 631 533 661 q 618 561 600 602 q 636 468 636 519 q 613 356 636 409 q 551 264 591 304 q 459 202 512 225 q 346 179 407 179 q 294 184 318 179 q 251 201 270 189 l 243 251 q 291 235 268 238 q 335 232 314 232 q 419 248 381 232 q 484 292 457 264 q 525 359 510 321 q 540 441 540 397 q 524 525 540 488 q 481 586 508 561 q 416 624 453 611 q 335 637 379 637 q 305 635 320 637 q 275 630 290 633 l 199 70 q 202 61 198 66 q 217 51 206 57 q 249 40 229 46 q 299 29 268 35 l 295 0 l 2 0 l 6 29 q 74 49 48 38 q 101 70 99 61 l 199 783 q 179 804 200 791 q 116 825 158 816 l 120 855 l 413 855 l 409 826 "},"j":{"x_min":-259.546875,"x_max":311,"ha":341,"o":"m 255 590 q 253 564 255 582 q 248 520 251 545 q 243 466 246 495 q 237 410 240 437 q 231 359 234 382 q 227 320 228 335 q 221 267 224 297 q 215 201 219 236 q 206 126 211 166 q 194 44 201 86 q 161 -88 181 -34 q 117 -179 141 -142 q 67 -240 93 -216 q 12 -287 40 -265 q -27 -311 -5 -301 q -70 -327 -49 -321 q -109 -336 -91 -333 q -140 -339 -127 -339 q -180 -333 -159 -339 q -218 -320 -201 -328 q -248 -303 -236 -311 q -259 -287 -259 -294 q -250 -264 -259 -278 q -229 -237 -241 -250 q -204 -214 -217 -224 q -185 -204 -192 -204 q -172 -213 -180 -204 q -150 -232 -163 -222 q -116 -251 -136 -242 q -66 -260 -96 -260 q 28 -190 -8 -260 q 87 7 66 -120 q 102 103 96 57 q 112 187 108 148 q 119 256 116 225 q 124 305 122 286 q 127 334 125 316 q 131 373 129 352 q 135 416 133 394 q 139 457 137 438 q 142 492 141 477 q 144 515 144 508 q 141 540 144 531 q 136 553 139 549 q 127 559 132 558 q 116 561 122 561 q 98 558 110 561 q 76 552 87 556 q 48 544 63 549 l 38 569 q 95 594 66 582 q 148 615 123 606 q 190 629 172 624 q 217 635 208 635 q 245 626 236 635 q 255 590 255 618 m 311 855 q 304 818 311 836 q 287 784 298 799 q 260 759 276 769 q 226 750 245 750 q 183 797 183 750 q 188 834 183 815 q 205 868 194 853 q 231 894 216 884 q 266 904 246 904 q 299 891 287 904 q 311 855 311 878 "},"1":{"x_min":42.734375,"x_max":457.125,"ha":558,"o":"m 451 0 l 42 0 l 47 35 q 129 49 96 42 q 182 65 162 57 q 210 81 202 73 q 221 96 219 89 l 294 637 q 298 679 298 664 q 293 703 299 694 q 279 710 289 707 q 250 712 269 713 q 202 707 231 711 q 132 694 172 703 l 123 728 q 186 751 149 736 q 262 781 223 765 q 335 815 300 798 q 392 844 370 831 l 411 820 l 312 96 q 317 82 311 90 q 338 66 322 74 q 383 50 354 58 q 457 35 411 42 l 451 0 "},"ɣ":{"x_min":2.4375,"x_max":613,"ha":635,"o":"m 344 -150 q 337 -70 344 -113 q 319 18 330 -28 q 278 -50 295 -21 q 250 -100 262 -79 q 232 -136 238 -121 q 222 -161 225 -150 q 218 -181 219 -172 q 217 -199 217 -190 q 221 -227 217 -215 q 232 -248 225 -239 q 247 -261 239 -256 q 263 -266 255 -266 q 292 -260 277 -266 q 318 -242 306 -255 q 336 -207 329 -229 q 344 -150 344 -185 m 613 583 q 609 551 613 568 q 597 511 606 535 q 572 456 588 488 q 532 380 557 425 q 471 275 507 335 q 388 135 436 215 q 418 12 407 74 q 429 -115 429 -50 q 410 -197 429 -157 q 362 -269 391 -237 q 301 -320 334 -301 q 241 -339 268 -339 q 188 -328 209 -339 q 155 -302 167 -318 q 138 -266 143 -286 q 134 -226 134 -246 q 136 -203 134 -215 q 145 -175 138 -191 q 163 -136 152 -158 q 193 -82 175 -113 q 237 -8 211 -50 q 298 88 263 33 q 259 202 281 145 q 214 313 237 259 q 168 416 191 367 q 125 505 146 465 q 99 549 109 538 q 77 561 88 561 q 60 558 70 561 q 37 552 49 556 q 10 544 24 549 l 2 569 q 56 594 30 582 q 103 615 82 606 q 140 629 124 624 q 163 635 155 635 q 179 630 173 635 q 192 614 186 625 q 205 588 198 604 q 222 548 211 571 q 297 376 258 462 q 367 203 335 291 q 427 312 399 259 q 476 409 455 365 q 509 487 497 453 q 521 536 521 520 q 485 572 521 570 q 457 569 472 573 q 424 557 443 565 l 409 582 q 496 622 459 610 q 557 635 533 635 q 578 633 568 635 q 596 626 589 631 q 608 610 604 620 q 613 583 613 600 "},"ɩ":{"x_min":63.75,"x_max":341.828125,"ha":342,"o":"m 341 123 q 256 12 303 53 q 156 -28 210 -28 q 91 128 65 -28 l 145 440 q 151 495 151 474 q 142 528 151 516 q 114 545 133 540 q 63 554 95 550 l 67 580 q 112 589 88 584 q 161 601 137 594 q 209 616 185 608 q 255 635 233 624 l 276 635 l 202 195 q 193 125 194 150 q 196 88 192 100 q 206 73 199 75 q 222 70 213 70 q 239 73 229 70 q 262 86 249 77 q 290 112 275 96 q 324 155 306 129 l 341 123 "},"Ǜ":{"x_min":113.921875,"x_max":872.234375,"ha":832,"o":"m 868 825 q 801 804 825 816 q 776 783 777 793 l 715 347 q 674 189 703 258 q 601 73 645 120 q 501 3 558 27 q 377 -21 444 -21 q 275 -4 322 -21 q 195 45 229 12 q 144 125 162 78 q 126 236 126 173 q 132 314 126 272 l 198 783 q 178 804 199 791 q 113 825 157 816 l 118 855 l 396 855 l 392 825 q 323 804 349 816 q 295 783 297 793 l 236 345 q 232 306 233 326 q 232 269 232 286 q 243 182 232 221 q 277 116 255 144 q 334 73 300 88 q 412 58 368 58 q 493 79 456 58 q 559 137 531 101 q 606 220 588 173 q 632 318 625 267 l 694 783 q 676 804 695 791 q 613 825 657 816 l 617 855 l 872 855 l 868 825 m 469 1050 q 463 1013 469 1031 q 446 979 456 994 q 419 954 435 964 q 384 945 403 945 q 350 957 362 945 q 338 992 338 969 q 344 1029 338 1010 q 362 1063 351 1048 q 389 1089 373 1079 q 424 1099 405 1099 q 457 1086 445 1099 q 469 1050 469 1073 m 722 1050 q 716 1013 722 1031 q 698 979 709 994 q 671 954 687 964 q 635 945 655 945 q 603 957 614 945 q 591 992 591 969 q 597 1029 591 1010 q 614 1063 603 1048 q 640 1089 625 1079 q 676 1099 656 1099 q 709 1086 697 1099 q 722 1050 722 1073 m 645 1161 q 630 1142 636 1148 q 613 1130 624 1136 l 341 1295 l 349 1327 q 366 1338 356 1331 q 389 1352 377 1345 q 413 1364 402 1358 q 433 1375 425 1371 l 645 1161 "},"ǒ":{"x_min":36,"x_max":569.703125,"ha":586,"o":"m 452 342 q 414 501 452 446 q 306 556 376 556 q 225 527 258 556 q 171 456 192 499 q 142 364 151 414 q 134 270 134 314 q 145 185 134 225 q 176 114 156 144 q 222 66 196 84 q 280 49 249 49 q 336 62 311 49 q 380 100 360 76 q 412 153 399 123 q 435 216 426 184 q 447 281 443 249 q 452 342 452 314 m 550 379 q 539 287 550 333 q 509 196 529 240 q 461 113 490 153 q 394 42 432 73 q 357 15 377 28 q 317 -7 337 2 q 276 -22 297 -17 q 234 -28 255 -28 q 150 -7 187 -28 q 87 46 113 12 q 49 129 62 81 q 36 233 36 177 q 44 327 36 282 q 70 414 52 372 q 119 495 88 456 q 194 569 149 533 q 270 616 229 597 q 354 635 311 635 q 444 616 406 635 q 504 563 481 597 q 539 482 528 529 q 550 379 550 435 m 379 712 l 317 712 l 190 950 q 205 968 200 963 q 221 981 210 972 l 362 815 l 548 981 q 559 968 556 973 q 569 950 563 963 l 379 712 "},"ĉ":{"x_min":37,"x_max":556.8125,"ha":539,"o":"m 551 552 q 521 531 537 542 q 490 510 505 519 q 462 495 475 501 q 440 489 449 489 q 421 500 432 489 q 396 526 411 512 q 363 552 381 540 q 323 564 345 564 q 266 549 292 564 q 219 508 240 534 q 182 450 198 483 q 156 382 166 417 q 140 310 145 346 q 135 242 135 274 q 144 163 135 198 q 172 102 154 127 q 214 64 189 78 q 267 51 238 51 q 299 55 280 51 q 342 70 318 59 q 398 100 367 81 q 465 149 428 119 q 476 134 470 141 q 486 121 482 126 q 391 43 433 73 q 315 -1 349 14 q 253 -22 280 -17 q 201 -28 225 -28 q 149 -16 178 -28 q 96 23 121 -4 q 54 99 71 52 q 37 218 37 147 q 46 312 37 263 q 76 407 55 360 q 132 495 98 453 q 216 571 166 537 q 258 594 235 583 q 306 615 281 606 q 355 629 331 624 q 400 635 379 635 q 453 623 430 635 q 495 597 476 611 q 527 569 513 582 q 551 552 541 556 m 556 726 q 542 706 547 712 q 526 696 537 700 l 385 875 l 200 696 q 189 706 193 700 q 177 726 184 712 l 370 978 l 432 978 l 556 726 "},"Ɔ":{"x_min":47,"x_max":665,"ha":686,"o":"m 665 531 q 652 409 665 472 q 616 283 640 345 q 558 166 593 221 q 478 69 523 111 q 377 3 433 27 q 257 -21 322 -21 q 168 -5 207 -21 q 101 35 129 9 q 60 93 74 60 q 47 162 47 126 q 54 227 47 193 q 88 294 61 260 q 126 311 103 301 q 174 332 150 321 q 220 351 199 342 q 254 363 242 359 l 262 330 q 180 266 205 300 q 155 186 155 232 q 165 138 155 161 q 195 95 176 114 q 239 65 213 77 q 295 54 265 54 q 378 75 340 54 q 447 133 416 97 q 500 214 477 168 q 538 310 523 261 q 561 408 554 359 q 569 497 569 456 q 550 623 569 568 q 501 717 531 679 q 434 776 472 756 q 357 797 396 797 q 320 793 341 797 q 273 779 299 789 q 213 750 246 768 q 139 703 180 731 q 133 709 136 704 q 128 718 130 713 q 124 727 126 723 q 121 733 122 731 q 207 807 168 779 q 282 849 247 834 q 348 869 317 864 q 411 875 380 875 q 508 851 462 875 q 588 784 554 828 q 644 676 623 740 q 665 531 665 613 "},"ī":{"x_min":47.875,"x_max":436.765625,"ha":342,"o":"m 309 48 q 251 15 277 29 q 205 -8 226 1 q 167 -23 184 -18 q 135 -28 150 -28 q 98 -6 112 -28 q 85 51 85 14 q 90 109 85 71 q 102 192 95 146 q 119 288 110 238 q 135 383 127 338 q 147 463 142 428 q 153 515 153 499 q 150 540 153 531 q 145 553 148 549 q 136 559 142 558 q 125 560 131 560 q 108 558 119 560 q 85 552 97 556 q 57 544 72 549 l 47 569 q 104 594 76 582 q 157 615 132 606 q 200 629 181 624 q 227 635 218 635 q 254 622 246 635 q 262 577 262 609 q 256 519 262 558 q 243 433 251 481 q 226 334 235 386 q 209 235 217 282 q 196 149 201 187 q 191 91 191 110 q 195 60 191 70 q 211 51 199 51 q 251 56 232 51 q 298 73 271 61 l 309 48 m 436 853 q 430 836 434 845 q 420 817 425 826 q 411 799 415 807 q 402 785 406 790 l 111 785 l 101 801 q 107 817 103 807 q 116 835 111 826 q 125 854 120 845 q 134 870 130 863 l 423 870 l 436 853 "},"Ď":{"x_min":0.546875,"x_max":731,"ha":758,"o":"m 731 505 q 719 384 731 445 q 684 268 707 324 q 627 163 661 212 q 548 77 593 113 q 448 20 503 41 q 326 0 392 0 l 0 0 l 4 29 q 73 49 47 38 q 100 70 98 61 l 201 809 l 97 797 l 97 840 q 251 867 175 859 q 397 875 328 875 q 539 848 477 875 q 643 773 600 822 q 708 657 686 725 q 731 505 731 589 m 342 817 l 321 817 q 301 817 311 817 l 203 94 q 205 77 201 84 q 221 65 210 70 q 254 59 233 61 q 309 57 275 57 q 401 75 359 57 q 478 127 443 94 q 539 203 513 160 q 584 295 566 246 q 611 394 602 343 q 621 493 621 445 q 602 625 621 565 q 549 727 584 684 q 461 794 513 770 q 342 817 410 817 m 482 929 l 420 929 l 289 1133 q 304 1151 299 1146 q 320 1164 309 1155 l 465 1025 l 647 1164 q 658 1151 655 1156 q 668 1133 662 1146 l 482 929 "},"&":{"x_min":42.59375,"x_max":864.0625,"ha":807,"o":"m 349 766 q 348 685 344 727 q 364 597 353 642 q 440 649 410 624 q 490 697 471 674 q 519 743 510 721 q 533 787 529 765 q 536 835 537 812 q 526 874 535 857 q 501 901 518 891 q 459 911 484 911 q 416 898 435 911 q 383 865 397 885 q 361 819 370 845 q 349 766 353 792 m 302 57 q 403 74 356 57 q 488 120 449 91 q 435 197 461 155 q 383 284 408 238 q 336 379 358 330 q 298 478 314 427 q 234 422 261 449 q 189 368 207 395 q 160 315 170 342 q 145 259 149 288 q 150 174 139 212 q 183 110 161 137 q 237 70 206 84 q 302 57 268 57 m 864 507 q 829 472 846 486 q 796 447 812 458 q 772 458 786 453 q 745 466 758 462 q 718 472 731 470 q 694 475 704 474 q 701 451 699 462 q 704 425 704 439 q 704 394 705 411 q 699 354 702 377 q 668 255 693 307 q 604 154 643 203 q 635 117 620 135 q 665 86 651 100 q 712 57 686 64 q 775 59 738 50 l 776 30 q 681 -8 718 4 q 630 -21 644 -21 q 589 4 617 -21 q 524 74 560 29 q 407 5 471 31 q 273 -21 344 -21 q 170 -3 216 -21 q 94 48 124 14 q 50 132 63 82 q 46 245 37 182 q 69 323 50 284 q 118 400 88 362 q 189 474 148 437 q 279 544 229 510 q 264 638 267 592 q 266 728 260 684 q 296 829 274 783 q 350 911 318 876 q 422 964 383 945 q 502 984 461 984 q 566 969 541 984 q 605 930 592 954 q 623 875 619 906 q 622 810 627 844 q 559 679 611 740 q 429 568 507 618 l 382 538 q 419 448 398 493 q 464 360 440 404 q 515 276 489 317 q 568 201 541 236 q 603 264 590 231 q 622 326 617 296 q 622 386 627 358 q 605 434 617 414 q 577 466 594 454 q 543 478 561 478 l 531 497 q 554 516 540 506 q 581 532 568 526 l 852 532 l 864 507 "},"ṻ":{"x_min":26.203125,"x_max":661.078125,"ha":693,"o":"m 661 45 q 567 -9 606 9 q 503 -28 529 -28 q 478 -16 490 -28 q 456 22 465 -4 q 443 93 447 50 q 445 201 440 137 q 386 109 417 151 q 322 36 355 66 q 253 -11 288 5 q 181 -28 218 -28 q 150 -17 168 -28 q 118 14 133 -6 q 92 66 103 35 q 82 138 82 97 q 85 190 82 159 q 94 257 89 221 q 107 332 100 293 q 119 406 113 371 q 128 470 124 441 q 132 515 132 499 q 129 540 132 531 q 124 553 127 549 q 115 559 120 558 q 104 561 110 561 q 86 558 98 561 q 63 552 75 556 q 34 544 49 549 l 26 569 q 83 594 54 582 q 136 615 112 606 q 179 629 161 624 q 206 635 198 635 q 233 622 226 635 q 240 577 240 609 q 235 526 240 558 q 225 456 231 494 q 213 377 219 418 q 200 299 206 337 q 190 229 194 261 q 186 177 186 197 q 199 83 186 112 q 238 54 213 54 q 274 67 252 54 q 325 109 297 80 q 387 187 354 139 q 457 303 421 234 q 467 361 462 332 q 477 418 472 391 q 484 471 481 446 q 488 515 488 495 q 486 540 488 531 q 481 553 484 549 q 473 559 477 558 q 462 561 469 561 q 446 558 456 561 q 424 552 435 556 q 399 544 412 549 l 388 569 q 445 594 417 582 q 496 615 473 606 q 537 629 519 624 q 563 635 555 635 q 588 622 582 635 q 595 577 595 609 q 590 526 595 558 q 580 457 586 495 q 567 378 574 419 q 553 299 559 337 q 543 227 547 260 q 539 171 539 194 q 547 80 539 110 q 573 51 556 51 q 609 55 591 51 q 651 69 627 59 l 661 45 m 629 853 q 622 836 627 845 q 613 817 618 826 q 603 799 608 807 q 595 785 598 790 l 223 785 l 212 801 q 219 817 214 807 q 227 835 223 826 q 236 854 231 845 q 245 870 241 863 l 616 870 l 629 853 m 389 1106 q 382 1069 389 1087 q 366 1035 376 1050 q 339 1010 355 1019 q 304 1000 323 1000 q 270 1013 282 1000 q 258 1048 258 1025 q 264 1085 258 1066 q 282 1119 270 1104 q 309 1145 293 1135 q 344 1154 325 1154 q 377 1142 365 1154 q 389 1106 389 1129 m 642 1106 q 635 1069 642 1087 q 618 1035 629 1050 q 591 1010 607 1019 q 555 1000 575 1000 q 522 1013 534 1000 q 511 1048 511 1025 q 517 1085 511 1066 q 534 1119 523 1104 q 560 1145 545 1135 q 595 1154 576 1154 q 629 1142 616 1154 q 642 1106 642 1129 "},"G":{"x_min":51,"x_max":721.359375,"ha":728,"o":"m 717 366 q 663 340 680 355 q 644 310 646 326 q 637 262 642 292 q 629 202 633 233 q 622 144 625 172 q 616 104 618 117 q 526 38 565 63 q 454 0 486 13 q 395 -16 422 -12 q 340 -21 368 -21 q 232 1 284 -21 q 139 68 180 24 q 75 175 99 111 q 51 320 51 239 q 66 450 51 385 q 108 576 81 516 q 174 687 136 636 q 258 775 212 738 q 386 847 316 820 q 538 875 457 875 q 582 870 558 875 q 629 856 606 865 q 675 834 653 847 q 715 805 698 821 q 712 790 720 802 q 692 765 705 779 q 666 737 680 751 q 643 716 652 724 l 624 720 q 587 756 606 741 q 544 778 567 770 q 495 790 521 787 q 439 794 469 794 q 376 776 413 794 q 302 728 339 758 q 240 656 268 701 q 193 559 213 611 q 163 452 174 506 q 153 350 153 397 q 175 224 153 277 q 231 136 197 171 q 308 83 266 100 q 393 67 351 67 q 465 77 430 67 q 524 106 500 88 l 551 310 q 549 324 552 317 q 530 337 545 330 q 485 351 515 344 q 404 366 455 357 l 408 395 l 721 395 l 717 366 "},"`":{"x_min":171.59375,"x_max":383.203125,"ha":411,"o":"m 383 710 q 361 699 369 702 q 341 696 353 696 l 171 957 l 193 982 q 213 984 201 983 q 240 987 226 986 q 267 989 254 988 q 288 990 280 990 l 383 710 "},"ỗ":{"x_min":36,"x_max":630.0625,"ha":586,"o":"m 452 342 q 414 501 452 446 q 306 556 376 556 q 225 527 258 556 q 171 456 192 499 q 142 364 151 414 q 134 270 134 314 q 145 185 134 225 q 176 114 156 144 q 222 66 196 84 q 280 49 249 49 q 336 62 311 49 q 380 100 360 76 q 412 153 399 123 q 435 216 426 184 q 447 281 443 249 q 452 342 452 314 m 550 379 q 539 287 550 333 q 509 196 529 240 q 461 113 490 153 q 394 42 432 73 q 357 15 377 28 q 317 -7 337 2 q 276 -22 297 -17 q 234 -28 255 -28 q 150 -7 187 -28 q 87 46 113 12 q 49 129 62 81 q 36 233 36 177 q 44 327 36 282 q 70 414 52 372 q 119 495 88 456 q 194 569 149 533 q 270 616 229 597 q 354 635 311 635 q 444 616 406 635 q 504 563 481 597 q 539 482 528 529 q 550 379 550 435 m 539 726 q 525 706 530 712 q 509 696 520 700 l 368 875 l 183 696 q 172 706 177 700 q 160 726 167 712 l 353 978 l 415 978 l 539 726 m 630 1231 q 597 1177 615 1204 q 558 1129 579 1150 q 513 1094 537 1107 q 463 1081 489 1081 q 424 1092 441 1081 q 391 1118 406 1104 q 359 1143 375 1132 q 325 1155 343 1155 q 277 1133 301 1155 q 224 1074 252 1112 l 195 1088 q 227 1142 209 1115 q 266 1190 245 1169 q 312 1225 288 1211 q 362 1238 337 1238 q 403 1226 385 1238 q 438 1201 422 1215 q 469 1175 455 1187 q 497 1164 483 1164 q 547 1185 521 1164 q 599 1245 573 1207 l 630 1231 "},"Ễ":{"x_min":0,"x_max":675.5,"ha":642,"o":"m 580 166 q 553 63 567 107 q 531 0 539 19 l 0 0 l 4 29 q 72 49 46 38 q 99 70 98 61 l 198 783 q 179 804 200 791 q 113 825 158 816 l 118 855 l 617 855 l 634 837 q 626 799 631 820 q 614 757 621 778 q 601 717 608 736 q 588 685 594 698 l 559 685 q 562 737 562 716 q 556 770 561 757 q 543 787 552 782 q 523 793 535 793 l 296 793 l 256 498 l 510 498 l 523 479 q 508 459 516 469 q 490 439 499 449 q 472 421 481 429 q 457 406 463 412 q 434 425 446 418 q 403 436 421 432 q 359 442 385 440 q 295 444 333 444 l 248 444 l 202 105 q 204 87 201 95 q 221 73 208 79 q 258 65 233 68 q 323 62 282 62 l 405 62 q 453 65 434 62 q 489 80 473 68 q 520 115 505 92 q 554 178 535 138 l 580 166 m 596 943 q 581 923 586 930 q 565 913 576 917 l 419 1052 l 239 913 q 228 923 233 917 q 217 943 223 930 l 403 1148 l 465 1148 l 596 943 m 675 1375 q 643 1321 661 1348 q 604 1272 625 1293 q 559 1237 583 1251 q 508 1224 535 1224 q 469 1236 486 1224 q 436 1261 452 1247 q 404 1286 420 1275 q 370 1298 388 1298 q 322 1277 347 1298 q 269 1218 298 1256 l 240 1232 q 272 1286 255 1259 q 312 1334 290 1313 q 358 1369 333 1356 q 408 1382 382 1382 q 449 1370 430 1382 q 484 1345 467 1359 q 514 1320 500 1331 q 543 1308 529 1308 q 593 1329 566 1308 q 644 1389 619 1351 l 675 1375 "},"ằ":{"x_min":36,"x_max":610.359375,"ha":625,"o":"m 408 292 q 418 355 412 322 q 430 419 424 388 q 440 475 435 449 q 447 515 444 500 q 425 532 437 523 q 398 548 412 540 q 369 559 385 555 q 338 564 354 564 q 279 548 307 564 q 228 508 252 533 q 186 450 205 483 q 155 384 168 418 q 135 316 142 350 q 128 257 128 283 q 135 177 128 213 q 155 117 142 142 q 186 78 168 92 q 224 65 203 65 q 263 85 240 65 q 312 139 287 106 q 363 212 338 172 q 408 292 388 253 m 610 45 q 515 -10 551 7 q 459 -28 478 -28 q 435 -19 447 -28 q 415 12 424 -11 q 402 77 407 35 q 397 184 397 118 q 353 116 379 153 q 299 46 328 79 q 239 -6 270 14 q 180 -28 208 -28 q 132 -15 157 -28 q 85 25 107 -2 q 50 98 64 54 q 36 206 36 143 q 48 311 36 260 q 86 409 61 362 q 147 497 111 456 q 231 571 183 538 q 271 594 249 583 q 317 615 293 606 q 363 629 340 624 q 407 635 386 635 q 435 631 421 635 q 461 621 449 627 q 486 608 474 615 q 507 594 497 601 q 541 615 523 605 q 577 635 558 626 l 590 611 q 571 594 579 601 q 558 576 564 586 q 548 552 552 567 q 539 515 544 538 q 520 415 529 466 q 504 318 511 364 q 494 238 498 273 q 491 189 491 204 q 493 124 491 150 q 499 81 495 97 q 509 58 503 65 q 524 51 516 51 q 556 55 537 51 q 602 70 575 58 l 610 45 m 599 905 q 546 813 574 850 q 491 754 519 776 q 434 721 462 731 q 378 712 405 712 q 322 721 348 712 q 274 754 296 731 q 236 814 252 777 q 207 905 219 851 q 225 923 217 917 q 244 935 234 929 q 270 871 254 897 q 305 829 286 845 q 345 806 324 813 q 386 799 366 799 q 432 806 407 799 q 480 829 456 813 q 527 871 504 845 q 570 935 550 897 q 586 924 579 929 q 599 905 592 918 m 450 927 q 428 916 436 919 q 408 913 420 913 l 238 1174 l 260 1199 q 281 1201 268 1200 q 307 1204 293 1203 q 334 1206 321 1205 q 356 1207 347 1207 l 450 927 "},"ŏ":{"x_min":36,"x_max":569.03125,"ha":586,"o":"m 452 342 q 414 501 452 446 q 306 556 376 556 q 225 527 258 556 q 171 456 192 499 q 142 364 151 414 q 134 270 134 314 q 145 185 134 225 q 176 114 156 144 q 222 66 196 84 q 280 49 249 49 q 336 62 311 49 q 380 100 360 76 q 412 153 399 123 q 435 216 426 184 q 447 281 443 249 q 452 342 452 314 m 550 379 q 539 287 550 333 q 509 196 529 240 q 461 113 490 153 q 394 42 432 73 q 357 15 377 28 q 317 -7 337 2 q 276 -22 297 -17 q 234 -28 255 -28 q 150 -7 187 -28 q 87 46 113 12 q 49 129 62 81 q 36 233 36 177 q 44 327 36 282 q 70 414 52 372 q 119 495 88 456 q 194 569 149 533 q 270 616 229 597 q 354 635 311 635 q 444 616 406 635 q 504 563 481 597 q 539 482 528 529 q 550 379 550 435 m 569 905 q 516 813 543 850 q 460 754 489 776 q 403 721 432 731 q 347 712 375 712 q 291 721 318 712 q 244 754 265 731 q 205 814 222 777 q 177 905 188 851 q 195 923 186 917 q 214 935 204 929 q 239 871 223 897 q 275 829 255 845 q 315 806 294 813 q 356 799 336 799 q 401 806 377 799 q 450 829 425 813 q 497 871 474 845 q 539 935 520 897 q 555 924 549 929 q 569 905 562 918 "},"Ả":{"x_min":-23.734375,"x_max":726.375,"ha":778,"o":"m 251 301 l 154 75 q 165 45 145 54 q 237 29 185 35 l 233 0 l -23 0 l -19 29 q 48 46 23 37 q 83 75 74 55 l 413 833 q 434 849 422 841 q 459 866 446 858 q 484 881 472 874 q 505 893 496 888 l 651 75 q 656 58 653 65 q 668 45 660 51 q 690 35 676 40 q 726 29 704 31 l 723 0 l 462 0 l 465 29 q 534 43 513 32 q 551 75 555 53 l 512 301 l 251 301 m 501 363 l 437 731 l 278 363 l 501 363 m 603 1121 q 585 1072 603 1093 q 546 1035 567 1051 q 506 1004 524 1018 q 489 972 489 989 q 495 955 489 965 q 518 935 502 945 q 499 927 508 929 q 479 925 489 926 q 442 953 453 940 q 431 977 431 966 q 439 997 431 988 q 460 1015 448 1007 q 488 1033 473 1024 q 515 1054 503 1043 q 536 1080 528 1066 q 545 1112 545 1093 q 536 1144 545 1131 q 507 1157 527 1157 q 483 1152 495 1157 q 465 1139 472 1147 q 454 1122 457 1131 q 454 1103 451 1112 q 442 1099 449 1101 q 425 1094 434 1096 q 408 1090 416 1091 q 393 1087 399 1088 l 388 1095 q 401 1132 387 1115 q 437 1162 416 1150 q 482 1182 458 1175 q 525 1189 506 1189 q 583 1169 564 1189 q 603 1121 603 1149 "},"ý":{"x_min":-122.859375,"x_max":617.1875,"ha":628,"o":"m 606 583 q 593 524 606 560 q 552 427 580 487 q 478 276 524 366 q 366 55 432 185 q 276 -105 321 -33 q 183 -230 231 -178 q 84 -310 136 -282 q -24 -339 33 -339 q -62 -335 -44 -339 q -94 -327 -80 -332 q -115 -315 -107 -322 q -122 -304 -122 -309 q -116 -281 -122 -296 q -100 -251 -109 -266 q -79 -221 -90 -235 q -59 -203 -68 -208 q -30 -220 -42 -214 q -6 -229 -17 -226 q 14 -232 3 -232 q 37 -233 25 -233 q 145 -179 92 -233 q 254 -29 197 -126 q 238 59 248 9 q 216 160 228 108 q 191 265 204 213 q 166 364 178 318 q 141 447 153 410 q 119 505 129 484 q 92 550 103 540 q 70 561 81 561 q 53 558 64 561 q 31 552 41 556 q 3 544 18 549 l -4 569 q 50 594 24 582 q 96 615 75 606 q 132 629 117 624 q 156 635 148 635 q 173 630 166 635 q 187 615 180 625 q 200 588 193 605 q 214 548 206 571 q 243 462 227 512 q 273 354 258 412 q 304 235 289 297 q 331 112 319 173 q 375 199 353 154 q 417 287 397 243 q 455 370 438 330 q 485 443 472 409 q 506 500 499 476 q 514 536 514 524 q 478 572 514 570 q 416 557 456 574 l 404 582 q 489 622 452 610 q 550 635 526 635 q 571 633 561 635 q 589 626 582 631 q 601 610 597 620 q 606 583 606 600 m 617 932 l 376 696 q 360 703 365 698 q 345 719 355 708 l 530 990 q 547 984 537 987 q 569 978 558 981 q 591 970 581 974 q 607 962 601 966 l 617 932 "},"º":{"x_min":40.53125,"x_max":352,"ha":345,"o":"m 299 682 q 278 767 299 737 q 221 798 258 798 q 176 782 194 798 q 146 744 158 767 q 130 693 135 720 q 126 643 126 666 q 132 597 126 619 q 149 559 138 576 q 174 533 160 543 q 205 524 189 524 q 248 540 230 524 q 277 580 266 556 q 293 632 288 605 q 299 682 299 660 m 318 430 q 310 413 314 419 q 303 397 306 406 l 52 397 l 40 410 q 47 429 43 421 q 56 447 52 436 l 306 447 l 318 430 m 352 701 q 346 652 352 677 q 330 603 341 626 q 304 559 320 580 q 268 521 288 538 q 226 494 248 505 q 181 484 203 484 q 136 494 155 484 q 102 523 116 505 q 82 568 89 542 q 75 624 75 593 q 93 721 75 675 q 160 804 111 766 q 201 828 178 818 q 245 839 224 839 q 295 828 275 839 q 328 800 315 818 q 346 757 341 782 q 352 701 352 731 "},"∞":{"x_min":47.609375,"x_max":773.046875,"ha":814,"o":"m 198 289 q 233 292 217 289 q 266 304 249 295 q 305 329 284 313 q 358 373 326 345 q 336 411 348 392 q 307 445 324 430 q 269 471 290 461 q 220 480 247 480 q 173 471 191 480 q 143 447 155 461 q 127 418 132 434 q 120 389 122 402 q 121 359 118 377 q 133 326 124 342 q 159 300 143 311 q 198 289 174 289 m 623 491 q 586 486 603 491 q 551 472 569 482 q 511 446 533 463 q 460 406 489 430 q 482 368 470 387 q 512 334 495 349 q 551 309 529 319 q 600 300 573 300 q 647 309 628 300 q 677 332 666 318 q 694 361 689 346 q 701 390 699 377 q 699 420 703 403 q 687 453 696 438 q 661 480 677 469 q 623 491 646 491 m 275 569 q 330 558 305 569 q 375 530 355 547 q 411 491 396 513 q 439 448 427 469 q 510 505 478 482 q 568 542 541 528 q 619 562 595 556 q 666 569 642 569 q 710 557 689 569 q 746 525 731 545 q 768 478 761 505 q 771 418 775 450 q 744 343 765 380 q 692 277 723 306 q 622 231 661 249 q 545 213 584 213 q 489 223 514 213 q 443 251 463 234 q 406 290 422 268 q 378 334 390 312 q 303 272 334 296 q 246 235 271 248 q 200 217 221 222 q 153 213 178 213 q 109 224 130 213 q 73 256 88 236 q 51 303 59 276 q 49 363 44 331 q 75 438 54 401 q 128 504 96 475 q 197 551 159 533 q 275 569 236 569 "},"ź":{"x_min":-2.71875,"x_max":571.75,"ha":526,"o":"m 526 599 q 425 480 470 539 q 338 359 381 420 q 252 234 296 298 q 155 102 208 170 q 173 108 157 103 q 210 113 189 113 q 247 106 224 113 q 297 91 269 99 q 352 76 324 83 q 405 70 380 70 q 420 71 411 70 q 439 80 429 73 q 461 103 449 88 q 487 143 474 118 l 511 130 q 478 60 492 88 q 447 16 463 32 q 408 -7 430 0 q 354 -14 387 -14 q 290 -6 320 -14 q 234 9 261 0 q 184 24 208 17 q 139 32 160 32 q 116 28 128 32 q 90 18 105 25 q 56 1 75 11 q 12 -21 37 -8 l -2 1 q 67 91 31 42 q 140 192 103 140 q 212 295 177 244 q 280 394 248 347 q 339 478 311 440 q 385 539 366 515 l 181 539 q 154 535 165 539 q 133 523 143 532 q 116 497 124 514 q 98 451 108 480 l 71 456 q 97 561 84 517 q 115 635 109 605 q 143 625 128 631 q 181 620 158 620 l 512 620 l 526 599 m 571 932 l 330 696 q 315 703 320 698 q 300 719 309 708 l 484 990 q 502 984 491 987 q 524 978 512 981 q 545 970 535 974 q 561 962 556 966 l 571 932 "},"Ư":{"x_min":113.921875,"x_max":976.6875,"ha":926,"o":"m 976 961 q 960 897 976 927 q 916 841 944 867 q 851 793 888 815 q 772 754 814 771 l 715 347 q 674 189 703 258 q 601 73 645 120 q 501 3 558 27 q 377 -21 444 -21 q 275 -4 322 -21 q 195 45 229 12 q 144 125 162 78 q 126 236 126 173 q 132 314 126 272 l 198 783 q 178 804 199 791 q 113 825 157 816 l 118 855 l 396 855 l 392 825 q 323 804 349 816 q 295 783 297 793 l 236 345 q 232 306 233 326 q 232 269 232 286 q 243 182 232 221 q 277 116 255 144 q 334 73 300 88 q 412 58 368 58 q 493 79 456 58 q 559 137 531 101 q 606 220 588 173 q 632 318 625 267 l 694 783 q 676 804 695 791 q 613 825 657 816 l 617 855 l 849 855 q 864 911 864 878 q 858 937 864 923 q 833 961 853 951 l 947 1016 q 970 991 964 1005 q 976 961 976 976 "},"͟":{"x_min":-483.578125,"x_max":347.25,"ha":0,"o":"m 347 -422 q 340 -439 345 -430 q 331 -458 336 -449 q 321 -476 326 -468 q 313 -491 316 -485 l -472 -491 l -483 -474 q -476 -458 -480 -468 q -468 -440 -472 -449 q -459 -421 -463 -430 q -450 -406 -454 -412 l 334 -406 l 347 -422 "},"ń":{"x_min":31.84375,"x_max":659.359375,"ha":686,"o":"m 659 48 q 554 -7 597 12 q 485 -28 511 -28 q 449 -6 462 -28 q 436 51 436 14 q 440 95 436 63 q 451 168 444 126 q 466 258 458 210 q 481 348 474 305 q 492 425 488 391 q 497 474 497 459 q 486 546 497 526 q 445 567 475 567 q 414 556 436 567 q 364 523 392 545 q 306 469 336 501 q 251 393 276 436 q 220 315 232 360 q 197 204 208 269 q 183 100 186 143 q 181 16 180 56 q 159 6 172 12 q 132 -5 146 0 q 105 -17 118 -11 q 84 -28 92 -23 l 62 -6 q 81 90 71 37 q 98 194 90 142 q 114 298 107 247 q 127 392 122 349 q 135 468 132 435 q 139 516 139 500 q 137 541 139 532 q 132 554 135 550 q 124 560 129 559 q 113 562 120 562 q 95 559 107 562 q 71 553 84 556 q 41 544 57 549 l 31 570 q 89 594 60 583 q 143 615 117 606 q 187 629 168 624 q 214 635 206 635 q 229 631 223 635 q 237 620 234 628 q 240 597 239 612 q 241 558 241 582 q 240 538 241 550 q 238 510 239 525 q 236 482 237 495 q 234 460 234 468 q 307 539 270 506 q 380 593 344 572 q 449 625 416 615 q 513 635 483 635 q 551 628 534 635 q 578 608 567 622 q 595 572 589 594 q 601 516 601 549 q 596 457 601 493 q 585 381 592 422 q 570 297 578 340 q 555 214 562 253 q 544 142 548 174 q 540 91 540 110 q 546 59 540 68 q 564 51 552 51 q 600 56 580 51 q 649 73 620 62 l 659 48 m 630 932 l 389 696 q 373 703 378 698 q 358 719 368 708 l 543 990 q 560 984 550 987 q 582 978 571 981 q 604 970 594 974 q 619 962 614 966 l 630 932 "},"Ḵ":{"x_min":0,"x_max":787.421875,"ha":747,"o":"m 392 825 q 323 804 349 816 q 295 783 297 793 l 248 439 l 559 765 q 581 793 576 783 q 582 811 587 804 q 561 820 577 817 q 523 825 546 823 l 527 855 l 787 855 l 783 825 q 746 820 762 823 q 717 812 730 817 q 693 801 704 808 q 672 783 682 794 l 343 455 l 580 105 q 600 83 590 91 q 627 75 611 76 q 664 80 642 74 q 718 99 686 86 l 730 74 q 679 39 704 55 q 633 12 655 23 q 592 -4 611 1 q 560 -10 573 -10 q 542 -8 550 -10 q 526 -1 533 -6 q 511 12 518 3 q 495 34 503 20 l 247 432 l 198 70 q 218 50 196 62 q 282 29 239 38 l 278 0 l 0 0 l 4 29 q 72 49 46 38 q 99 70 98 61 l 198 783 q 179 804 200 791 q 113 825 158 816 l 118 855 l 396 855 l 392 825 m 541 -159 q 535 -176 539 -167 q 525 -195 531 -186 q 516 -213 520 -205 q 507 -228 511 -222 l 135 -228 l 124 -211 q 131 -195 127 -205 q 140 -177 135 -186 q 149 -158 144 -167 q 158 -143 153 -149 l 529 -143 l 541 -159 "},"":{"x_min":-23.734375,"x_max":767.0625,"ha":823,"o":"m -18 29 q 48 46 23 38 q 83 73 73 54 l 422 814 q 442 840 429 829 q 472 858 456 851 q 502 869 487 865 q 524 876 516 873 l 687 73 q 709 45 691 56 q 767 29 727 34 l 763 0 l 493 0 l 497 29 q 566 42 545 32 q 581 73 586 52 l 453 722 l 154 73 q 166 45 145 54 q 237 29 188 35 l 233 0 l -23 0 l -18 29 "},"ḹ":{"x_min":24.625,"x_max":505.28125,"ha":326,"o":"m 295 48 q 236 13 261 27 q 190 -10 211 -1 q 152 -23 169 -19 q 117 -28 134 -28 q 83 -7 98 -28 q 69 52 69 12 q 74 110 69 69 q 87 207 79 151 q 105 331 95 263 q 127 469 116 398 q 148 609 137 539 q 166 737 158 678 q 179 843 174 797 q 185 912 185 889 q 181 937 185 928 q 174 951 178 946 q 163 957 169 955 q 150 958 156 958 q 133 955 145 958 q 109 948 121 952 q 80 940 96 944 l 70 966 q 127 990 98 979 q 180 1011 156 1002 q 224 1025 205 1020 q 252 1031 243 1031 q 282 1018 271 1031 q 294 975 294 1006 q 288 902 294 948 q 275 795 283 855 q 256 666 267 735 q 235 526 245 597 q 213 388 224 456 q 194 261 202 320 q 181 158 186 203 q 176 91 176 114 q 182 59 176 68 q 199 51 188 51 q 235 56 215 51 q 286 73 256 62 l 295 48 m 152 -173 q 146 -210 152 -192 q 130 -244 141 -229 q 103 -269 119 -260 q 68 -279 87 -279 q 36 -266 47 -279 q 24 -231 24 -254 q 30 -194 24 -213 q 47 -160 36 -175 q 73 -134 58 -144 q 108 -125 89 -125 q 141 -137 129 -125 q 152 -173 152 -150 m 505 1265 q 498 1248 503 1257 q 489 1229 494 1238 q 479 1211 484 1220 q 471 1197 474 1202 l 99 1197 l 88 1213 q 94 1229 90 1220 q 103 1247 99 1238 q 112 1266 107 1257 q 121 1282 117 1275 l 492 1282 l 505 1265 "},"¤":{"x_min":71.21875,"x_max":510.703125,"ha":558,"o":"m 308 522 q 264 513 284 522 q 227 488 243 504 q 202 452 212 473 q 189 407 191 431 q 191 365 186 385 q 208 329 196 344 q 237 303 219 313 q 276 294 254 294 q 320 303 300 294 q 356 327 340 312 q 381 364 371 343 q 394 408 391 384 q 392 449 397 429 q 376 486 387 469 q 348 512 365 502 q 308 522 330 522 m 417 190 l 364 260 q 267 230 320 230 q 218 238 240 230 q 179 262 196 246 l 104 191 l 84 192 q 77 212 81 201 q 71 234 73 223 l 146 306 q 130 407 123 352 q 145 465 134 439 q 172 512 156 492 l 113 588 l 118 610 q 141 619 127 616 q 164 627 154 622 l 219 554 q 269 579 244 571 q 317 587 295 587 q 364 577 343 587 q 403 553 386 568 l 477 625 l 498 625 l 510 580 l 436 509 q 451 460 447 486 q 452 407 455 433 q 409 304 444 348 l 468 227 l 466 204 l 417 190 "},"Ǣ":{"x_min":-23.734375,"x_max":986.140625,"ha":993,"o":"m 555 777 q 550 788 556 784 q 537 791 545 792 q 520 784 529 790 q 505 765 511 778 l 373 498 l 518 498 l 555 777 m 935 166 q 909 63 922 107 q 887 0 895 19 l 360 0 l 365 29 q 433 49 408 38 q 459 70 458 61 l 510 444 l 345 444 l 161 75 q 167 45 150 55 q 233 29 185 35 l 230 0 l -23 0 l -19 29 q 47 46 22 37 q 82 75 72 55 l 430 768 q 430 788 436 780 q 410 802 425 795 q 373 814 396 808 q 320 825 349 819 l 324 855 l 971 855 l 986 837 q 977 799 982 820 q 966 757 972 778 q 953 717 960 736 q 942 685 947 698 l 914 685 q 915 737 916 716 q 910 770 914 757 q 897 787 906 782 q 877 793 889 793 l 655 793 l 615 498 l 862 498 l 876 479 q 861 459 869 469 q 843 438 852 448 q 826 420 834 429 q 809 406 817 412 q 792 423 801 416 q 769 435 782 430 q 737 441 756 439 q 694 444 719 444 l 608 444 l 560 105 q 562 87 559 95 q 579 73 566 79 q 616 65 592 68 q 680 62 640 62 l 758 62 q 807 65 786 62 q 844 80 827 68 q 876 115 861 92 q 910 178 892 138 l 935 166 m 900 1048 q 894 1031 898 1040 q 884 1012 889 1021 q 874 994 879 1002 q 866 980 870 985 l 494 980 l 483 996 q 490 1012 486 1002 q 498 1030 494 1021 q 507 1049 503 1040 q 516 1065 512 1058 l 887 1065 l 900 1048 "},"Ɨ":{"x_min":13.5625,"x_max":409.640625,"ha":389,"o":"m 354 416 l 259 416 l 210 70 q 230 50 209 62 q 295 29 251 38 l 291 0 l 13 0 l 18 29 q 86 49 61 38 q 113 70 111 60 l 160 416 l 66 416 l 55 433 l 64 454 q 74 478 69 467 l 169 478 l 210 783 q 191 804 212 791 q 127 825 170 816 l 132 855 l 409 855 l 405 825 q 337 804 362 816 q 309 783 311 793 l 267 478 l 361 478 l 374 462 l 354 416 "},"Ĝ":{"x_min":51,"x_max":721.359375,"ha":728,"o":"m 717 366 q 663 340 680 355 q 644 310 646 326 q 637 262 642 292 q 629 202 633 233 q 622 144 625 172 q 616 104 618 117 q 526 38 565 63 q 454 0 486 13 q 395 -16 422 -12 q 340 -21 368 -21 q 232 1 284 -21 q 139 68 180 24 q 75 175 99 111 q 51 320 51 239 q 66 450 51 385 q 108 576 81 516 q 174 687 136 636 q 258 775 212 738 q 386 847 316 820 q 538 875 457 875 q 582 870 558 875 q 629 856 606 865 q 675 834 653 847 q 715 805 698 821 q 712 790 720 802 q 692 765 705 779 q 666 737 680 751 q 643 716 652 724 l 624 720 q 587 756 606 741 q 544 778 567 770 q 495 790 521 787 q 439 794 469 794 q 376 776 413 794 q 302 728 339 758 q 240 656 268 701 q 193 559 213 611 q 163 452 174 506 q 153 350 153 397 q 175 224 153 277 q 231 136 197 171 q 308 83 266 100 q 393 67 351 67 q 465 77 430 67 q 524 106 500 88 l 551 310 q 549 324 552 317 q 530 337 545 330 q 485 351 515 344 q 404 366 455 357 l 408 395 l 721 395 l 717 366 m 683 943 q 669 923 674 930 q 653 913 663 917 l 507 1052 l 326 913 q 316 923 320 917 q 304 943 311 930 l 491 1148 l 553 1148 l 683 943 "},"p":{"x_min":-3.4375,"x_max":600,"ha":654,"o":"m 414 546 q 368 529 396 546 q 310 481 340 512 q 249 407 279 450 q 198 312 219 364 l 181 213 q 209 167 191 192 q 251 121 228 143 q 302 86 275 100 q 357 72 329 72 q 422 92 394 72 q 466 148 450 112 q 485 203 478 175 q 496 260 493 232 q 500 314 499 289 q 502 360 502 340 q 494 443 502 408 q 474 500 487 478 q 446 534 461 523 q 414 546 430 546 m 236 590 q 231 533 236 569 q 217 436 227 496 q 299 543 261 504 q 368 603 337 582 q 425 629 400 623 q 471 635 451 635 q 521 621 498 635 q 562 581 544 607 q 589 515 579 554 q 600 425 600 476 q 581 281 600 357 q 519 127 562 205 q 483 72 503 100 q 440 22 463 45 q 389 -13 416 0 q 333 -28 362 -28 q 288 -14 310 -28 q 245 22 266 0 q 204 73 223 44 q 166 130 184 101 l 146 3 q 117 -209 123 -135 q 120 -303 112 -284 q 96 -310 109 -305 q 68 -319 82 -314 q 40 -329 53 -324 q 18 -339 27 -334 l -3 -319 q 6 -258 0 -299 q 23 -161 13 -216 q 44 -39 33 -105 q 68 93 56 25 q 91 228 79 161 q 110 351 102 294 q 124 450 119 407 q 129 515 129 493 q 126 540 129 531 q 118 553 123 549 q 108 559 114 558 q 97 561 103 561 q 79 558 91 561 q 57 552 68 556 q 29 544 44 549 l 19 569 q 77 594 48 582 q 132 615 106 606 q 176 629 157 624 q 204 635 196 635 q 226 625 217 635 q 236 590 236 616 "},"S":{"x_min":32.421875,"x_max":593.375,"ha":610,"o":"m 592 812 q 592 803 594 810 q 583 786 589 795 q 569 766 577 776 q 552 745 560 755 q 535 728 543 735 q 522 717 527 720 l 503 721 q 477 752 491 738 q 446 778 463 767 q 410 797 429 790 q 371 804 391 804 q 306 792 334 804 q 258 761 278 780 q 229 719 239 742 q 219 674 219 696 q 223 643 219 659 q 243 609 228 627 q 285 571 258 591 q 358 528 313 551 q 449 475 412 500 q 509 424 486 450 q 542 366 532 397 q 553 298 553 336 q 526 176 553 234 q 455 75 500 119 q 350 5 410 31 q 223 -21 290 -21 q 164 -12 197 -21 q 101 10 131 -3 q 52 42 72 25 q 32 77 32 60 q 40 101 32 86 q 59 133 48 117 q 83 160 71 148 q 105 172 96 172 q 124 155 113 172 q 154 118 136 138 q 200 81 173 98 q 268 65 228 65 q 345 78 309 65 q 407 116 380 92 q 448 173 433 140 q 464 244 464 206 q 455 295 464 271 q 427 342 447 320 q 373 387 407 365 q 287 434 339 410 q 213 479 243 455 q 168 528 184 503 q 144 579 151 553 q 138 629 138 605 q 158 718 138 674 q 217 796 179 762 q 308 853 254 831 q 427 875 361 875 q 517 856 476 875 q 592 812 559 837 "},"ễ":{"x_min":43,"x_max":633.453125,"ha":546,"o":"m 265 530 q 222 481 243 510 q 183 418 201 452 q 155 347 166 384 q 141 274 143 310 q 280 337 229 308 q 358 390 332 365 q 392 438 385 415 q 400 485 400 461 q 394 521 400 506 q 380 546 389 536 q 360 559 371 555 q 337 564 349 564 q 306 556 327 564 q 265 530 285 548 m 509 515 q 504 475 509 496 q 486 431 500 454 q 447 385 472 409 q 382 334 423 360 q 282 280 341 308 q 142 221 223 252 q 157 152 146 183 q 185 98 169 120 q 220 63 201 76 q 257 51 238 51 q 291 54 271 51 q 339 67 312 57 q 399 97 365 77 q 473 149 432 116 q 486 136 481 145 q 494 121 492 126 q 396 43 439 73 q 320 -1 353 14 q 259 -22 286 -17 q 208 -28 232 -28 q 157 -15 186 -28 q 103 24 128 -2 q 60 96 78 52 q 43 205 43 140 q 55 309 43 258 q 92 408 68 360 q 152 497 116 455 q 232 573 187 539 q 267 597 247 586 q 308 617 287 608 q 351 630 329 625 q 395 635 373 635 q 445 624 424 635 q 481 596 466 613 q 502 558 495 580 q 509 515 509 537 m 543 726 q 528 706 533 712 q 512 696 523 700 l 371 875 l 186 696 q 175 706 180 700 q 164 726 170 712 l 356 978 l 419 978 l 543 726 m 633 1231 q 601 1177 619 1204 q 562 1129 583 1150 q 517 1094 541 1107 q 466 1081 493 1081 q 427 1092 444 1081 q 394 1118 410 1104 q 362 1143 378 1132 q 328 1155 346 1155 q 280 1133 305 1155 q 227 1074 256 1112 l 198 1088 q 230 1142 212 1115 q 270 1190 248 1169 q 316 1225 291 1211 q 366 1238 340 1238 q 407 1226 388 1238 q 442 1201 425 1215 q 472 1175 458 1187 q 501 1164 486 1164 q 551 1185 524 1164 q 602 1245 577 1207 l 633 1231 "},"/":{"x_min":-75.28125,"x_max":640.25,"ha":555,"o":"m 29 -193 q 11 -203 22 -198 q -11 -212 0 -208 q -35 -221 -23 -217 q -55 -228 -47 -225 l -75 -211 l 537 1050 q 577 1070 556 1062 q 619 1084 599 1078 l 640 1069 l 29 -193 "},"ⱡ":{"x_min":20.546875,"x_max":425.28125,"ha":418,"o":"m 390 434 l 257 434 q 240 323 248 376 q 225 224 231 269 q 216 144 219 179 q 213 91 213 110 q 219 59 213 68 q 236 51 225 51 q 272 56 252 51 q 324 73 293 62 l 332 48 q 273 13 298 27 q 227 -10 248 -1 q 189 -23 206 -19 q 154 -28 171 -28 q 120 -7 135 -28 q 106 52 106 12 q 110 105 106 68 q 122 193 114 142 q 139 306 129 244 q 158 434 148 368 l 33 434 l 20 451 q 30 473 24 461 q 41 496 35 486 l 168 496 q 173 532 170 514 q 179 569 176 550 l 47 569 l 34 586 q 43 608 38 596 q 55 631 49 621 l 188 631 q 201 722 195 678 q 212 802 207 765 q 219 867 216 839 q 222 913 222 896 q 218 937 222 928 q 211 951 215 946 q 200 957 206 955 q 187 958 193 958 q 170 955 182 958 q 146 948 158 952 q 117 940 133 944 l 107 966 q 164 991 135 979 q 217 1011 193 1002 q 261 1025 242 1020 q 289 1031 280 1031 q 319 1018 308 1031 q 331 975 331 1006 q 327 918 331 953 q 318 838 324 883 q 304 740 312 793 q 288 631 297 687 l 412 631 l 425 615 l 404 569 l 278 569 l 266 496 l 398 496 l 411 480 l 390 434 "},"Ọ":{"x_min":61,"x_max":736,"ha":757,"o":"m 634 512 q 621 620 634 569 q 585 708 609 670 q 527 767 562 745 q 448 790 493 790 q 355 770 396 790 q 283 716 315 750 q 229 639 251 683 q 192 547 206 595 q 170 452 177 500 q 164 360 164 403 q 177 243 164 297 q 214 151 190 190 q 273 90 239 112 q 349 68 307 68 q 443 89 401 68 q 516 144 485 110 q 570 225 547 179 q 606 320 592 271 q 627 420 621 370 q 634 512 634 470 m 736 525 q 728 427 736 476 q 704 329 720 377 q 665 236 688 281 q 611 152 641 191 q 550 84 582 116 q 481 29 518 52 q 405 -7 445 6 q 319 -21 364 -21 q 205 6 254 -21 q 125 82 157 34 q 76 194 92 130 q 61 328 61 257 q 68 419 61 371 q 91 515 76 467 q 126 608 105 563 q 174 690 147 653 q 236 762 203 728 q 306 820 269 795 q 387 860 344 845 q 478 875 430 875 q 593 847 544 875 q 673 771 642 819 q 720 659 705 723 q 736 525 736 596 m 387 -173 q 382 -210 387 -192 q 365 -244 376 -229 q 338 -269 354 -260 q 304 -279 323 -279 q 271 -266 283 -279 q 259 -231 259 -254 q 266 -194 259 -213 q 283 -160 272 -175 q 309 -134 294 -144 q 343 -125 324 -125 q 376 -137 364 -125 q 387 -173 387 -150 "},"̨":{"x_min":-486,"x_max":-245.609375,"ha":0,"o":"m -257 -204 q -292 -240 -273 -222 q -330 -271 -310 -257 q -368 -293 -349 -285 q -405 -302 -388 -302 q -435 -298 -420 -302 q -461 -285 -449 -294 q -479 -262 -472 -276 q -486 -224 -486 -247 q -466 -150 -486 -185 q -417 -84 -447 -115 q -351 -28 -388 -53 q -279 17 -314 -2 l -245 12 q -301 -29 -273 -5 q -353 -80 -330 -53 q -390 -136 -376 -107 q -405 -194 -405 -165 q -392 -221 -405 -212 q -359 -231 -379 -231 q -321 -218 -344 -231 q -270 -180 -299 -206 l -257 -204 "},"̋":{"x_min":-347.25,"x_max":47.46875,"ha":0,"o":"m -315 696 q -331 701 -325 697 q -347 713 -337 705 l -203 990 q -187 986 -196 988 q -168 982 -178 985 q -150 978 -159 980 q -137 973 -142 975 l -126 945 l -315 696 m -141 696 q -158 701 -151 697 q -173 713 -164 705 l -29 990 q -13 986 -23 988 q 4 982 -4 985 q 22 978 14 980 q 36 973 31 975 l 47 945 l -141 696 "},"y":{"x_min":-122.859375,"x_max":606,"ha":628,"o":"m 606 583 q 593 524 606 560 q 552 427 580 487 q 478 276 524 366 q 366 55 432 185 q 276 -105 321 -33 q 183 -230 231 -178 q 84 -310 136 -282 q -24 -339 33 -339 q -62 -335 -44 -339 q -94 -327 -80 -332 q -115 -315 -107 -322 q -122 -304 -122 -309 q -116 -281 -122 -296 q -100 -251 -109 -266 q -79 -221 -90 -235 q -59 -203 -68 -208 q -30 -220 -42 -214 q -6 -229 -17 -226 q 14 -232 3 -232 q 37 -233 25 -233 q 145 -179 92 -233 q 254 -29 197 -126 q 238 59 248 9 q 216 160 228 108 q 191 265 204 213 q 166 364 178 318 q 141 447 153 410 q 119 505 129 484 q 92 550 103 540 q 70 561 81 561 q 53 558 64 561 q 31 552 41 556 q 3 544 18 549 l -4 569 q 50 594 24 582 q 96 615 75 606 q 132 629 117 624 q 156 635 148 635 q 173 630 166 635 q 187 615 180 625 q 200 588 193 605 q 214 548 206 571 q 243 462 227 512 q 273 354 258 412 q 304 235 289 297 q 331 112 319 173 q 375 199 353 154 q 417 287 397 243 q 455 370 438 330 q 485 443 472 409 q 506 500 499 476 q 514 536 514 524 q 478 572 514 570 q 416 557 456 574 l 404 582 q 489 622 452 610 q 550 635 526 635 q 571 633 561 635 q 589 626 582 631 q 601 610 597 620 q 606 583 606 600 "},"Π":{"x_min":0,"x_max":834.21875,"ha":800,"o":"m 0 0 l 3 29 q 71 49 46 38 q 98 70 96 61 l 197 783 q 178 804 198 791 q 114 825 157 816 l 118 855 l 834 855 l 830 825 q 761 804 786 816 q 734 783 735 793 l 635 70 q 655 50 634 62 q 718 29 676 38 l 715 0 l 440 0 l 443 29 q 511 49 486 38 q 537 70 536 61 l 632 753 q 626 769 633 761 q 604 784 619 777 q 567 795 590 791 q 514 800 545 800 l 413 800 q 362 794 384 799 q 324 784 339 790 q 300 769 308 777 q 290 753 291 761 l 196 70 q 215 50 194 62 q 278 29 236 38 l 275 0 l 0 0 "},"ˊ":{"x_min":135.640625,"x_max":406.9375,"ha":271,"o":"m 406 932 l 166 696 q 150 703 155 698 q 135 719 145 708 l 320 990 q 337 984 326 987 q 359 978 347 981 q 381 970 370 974 q 396 962 391 966 l 406 932 "},"Ḧ":{"x_min":0,"x_max":872.1875,"ha":838,"o":"m 392 825 q 323 804 349 816 q 295 783 297 793 l 254 478 l 631 478 l 673 783 q 653 804 674 791 q 590 825 632 816 l 592 855 l 872 855 l 868 825 q 799 804 825 816 q 772 783 773 793 l 673 70 q 693 50 672 62 q 758 29 714 38 l 754 0 l 476 0 l 480 29 q 548 49 523 38 q 575 70 573 60 l 622 416 l 245 416 l 198 70 q 218 50 196 62 q 282 29 239 38 l 278 0 l 0 0 l 4 29 q 72 49 46 38 q 99 70 98 61 l 198 783 q 179 804 200 791 q 113 825 158 816 l 118 855 l 396 855 l 392 825 m 455 1050 q 449 1013 455 1031 q 432 979 443 994 q 405 954 421 964 q 370 945 389 945 q 336 957 349 945 q 324 992 324 969 q 331 1029 324 1010 q 348 1063 337 1048 q 375 1089 359 1079 q 410 1099 391 1099 q 443 1086 431 1099 q 455 1050 455 1073 m 708 1050 q 702 1013 708 1031 q 685 979 696 994 q 658 954 674 964 q 622 945 642 945 q 589 957 601 945 q 577 992 577 969 q 583 1029 577 1010 q 600 1063 589 1048 q 627 1089 611 1079 q 662 1099 642 1099 q 696 1086 683 1099 q 708 1050 708 1073 "},"–":{"x_min":29.15625,"x_max":516.125,"ha":558,"o":"m 516 366 q 502 335 510 351 q 489 308 495 319 l 41 308 l 29 324 q 42 354 34 339 q 58 383 50 369 l 502 383 l 516 366 "},"ë":{"x_min":43,"x_max":558.65625,"ha":546,"o":"m 265 530 q 222 481 243 510 q 183 418 201 452 q 155 347 166 384 q 141 274 143 310 q 280 337 229 308 q 358 390 332 365 q 392 438 385 415 q 400 485 400 461 q 394 521 400 506 q 380 546 389 536 q 360 559 371 555 q 337 564 349 564 q 306 556 327 564 q 265 530 285 548 m 509 515 q 504 475 509 496 q 486 431 500 454 q 447 385 472 409 q 382 334 423 360 q 282 280 341 308 q 142 221 223 252 q 157 152 146 183 q 185 98 169 120 q 220 63 201 76 q 257 51 238 51 q 291 54 271 51 q 339 67 312 57 q 399 97 365 77 q 473 149 432 116 q 486 136 481 145 q 494 121 492 126 q 396 43 439 73 q 320 -1 353 14 q 259 -22 286 -17 q 208 -28 232 -28 q 157 -15 186 -28 q 103 24 128 -2 q 60 96 78 52 q 43 205 43 140 q 55 309 43 258 q 92 408 68 360 q 152 497 116 455 q 232 573 187 539 q 267 597 247 586 q 308 617 287 608 q 351 630 329 625 q 395 635 373 635 q 445 624 424 635 q 481 596 466 613 q 502 558 495 580 q 509 515 509 537 m 305 855 q 299 818 305 836 q 282 784 293 799 q 255 759 271 769 q 220 750 239 750 q 186 762 199 750 q 174 797 174 774 q 181 834 174 815 q 198 868 187 853 q 225 894 209 884 q 260 904 241 904 q 293 891 281 904 q 305 855 305 878 m 558 855 q 552 818 558 836 q 535 784 546 799 q 508 759 524 769 q 472 750 492 750 q 439 762 451 750 q 427 797 427 774 q 433 834 427 815 q 450 868 439 853 q 477 894 461 884 q 512 904 492 904 q 546 891 533 904 q 558 855 558 878 "},"ƒ":{"x_min":-269.25,"x_max":612.4375,"ha":379,"o":"m 612 951 q 581 929 598 941 q 550 907 565 917 q 521 891 534 897 q 499 885 507 885 q 482 896 491 885 q 462 923 473 908 q 437 949 451 937 q 404 961 423 961 q 358 945 378 961 q 324 905 339 930 q 298 846 309 879 q 280 778 287 813 q 267 708 272 743 q 259 645 263 674 l 255 614 l 429 614 l 442 594 q 424 573 436 585 q 400 552 413 562 q 375 533 387 541 q 356 521 363 524 q 346 536 353 530 q 326 545 339 542 q 296 550 314 549 q 252 552 278 552 l 248 552 q 239 462 244 509 q 229 365 234 414 q 219 269 224 316 q 208 179 213 221 q 198 102 203 136 q 189 45 193 67 q 158 -73 175 -24 q 119 -159 141 -122 q 68 -226 96 -196 q 1 -287 39 -256 q -38 -312 -16 -303 q -81 -328 -60 -322 q -120 -336 -101 -334 q -149 -339 -138 -339 q -190 -333 -169 -339 q -228 -320 -211 -328 q -257 -303 -246 -311 q -269 -287 -269 -294 q -260 -264 -269 -278 q -240 -237 -251 -250 q -216 -214 -228 -224 q -197 -204 -204 -204 q -183 -213 -191 -204 q -161 -232 -174 -222 q -127 -251 -147 -242 q -78 -260 -107 -260 q -23 -241 -48 -260 q 21 -189 1 -223 q 58 -105 42 -154 q 87 7 74 -55 q 100 81 94 39 q 111 171 105 123 q 122 270 117 219 q 131 370 126 320 q 140 466 136 420 q 148 552 144 513 l 46 552 l 35 573 l 104 614 l 155 614 q 172 718 163 668 q 198 813 181 768 q 241 897 215 858 q 311 967 268 936 q 346 992 329 980 q 381 1012 363 1003 q 417 1026 398 1021 q 457 1031 436 1031 q 511 1019 486 1031 q 554 994 535 1008 q 587 967 573 980 q 612 951 602 954 "},"ȟ":{"x_min":58.75,"x_max":667.375,"ha":686,"o":"m 657 48 q 553 -7 594 12 q 483 -28 512 -28 q 449 -6 464 -28 q 434 51 434 14 q 438 95 434 63 q 449 168 442 126 q 463 258 455 210 q 476 348 470 306 q 487 425 483 391 q 492 475 492 459 q 489 518 492 500 q 482 546 487 535 q 468 561 477 557 q 444 566 459 566 q 413 555 435 566 q 362 523 391 544 q 302 470 333 502 q 246 394 271 438 q 215 313 227 362 q 194 204 203 265 q 184 138 187 166 q 179 87 180 109 q 177 48 177 65 q 178 16 176 31 q 156 6 169 12 q 128 -5 142 0 q 102 -17 115 -11 q 81 -28 89 -23 l 58 -6 q 74 83 64 29 q 93 202 83 137 q 115 339 104 267 q 137 482 126 410 q 158 622 148 554 q 175 747 167 690 q 186 848 182 805 q 191 912 191 891 q 188 937 191 928 q 182 951 186 946 q 173 957 178 955 q 163 958 168 958 q 143 955 156 958 q 117 948 131 952 q 85 940 102 944 l 77 966 q 134 990 105 979 q 188 1011 163 1002 q 232 1025 213 1020 q 260 1031 251 1031 q 289 1018 279 1031 q 300 975 300 1006 q 295 921 300 959 q 285 834 291 883 q 270 730 279 786 q 254 622 262 674 q 240 527 247 571 q 229 459 233 484 q 307 542 268 508 q 382 596 346 575 q 452 625 419 616 q 516 635 486 635 q 577 608 559 635 q 596 515 596 581 q 591 456 596 491 q 580 380 587 421 q 567 296 574 339 q 553 213 559 252 q 542 142 546 174 q 538 91 538 110 q 546 59 538 68 q 562 51 554 51 q 601 57 581 51 q 647 73 622 62 l 657 48 m 481 1105 l 419 1105 l 288 1309 q 303 1327 297 1322 q 318 1340 308 1332 l 464 1202 l 645 1340 q 657 1327 653 1332 q 667 1309 661 1322 l 481 1105 "},"Ẏ":{"x_min":69.171875,"x_max":816.578125,"ha":777,"o":"m 497 0 l 194 0 l 198 29 q 281 55 257 42 q 307 77 305 68 l 347 373 q 315 480 335 423 q 272 593 295 537 q 224 699 248 649 q 176 782 199 749 q 161 799 169 793 q 142 808 153 805 q 115 811 131 811 q 75 808 99 810 l 69 837 q 109 846 87 841 q 153 855 131 851 q 194 862 174 859 q 226 865 213 865 q 261 838 244 865 q 292 785 276 816 q 325 720 308 755 q 357 649 341 685 q 385 577 372 612 q 408 512 398 543 q 423 459 418 481 l 633 780 q 629 809 644 799 q 568 825 614 819 l 572 855 l 816 855 l 812 825 q 745 807 769 817 q 710 781 721 798 l 445 367 l 405 78 q 409 68 404 73 q 424 55 413 62 q 454 42 436 48 q 501 29 473 35 l 497 0 m 547 1050 q 541 1013 547 1031 q 524 979 535 994 q 498 954 514 964 q 463 945 482 945 q 430 957 442 945 q 419 992 419 969 q 425 1029 419 1010 q 442 1063 431 1048 q 468 1089 453 1079 q 503 1099 484 1099 q 535 1086 524 1099 q 547 1050 547 1073 "},"J":{"x_min":-179.046875,"x_max":426.609375,"ha":392,"o":"m 422 825 q 353 804 379 816 q 326 783 327 793 l 237 139 q 208 4 226 58 q 169 -86 191 -49 q 121 -148 147 -123 q 67 -195 95 -173 q 28 -221 49 -209 q -14 -241 6 -232 q -54 -253 -35 -249 q -84 -258 -72 -258 q -120 -251 -103 -258 q -150 -236 -137 -245 q -171 -219 -163 -228 q -179 -204 -179 -210 q -169 -185 -179 -197 q -146 -163 -159 -174 q -119 -144 -132 -152 q -96 -136 -105 -136 q -83 -142 -90 -136 q -66 -155 -75 -148 q -42 -168 -56 -162 q -6 -175 -27 -175 q 29 -163 9 -175 q 68 -122 48 -151 q 105 -40 88 -92 q 133 90 122 10 l 229 783 q 225 792 229 787 q 208 802 221 797 q 173 813 196 808 q 113 825 150 819 l 116 855 l 426 855 l 422 825 "},"ŷ":{"x_min":-122.859375,"x_max":606,"ha":628,"o":"m 606 583 q 593 524 606 560 q 552 427 580 487 q 478 276 524 366 q 366 55 432 185 q 276 -105 321 -33 q 183 -230 231 -178 q 84 -310 136 -282 q -24 -339 33 -339 q -62 -335 -44 -339 q -94 -327 -80 -332 q -115 -315 -107 -322 q -122 -304 -122 -309 q -116 -281 -122 -296 q -100 -251 -109 -266 q -79 -221 -90 -235 q -59 -203 -68 -208 q -30 -220 -42 -214 q -6 -229 -17 -226 q 14 -232 3 -232 q 37 -233 25 -233 q 145 -179 92 -233 q 254 -29 197 -126 q 238 59 248 9 q 216 160 228 108 q 191 265 204 213 q 166 364 178 318 q 141 447 153 410 q 119 505 129 484 q 92 550 103 540 q 70 561 81 561 q 53 558 64 561 q 31 552 41 556 q 3 544 18 549 l -4 569 q 50 594 24 582 q 96 615 75 606 q 132 629 117 624 q 156 635 148 635 q 173 630 166 635 q 187 615 180 625 q 200 588 193 605 q 214 548 206 571 q 243 462 227 512 q 273 354 258 412 q 304 235 289 297 q 331 112 319 173 q 375 199 353 154 q 417 287 397 243 q 455 370 438 330 q 485 443 472 409 q 506 500 499 476 q 514 536 514 524 q 478 572 514 570 q 416 557 456 574 l 404 582 q 489 622 452 610 q 550 635 526 635 q 571 633 561 635 q 589 626 582 631 q 601 610 597 620 q 606 583 606 600 m 580 726 q 565 706 571 712 q 550 696 560 700 l 408 875 l 223 696 q 212 706 217 700 q 201 726 208 712 l 394 978 l 456 978 l 580 726 "},"ŕ":{"x_min":26.84375,"x_max":545.96875,"ha":493,"o":"m 520 576 q 502 550 512 565 q 483 519 492 534 q 464 495 473 505 q 448 485 455 485 q 426 492 435 485 q 409 508 417 499 q 394 524 402 517 q 376 532 386 532 q 335 507 358 532 q 288 444 311 483 q 243 357 265 405 q 207 259 222 308 q 194 203 200 234 q 184 139 188 172 q 177 75 179 107 q 177 16 175 43 q 154 6 168 12 q 127 -5 141 0 q 100 -17 113 -11 q 79 -28 87 -23 l 57 -6 q 77 92 67 41 q 95 195 86 144 q 110 295 103 246 q 122 386 117 344 q 130 461 127 428 q 134 515 134 495 q 131 540 134 531 q 125 553 129 549 q 116 559 121 558 q 106 561 111 561 q 87 558 99 561 q 64 552 76 556 q 36 544 51 549 l 26 569 q 84 594 55 582 q 138 615 112 606 q 182 629 163 624 q 209 635 201 635 q 224 631 218 635 q 232 619 229 628 q 235 596 234 611 q 236 557 236 580 q 233 531 236 549 q 229 493 231 514 q 223 452 226 472 q 218 419 220 432 q 279 528 250 486 q 335 594 309 570 q 385 626 361 618 q 430 635 408 635 q 452 628 442 635 q 472 611 462 621 q 494 592 482 602 q 520 576 505 582 m 545 932 l 305 696 q 289 703 294 698 q 274 719 284 708 l 459 990 q 476 984 465 987 q 498 978 486 981 q 520 970 510 974 q 535 962 530 966 l 545 932 "},"ṝ":{"x_min":26.84375,"x_max":547.328125,"ha":493,"o":"m 520 576 q 502 550 512 565 q 483 519 492 534 q 464 495 473 505 q 448 485 455 485 q 426 492 435 485 q 409 508 417 499 q 394 524 402 517 q 376 532 386 532 q 335 507 358 532 q 288 444 311 483 q 243 357 265 405 q 207 259 222 308 q 194 203 200 234 q 184 139 188 172 q 177 75 179 107 q 177 16 175 43 q 154 6 168 12 q 127 -5 141 0 q 100 -17 113 -11 q 79 -28 87 -23 l 57 -6 q 77 92 67 41 q 95 195 86 144 q 110 295 103 246 q 122 386 117 344 q 130 461 127 428 q 134 515 134 495 q 131 540 134 531 q 125 553 129 549 q 116 559 121 558 q 106 561 111 561 q 87 558 99 561 q 64 552 76 556 q 36 544 51 549 l 26 569 q 84 594 55 582 q 138 615 112 606 q 182 629 163 624 q 209 635 201 635 q 224 631 218 635 q 232 619 229 628 q 235 596 234 611 q 236 557 236 580 q 233 531 236 549 q 229 493 231 514 q 223 452 226 472 q 218 419 220 432 q 279 528 250 486 q 335 594 309 570 q 385 626 361 618 q 430 635 408 635 q 452 628 442 635 q 472 611 462 621 q 494 592 482 602 q 520 576 505 582 m 156 -173 q 150 -210 156 -192 q 134 -244 145 -229 q 107 -269 123 -260 q 72 -279 92 -279 q 40 -266 51 -279 q 28 -231 28 -254 q 34 -194 28 -213 q 51 -160 40 -175 q 78 -134 62 -144 q 112 -125 93 -125 q 145 -137 133 -125 q 156 -173 156 -150 m 547 853 q 540 836 545 845 q 531 817 536 826 q 521 799 526 807 q 513 785 516 790 l 141 785 l 130 801 q 136 817 132 807 q 145 835 141 826 q 154 854 149 845 q 163 870 159 863 l 534 870 l 547 853 "},"˘":{"x_min":88.171875,"x_max":480.1875,"ha":423,"o":"m 480 905 q 427 813 455 850 q 371 754 400 776 q 314 721 343 731 q 259 712 286 712 q 203 721 229 712 q 155 754 177 731 q 116 814 133 777 q 88 905 99 851 q 106 923 97 917 q 125 935 115 929 q 150 871 134 897 q 186 829 166 845 q 226 806 205 813 q 267 799 247 799 q 312 806 288 799 q 361 829 337 813 q 408 871 385 845 q 451 935 431 897 q 466 924 460 929 q 480 905 473 918 "},"ẋ":{"x_min":-19.671875,"x_max":605.65625,"ha":611,"o":"m 594 48 q 543 13 565 28 q 502 -10 520 0 q 470 -23 484 -19 q 442 -28 455 -28 q 401 -6 422 -28 q 361 50 381 14 q 321 132 341 86 q 282 229 301 178 q 246 182 266 208 q 203 126 226 155 q 156 62 181 96 q 108 -6 132 29 q 52 -15 83 -10 q -4 -28 21 -20 l -19 -4 q 47 58 11 22 q 120 134 83 94 q 192 213 157 173 q 259 290 228 254 q 220 391 239 342 q 182 477 201 440 q 146 538 164 515 q 112 561 128 561 q 92 558 106 561 q 64 552 78 555 q 27 543 47 548 l 18 569 q 72 593 46 582 q 120 614 99 605 q 157 629 142 624 q 180 635 172 635 q 217 611 198 635 q 256 550 236 588 q 296 463 276 512 q 337 361 316 413 q 391 429 364 394 q 438 493 417 464 q 471 543 458 523 q 483 568 483 563 q 481 580 483 575 q 472 588 479 586 q 452 591 465 591 q 417 590 439 592 l 416 618 q 495 631 461 627 q 547 635 530 635 q 592 624 579 635 q 605 599 605 613 q 589 562 605 585 q 542 502 573 538 q 465 416 512 465 q 360 300 419 366 q 397 206 379 252 q 434 127 416 161 q 468 71 451 92 q 501 51 485 51 q 537 55 516 51 q 583 73 558 60 l 594 48 m 457 855 q 451 818 457 836 q 435 784 445 799 q 408 759 424 769 q 373 750 392 750 q 341 762 352 750 q 329 797 329 774 q 335 834 329 815 q 352 868 341 853 q 378 894 363 884 q 413 904 394 904 q 445 891 434 904 q 457 855 457 878 "},"D":{"x_min":0.546875,"x_max":731,"ha":758,"o":"m 731 505 q 719 384 731 445 q 684 268 707 324 q 627 163 661 212 q 548 77 593 113 q 448 20 503 41 q 326 0 392 0 l 0 0 l 4 29 q 73 49 47 38 q 100 70 98 61 l 201 809 l 97 797 l 97 840 q 251 867 175 859 q 397 875 328 875 q 539 848 477 875 q 643 773 600 822 q 708 657 686 725 q 731 505 731 589 m 342 817 l 321 817 q 301 817 311 817 l 203 94 q 205 77 201 84 q 221 65 210 70 q 254 59 233 61 q 309 57 275 57 q 401 75 359 57 q 478 127 443 94 q 539 203 513 160 q 584 295 566 246 q 611 394 602 343 q 621 493 621 445 q 602 625 621 565 q 549 727 584 684 q 461 794 513 770 q 342 817 410 817 "},"ĺ":{"x_min":69,"x_max":501.875,"ha":326,"o":"m 295 48 q 236 13 261 27 q 190 -10 211 -1 q 152 -23 169 -19 q 117 -28 134 -28 q 83 -7 98 -28 q 69 52 69 12 q 74 110 69 69 q 87 207 79 151 q 105 331 95 263 q 127 469 116 398 q 148 609 137 539 q 166 737 158 678 q 179 843 174 797 q 185 912 185 889 q 181 937 185 928 q 174 951 178 946 q 163 957 169 955 q 150 958 156 958 q 133 955 145 958 q 109 948 121 952 q 80 940 96 944 l 70 966 q 127 990 98 979 q 180 1011 156 1002 q 224 1025 205 1020 q 252 1031 243 1031 q 282 1018 271 1031 q 294 975 294 1006 q 288 902 294 948 q 275 795 283 855 q 256 666 267 735 q 235 526 245 597 q 213 388 224 456 q 194 261 202 320 q 181 158 186 203 q 176 91 176 114 q 182 59 176 68 q 199 51 188 51 q 235 56 215 51 q 286 73 256 62 l 295 48 m 501 1295 l 193 1130 q 180 1142 183 1136 q 170 1161 177 1148 l 436 1375 l 451 1364 q 470 1352 460 1358 q 488 1338 480 1345 q 501 1327 497 1331 l 501 1295 "},"ł":{"x_min":29.34375,"x_max":370.171875,"ha":353,"o":"m 309 48 q 250 13 275 27 q 204 -10 225 -1 q 166 -23 183 -19 q 131 -28 148 -28 q 97 -7 112 -28 q 83 52 83 12 q 87 105 83 68 q 99 194 91 142 q 116 307 106 245 q 135 436 125 370 l 41 369 l 29 383 q 32 396 31 391 q 35 406 33 401 q 40 419 36 411 q 50 442 43 427 l 147 509 q 166 638 157 575 q 183 754 176 701 q 194 849 190 808 q 199 912 199 890 q 195 937 199 928 q 188 951 192 946 q 177 957 183 955 q 164 958 170 958 q 147 955 159 958 q 123 948 135 952 q 94 940 110 944 l 84 966 q 141 990 112 979 q 194 1011 170 1002 q 238 1025 219 1020 q 266 1031 257 1031 q 296 1018 285 1031 q 308 975 308 1006 q 303 911 308 951 q 293 820 299 871 q 277 709 286 769 q 258 588 267 650 l 354 655 l 370 640 l 364 622 q 361 612 363 617 q 356 601 359 607 q 347 584 353 596 l 246 513 q 225 378 235 444 q 207 256 215 312 q 194 156 199 199 q 190 91 190 113 q 196 59 190 68 q 213 51 202 51 q 249 56 229 51 q 300 73 270 62 l 309 48 "},"":{"x_min":153.28125,"x_max":311.296875,"ha":305,"o":"m 203 517 q 180 509 191 511 q 153 507 168 507 l 185 1002 q 206 1011 193 1006 q 232 1022 219 1017 q 259 1031 246 1027 q 279 1038 271 1035 l 311 1020 l 203 517 "},"$":{"x_min":-11.0625,"x_max":539.0625,"ha":558,"o":"m 169 644 q 173 617 169 631 q 189 588 177 603 q 221 557 200 573 q 273 522 241 540 l 308 767 q 250 753 276 765 q 206 724 225 741 q 178 685 188 706 q 169 644 169 664 m 416 232 q 410 272 416 253 q 391 309 404 291 q 357 343 378 326 q 307 378 336 361 l 262 64 q 323 86 295 70 q 371 123 350 101 q 404 173 392 145 q 416 232 416 201 m 537 775 q 534 759 541 772 q 515 731 526 746 q 490 702 503 715 q 471 685 477 689 l 452 688 q 412 730 436 711 q 361 760 389 750 l 323 496 q 404 448 370 471 q 459 399 437 424 q 490 346 480 374 q 501 283 501 317 q 481 183 501 231 q 428 96 462 135 q 349 28 394 57 q 252 -12 303 0 l 240 -93 q 230 -102 234 -99 q 222 -107 226 -105 q 212 -110 217 -109 q 199 -114 207 -111 l 186 -99 l 196 -20 q 187 -20 192 -20 q 178 -21 182 -21 q 120 -12 153 -21 q 58 9 87 -4 q 9 39 29 22 q -11 73 -11 56 q -3 96 -11 81 q 15 126 4 111 q 38 152 26 141 q 60 163 50 163 q 78 148 66 163 q 106 115 89 134 q 149 81 124 97 q 208 61 173 65 l 257 406 l 241 414 q 169 457 198 434 q 122 504 140 480 q 97 552 105 528 q 90 599 90 576 q 106 675 90 637 q 152 743 122 712 q 224 798 182 775 q 317 829 266 820 l 328 907 q 340 914 336 912 q 347 918 345 917 q 354 921 350 920 q 367 926 358 923 l 382 911 l 371 834 l 372 834 q 463 816 420 834 q 537 775 506 799 "},"w":{"x_min":3.015625,"x_max":867,"ha":875,"o":"m 867 583 q 863 541 867 565 q 851 484 860 517 q 825 406 841 451 q 783 303 809 362 q 720 170 757 244 q 632 1 683 95 q 618 -5 626 -2 q 601 -13 610 -9 q 584 -21 593 -17 q 570 -28 576 -25 l 547 -6 q 537 75 542 31 q 524 165 531 119 q 511 256 518 211 q 498 341 504 301 q 484 414 491 381 q 472 467 478 446 q 463 424 471 453 q 441 357 455 395 q 409 273 428 318 q 370 182 391 229 q 326 90 349 135 q 281 6 304 45 q 266 -1 274 3 q 248 -10 258 -5 q 229 -20 239 -15 q 213 -28 220 -25 l 192 -6 q 182 77 187 31 q 172 173 177 124 q 161 271 167 222 q 150 365 156 321 q 139 446 145 409 q 127 505 133 482 q 117 534 123 523 q 105 551 112 545 q 92 559 99 557 q 79 561 85 561 q 62 558 73 561 q 40 552 51 556 q 12 544 27 549 l 3 569 q 57 594 31 582 q 104 615 83 606 q 141 629 125 624 q 165 635 156 635 q 194 612 184 635 q 215 542 203 590 q 224 488 219 523 q 235 412 230 454 q 247 324 241 370 q 257 237 252 278 q 265 162 262 196 q 269 112 268 129 q 325 228 296 165 q 377 354 353 291 q 417 478 401 418 q 436 586 433 538 q 458 603 446 594 q 482 619 470 612 q 504 630 494 626 q 522 635 515 635 q 529 623 525 635 q 538 594 533 612 q 547 552 542 576 q 557 503 553 528 l 567 452 q 575 407 572 427 q 586 336 580 375 q 599 257 593 298 q 611 176 605 216 q 620 100 617 135 q 703 265 671 193 q 754 389 736 336 q 778 479 772 442 q 785 542 785 516 q 775 564 785 556 q 747 573 765 573 q 724 570 738 573 q 696 562 711 567 l 683 587 q 728 610 707 601 q 765 624 749 619 q 793 632 782 630 q 810 635 805 635 q 831 633 821 635 q 849 626 841 631 q 862 610 857 620 q 867 583 867 600 "},"":{"x_min":0,"x_max":575.140625,"ha":623,"o":"m 575 166 q 547 63 561 107 q 524 0 533 19 l 0 0 l 4 29 q 72 49 46 38 q 99 70 98 61 l 140 364 l 38 364 l 28 381 q 36 403 31 391 q 47 426 42 414 l 148 426 l 198 783 q 179 804 200 791 q 113 825 158 816 l 118 855 l 396 855 l 392 825 q 323 804 349 816 q 295 783 297 793 l 246 426 l 404 426 l 417 410 l 395 364 l 238 364 l 202 105 q 205 84 201 93 q 222 71 209 76 q 256 64 234 66 q 312 62 278 62 l 398 62 q 447 65 427 62 q 483 80 467 68 q 514 115 499 92 q 548 178 529 138 l 575 166 "}}}
